%TF.GenerationSoftware,KiCad,Pcbnew,5.1.5+dfsg1-2~bpo10+1*%
%TF.CreationDate,Date%
%TF.ProjectId,Gesture Sensor,47657374-7572-4652-9053-656e736f722e,rev?*%
%TF.SameCoordinates,Original*%
%TF.FileFunction,Other,Fab,Top*%
%FSLAX45Y45*%
G04 Gerber Fmt 4.5, Leading zero omitted, Abs format (unit mm)*
G04 Created by KiCad*
%MOMM*%
%LPD*%
G04 APERTURE LIST*
%ADD10C,0.050000*%
%ADD11C,0.127000*%
%ADD12C,0.300000*%
%ADD13C,0.100000*%
%ADD14C,0.150000*%
%ADD15C,0.080000*%
G04 APERTURE END LIST*
D10*
X13335000Y-6350000D02*
G75*
G02X13081000Y-6096000I0J254000D01*
G01*
X15367000Y-4572000D02*
G75*
G02X15621000Y-4826000I0J-254000D01*
G01*
X15621000Y-6096000D02*
G75*
G02X15367000Y-6350000I-254000J0D01*
G01*
X13081000Y-4826000D02*
G75*
G02X13335000Y-4572000I254000J0D01*
G01*
X13335000Y-4572000D02*
X15367000Y-4572000D01*
X13081000Y-4826000D02*
X13081000Y-6096000D01*
X15621000Y-4826000D02*
X15621000Y-6096000D01*
X13335000Y-6350000D02*
X15367000Y-6350000D01*
D11*
X13556500Y-5186400D02*
X13556500Y-5786400D01*
X13556500Y-5786400D02*
X13131500Y-5786400D01*
X13131500Y-5786400D02*
X13131500Y-5186400D01*
X13131500Y-5186400D02*
X13556500Y-5186400D01*
D12*
X13637500Y-5241400D02*
G75*
G03X13637500Y-5241400I-10000J0D01*
G01*
D11*
X15145500Y-5786400D02*
X15145500Y-5186400D01*
X15145500Y-5186400D02*
X15570500Y-5186400D01*
X15570500Y-5186400D02*
X15570500Y-5786400D01*
X15570500Y-5786400D02*
X15145500Y-5786400D01*
D12*
X15084500Y-5731400D02*
G75*
G03X15084500Y-5731400I-10000J0D01*
G01*
D13*
X13980120Y-4616720D02*
X14180120Y-4616720D01*
X13980120Y-4736720D02*
X13980120Y-4616720D01*
X14180120Y-4736720D02*
X13980120Y-4736720D01*
X14180120Y-4616720D02*
X14180120Y-4736720D01*
X14802420Y-5838500D02*
X14602420Y-5838500D01*
X14802420Y-5718500D02*
X14802420Y-5838500D01*
X14602420Y-5718500D02*
X14802420Y-5718500D01*
X14602420Y-5838500D02*
X14602420Y-5718500D01*
X14913300Y-4865040D02*
X14913300Y-4665040D01*
X15033300Y-4865040D02*
X14913300Y-4865040D01*
X15033300Y-4665040D02*
X15033300Y-4865040D01*
X14913300Y-4665040D02*
X15033300Y-4665040D01*
X14715180Y-4865040D02*
X14715180Y-4665040D01*
X14835180Y-4865040D02*
X14715180Y-4865040D01*
X14835180Y-4665040D02*
X14835180Y-4865040D01*
X14715180Y-4665040D02*
X14835180Y-4665040D01*
X14051320Y-5838500D02*
X13851320Y-5838500D01*
X14051320Y-5718500D02*
X14051320Y-5838500D01*
X13851320Y-5718500D02*
X14051320Y-5718500D01*
X13851320Y-5838500D02*
X13851320Y-5718500D01*
X14226500Y-5718500D02*
X14426500Y-5718500D01*
X14226500Y-5838500D02*
X14226500Y-5718500D01*
X14426500Y-5838500D02*
X14226500Y-5838500D01*
X14426500Y-5718500D02*
X14426500Y-5838500D01*
X14226500Y-5093660D02*
X14426500Y-5093660D01*
X14226500Y-5213660D02*
X14226500Y-5093660D01*
X14426500Y-5213660D02*
X14226500Y-5213660D01*
X14426500Y-5093660D02*
X14426500Y-5213660D01*
X13614360Y-4961580D02*
X13814360Y-4961580D01*
X13614360Y-5081580D02*
X13614360Y-4961580D01*
X13814360Y-5081580D02*
X13614360Y-5081580D01*
X13814360Y-4961580D02*
X13814360Y-5081580D01*
X13692000Y-6194500D02*
X13692000Y-6004000D01*
X13692000Y-6004000D02*
X14962000Y-6004000D01*
X14962000Y-6004000D02*
X14962000Y-6258000D01*
X14962000Y-6258000D02*
X13755500Y-6258000D01*
X13755500Y-6258000D02*
X13692000Y-6194500D01*
X13818540Y-4621220D02*
X13648540Y-4621220D01*
X13648540Y-4621220D02*
X13618540Y-4651220D01*
X13618540Y-4651220D02*
X13618540Y-4741220D01*
X13618540Y-4741220D02*
X13818540Y-4741220D01*
X13818540Y-4741220D02*
X13818540Y-4621220D01*
D11*
X14199980Y-5665620D02*
X14199980Y-5386620D01*
X14199980Y-5386620D02*
X14199980Y-5271620D01*
X14435980Y-5665620D02*
X14435980Y-5386620D01*
X14435980Y-5386620D02*
X14435980Y-5271620D01*
X14435980Y-5665620D02*
X14199980Y-5665620D01*
X14435980Y-5271620D02*
X14199980Y-5271620D01*
X14435980Y-5386620D02*
X14199980Y-5386620D01*
X14372980Y-5595620D02*
G75*
G03X14372980Y-5595620I-55000J0D01*
G01*
X14362980Y-5325620D02*
G75*
G03X14362980Y-5325620I-45000J0D01*
G01*
D14*
X15339857Y-6129928D02*
X15339857Y-6054928D01*
X15339857Y-6090643D02*
X15382714Y-6090643D01*
X15382714Y-6129928D02*
X15382714Y-6054928D01*
X15414857Y-6062071D02*
X15418428Y-6058500D01*
X15425571Y-6054928D01*
X15443428Y-6054928D01*
X15450571Y-6058500D01*
X15454143Y-6062071D01*
X15457714Y-6069214D01*
X15457714Y-6076357D01*
X15454143Y-6087071D01*
X15411286Y-6129928D01*
X15457714Y-6129928D01*
D15*
X14067620Y-4710649D02*
X14042620Y-4674934D01*
X14024763Y-4710649D02*
X14024763Y-4635649D01*
X14053334Y-4635649D01*
X14060477Y-4639220D01*
X14064048Y-4642791D01*
X14067620Y-4649934D01*
X14067620Y-4660649D01*
X14064048Y-4667791D01*
X14060477Y-4671363D01*
X14053334Y-4674934D01*
X14024763Y-4674934D01*
X14135477Y-4635649D02*
X14099763Y-4635649D01*
X14096191Y-4671363D01*
X14099763Y-4667791D01*
X14106906Y-4664220D01*
X14124763Y-4664220D01*
X14131906Y-4667791D01*
X14135477Y-4671363D01*
X14139048Y-4678506D01*
X14139048Y-4696363D01*
X14135477Y-4703506D01*
X14131906Y-4707077D01*
X14124763Y-4710649D01*
X14106906Y-4710649D01*
X14099763Y-4707077D01*
X14096191Y-4703506D01*
X14689920Y-5812428D02*
X14664920Y-5776714D01*
X14647063Y-5812428D02*
X14647063Y-5737428D01*
X14675634Y-5737428D01*
X14682777Y-5741000D01*
X14686348Y-5744571D01*
X14689920Y-5751714D01*
X14689920Y-5762428D01*
X14686348Y-5769571D01*
X14682777Y-5773143D01*
X14675634Y-5776714D01*
X14647063Y-5776714D01*
X14754206Y-5762428D02*
X14754206Y-5812428D01*
X14736348Y-5733857D02*
X14718491Y-5787428D01*
X14764920Y-5787428D01*
X15007228Y-4777540D02*
X14971514Y-4802540D01*
X15007228Y-4820397D02*
X14932228Y-4820397D01*
X14932228Y-4791826D01*
X14935800Y-4784683D01*
X14939371Y-4781111D01*
X14946514Y-4777540D01*
X14957228Y-4777540D01*
X14964371Y-4781111D01*
X14967943Y-4784683D01*
X14971514Y-4791826D01*
X14971514Y-4820397D01*
X14932228Y-4752540D02*
X14932228Y-4706111D01*
X14960800Y-4731111D01*
X14960800Y-4720397D01*
X14964371Y-4713254D01*
X14967943Y-4709683D01*
X14975086Y-4706111D01*
X14992943Y-4706111D01*
X15000086Y-4709683D01*
X15003657Y-4713254D01*
X15007228Y-4720397D01*
X15007228Y-4741826D01*
X15003657Y-4748969D01*
X15000086Y-4752540D01*
X14809108Y-4777540D02*
X14773394Y-4802540D01*
X14809108Y-4820397D02*
X14734108Y-4820397D01*
X14734108Y-4791826D01*
X14737680Y-4784683D01*
X14741251Y-4781111D01*
X14748394Y-4777540D01*
X14759108Y-4777540D01*
X14766251Y-4781111D01*
X14769823Y-4784683D01*
X14773394Y-4791826D01*
X14773394Y-4820397D01*
X14741251Y-4748969D02*
X14737680Y-4745397D01*
X14734108Y-4738254D01*
X14734108Y-4720397D01*
X14737680Y-4713254D01*
X14741251Y-4709683D01*
X14748394Y-4706111D01*
X14755537Y-4706111D01*
X14766251Y-4709683D01*
X14809108Y-4752540D01*
X14809108Y-4706111D01*
X13938820Y-5812428D02*
X13913820Y-5776714D01*
X13895963Y-5812428D02*
X13895963Y-5737428D01*
X13924534Y-5737428D01*
X13931677Y-5741000D01*
X13935248Y-5744571D01*
X13938820Y-5751714D01*
X13938820Y-5762428D01*
X13935248Y-5769571D01*
X13931677Y-5773143D01*
X13924534Y-5776714D01*
X13895963Y-5776714D01*
X14010248Y-5812428D02*
X13967391Y-5812428D01*
X13988820Y-5812428D02*
X13988820Y-5737428D01*
X13981677Y-5748143D01*
X13974534Y-5755286D01*
X13967391Y-5758857D01*
X14314000Y-5805286D02*
X14310428Y-5808857D01*
X14299714Y-5812428D01*
X14292571Y-5812428D01*
X14281857Y-5808857D01*
X14274714Y-5801714D01*
X14271143Y-5794571D01*
X14267571Y-5780286D01*
X14267571Y-5769571D01*
X14271143Y-5755286D01*
X14274714Y-5748143D01*
X14281857Y-5741000D01*
X14292571Y-5737428D01*
X14299714Y-5737428D01*
X14310428Y-5741000D01*
X14314000Y-5744571D01*
X14339000Y-5737428D02*
X14385428Y-5737428D01*
X14360428Y-5766000D01*
X14371143Y-5766000D01*
X14378286Y-5769571D01*
X14381857Y-5773143D01*
X14385428Y-5780286D01*
X14385428Y-5798143D01*
X14381857Y-5805286D01*
X14378286Y-5808857D01*
X14371143Y-5812428D01*
X14349714Y-5812428D01*
X14342571Y-5808857D01*
X14339000Y-5805286D01*
X14314000Y-5180446D02*
X14310428Y-5184017D01*
X14299714Y-5187589D01*
X14292571Y-5187589D01*
X14281857Y-5184017D01*
X14274714Y-5176874D01*
X14271143Y-5169731D01*
X14267571Y-5155446D01*
X14267571Y-5144731D01*
X14271143Y-5130446D01*
X14274714Y-5123303D01*
X14281857Y-5116160D01*
X14292571Y-5112589D01*
X14299714Y-5112589D01*
X14310428Y-5116160D01*
X14314000Y-5119731D01*
X14342571Y-5119731D02*
X14346143Y-5116160D01*
X14353286Y-5112589D01*
X14371143Y-5112589D01*
X14378286Y-5116160D01*
X14381857Y-5119731D01*
X14385428Y-5126874D01*
X14385428Y-5134017D01*
X14381857Y-5144731D01*
X14339000Y-5187589D01*
X14385428Y-5187589D01*
X13701860Y-5048366D02*
X13698288Y-5051937D01*
X13687574Y-5055509D01*
X13680431Y-5055509D01*
X13669717Y-5051937D01*
X13662574Y-5044794D01*
X13659003Y-5037651D01*
X13655431Y-5023366D01*
X13655431Y-5012651D01*
X13659003Y-4998366D01*
X13662574Y-4991223D01*
X13669717Y-4984080D01*
X13680431Y-4980509D01*
X13687574Y-4980509D01*
X13698288Y-4984080D01*
X13701860Y-4987651D01*
X13773288Y-5055509D02*
X13730431Y-5055509D01*
X13751860Y-5055509D02*
X13751860Y-4980509D01*
X13744717Y-4991223D01*
X13737574Y-4998366D01*
X13730431Y-5001937D01*
D14*
X14302000Y-6089928D02*
X14302000Y-6143500D01*
X14298428Y-6154214D01*
X14291286Y-6161357D01*
X14280571Y-6164928D01*
X14273428Y-6164928D01*
X14377000Y-6164928D02*
X14334143Y-6164928D01*
X14355571Y-6164928D02*
X14355571Y-6089928D01*
X14348428Y-6100643D01*
X14341286Y-6107786D01*
X14334143Y-6111357D01*
X13307857Y-6129928D02*
X13307857Y-6054928D01*
X13307857Y-6090643D02*
X13350714Y-6090643D01*
X13350714Y-6129928D02*
X13350714Y-6054928D01*
X13418571Y-6079928D02*
X13418571Y-6129928D01*
X13400714Y-6051357D02*
X13382857Y-6104928D01*
X13429286Y-6104928D01*
X13307857Y-4859929D02*
X13307857Y-4784929D01*
X13307857Y-4820643D02*
X13350714Y-4820643D01*
X13350714Y-4859929D02*
X13350714Y-4784929D01*
X13379286Y-4784929D02*
X13425714Y-4784929D01*
X13400714Y-4813500D01*
X13411428Y-4813500D01*
X13418571Y-4817071D01*
X13422143Y-4820643D01*
X13425714Y-4827786D01*
X13425714Y-4845643D01*
X13422143Y-4852786D01*
X13418571Y-4856357D01*
X13411428Y-4859929D01*
X13390000Y-4859929D01*
X13382857Y-4856357D01*
X13379286Y-4852786D01*
X15279857Y-4859929D02*
X15279857Y-4784929D01*
X15279857Y-4820643D02*
X15322714Y-4820643D01*
X15322714Y-4859929D02*
X15322714Y-4784929D01*
X15397714Y-4859929D02*
X15354857Y-4859929D01*
X15376286Y-4859929D02*
X15376286Y-4784929D01*
X15369143Y-4795643D01*
X15362000Y-4802786D01*
X15354857Y-4806357D01*
D15*
X13663183Y-4715149D02*
X13663183Y-4640149D01*
X13681040Y-4640149D01*
X13691754Y-4643720D01*
X13698897Y-4650863D01*
X13702468Y-4658006D01*
X13706040Y-4672291D01*
X13706040Y-4683006D01*
X13702468Y-4697291D01*
X13698897Y-4704434D01*
X13691754Y-4711577D01*
X13681040Y-4715149D01*
X13663183Y-4715149D01*
X13777468Y-4715149D02*
X13734611Y-4715149D01*
X13756040Y-4715149D02*
X13756040Y-4640149D01*
X13748897Y-4650863D01*
X13741754Y-4658006D01*
X13734611Y-4661577D01*
M02*
