%TF.GenerationSoftware,KiCad,Pcbnew,5.1.5+dfsg1-2~bpo10+1*%
%TF.CreationDate,Date%
%TF.ProjectId,Gesture Sensor,47657374-7572-4652-9053-656e736f722e,rev?*%
%TF.SameCoordinates,Original*%
%TF.FileFunction,Copper,L2,Bot*%
%TF.FilePolarity,Positive*%
%FSLAX45Y45*%
G04 Gerber Fmt 4.5, Leading zero omitted, Abs format (unit mm)*
G04 Created by KiCad*
%MOMM*%
%LPD*%
G04 APERTURE LIST*
%ADD10C,0.050000*%
%ADD11C,3.800000*%
%ADD12O,1.700000X1.700000*%
%ADD13R,1.700000X1.700000*%
%ADD14C,0.800000*%
%ADD15C,0.500000*%
%ADD16C,0.254000*%
%ADD17C,0.350000*%
G04 APERTURE END LIST*
D10*
X13335000Y-6350000D02*
G75*
G02X13081000Y-6096000I0J254000D01*
G01*
X15367000Y-4572000D02*
G75*
G02X15621000Y-4826000I0J-254000D01*
G01*
X15621000Y-6096000D02*
G75*
G02X15367000Y-6350000I-254000J0D01*
G01*
X13081000Y-4826000D02*
G75*
G02X13335000Y-4572000I254000J0D01*
G01*
X13335000Y-4572000D02*
X15367000Y-4572000D01*
X13081000Y-4826000D02*
X13081000Y-6096000D01*
X15621000Y-4826000D02*
X15621000Y-6096000D01*
X13335000Y-6350000D02*
X15367000Y-6350000D01*
D11*
X15367000Y-6096000D03*
D12*
X14835000Y-6131000D03*
X14581000Y-6131000D03*
X14327000Y-6131000D03*
X14073000Y-6131000D03*
D13*
X13819000Y-6131000D03*
D11*
X13335000Y-6096000D03*
X13335000Y-4826000D03*
X15367000Y-4826000D03*
D14*
X14538960Y-5369560D03*
X13609320Y-5189220D03*
X14241780Y-4907280D03*
X15354300Y-5565140D03*
X14922500Y-5331460D03*
X14531340Y-5511800D03*
X13972540Y-5417820D03*
X13784580Y-5547360D03*
X14152880Y-5631180D03*
X14963140Y-5440680D03*
D15*
X14742160Y-5511800D02*
X14922500Y-5331460D01*
X14531340Y-5511800D02*
X14742160Y-5511800D01*
X14922500Y-5331460D02*
X15052040Y-5331460D01*
X15052040Y-5331460D02*
X15100300Y-5379720D01*
X15100300Y-5611700D02*
X14581000Y-6131000D01*
X15100300Y-5379720D02*
X15100300Y-5611700D01*
X14531340Y-5511800D02*
X14183360Y-5511800D01*
X14183360Y-5511800D02*
X14089380Y-5417820D01*
X14089380Y-5417820D02*
X13972540Y-5417820D01*
X13972540Y-5417820D02*
X13972540Y-5417820D01*
X14152880Y-5956880D02*
X14327000Y-6131000D01*
X14152880Y-5631180D02*
X14152880Y-5956880D01*
X14069060Y-5547360D02*
X14152880Y-5631180D01*
X13784580Y-5547360D02*
X14069060Y-5547360D01*
X14152880Y-5631180D02*
X14772640Y-5631180D01*
X14772640Y-5631180D02*
X14963140Y-5440680D01*
X14963140Y-5440680D02*
X14963140Y-5440680D01*
D16*
G36*
X15170094Y-4664403D02*
G01*
X15142351Y-4705923D01*
X15123242Y-4752057D01*
X15113500Y-4801032D01*
X15113500Y-4850968D01*
X15123242Y-4899943D01*
X15142351Y-4946077D01*
X15170094Y-4987597D01*
X15205403Y-5022906D01*
X15246923Y-5050649D01*
X15293057Y-5069758D01*
X15342032Y-5079500D01*
X15391968Y-5079500D01*
X15440943Y-5069758D01*
X15487077Y-5050649D01*
X15528597Y-5022906D01*
X15555000Y-4996503D01*
X15555000Y-5925497D01*
X15528597Y-5899094D01*
X15487077Y-5871351D01*
X15440943Y-5852242D01*
X15391968Y-5842500D01*
X15342032Y-5842500D01*
X15293057Y-5852242D01*
X15246923Y-5871351D01*
X15205403Y-5899094D01*
X15170094Y-5934403D01*
X15142351Y-5975923D01*
X15123242Y-6022057D01*
X15113500Y-6071032D01*
X15113500Y-6120968D01*
X15123242Y-6169943D01*
X15142351Y-6216077D01*
X15170094Y-6257597D01*
X15196497Y-6284000D01*
X13505503Y-6284000D01*
X13531906Y-6257597D01*
X13559649Y-6216077D01*
X13559681Y-6216000D01*
X13670193Y-6216000D01*
X13671419Y-6228448D01*
X13675050Y-6240418D01*
X13680946Y-6251449D01*
X13688881Y-6261118D01*
X13698551Y-6269054D01*
X13709582Y-6274950D01*
X13721552Y-6278581D01*
X13734000Y-6279807D01*
X13790425Y-6279500D01*
X13806300Y-6263625D01*
X13806300Y-6143700D01*
X13686375Y-6143700D01*
X13670500Y-6159575D01*
X13670193Y-6216000D01*
X13559681Y-6216000D01*
X13578758Y-6169943D01*
X13588500Y-6120968D01*
X13588500Y-6071032D01*
X13583521Y-6046000D01*
X13670193Y-6046000D01*
X13670500Y-6102425D01*
X13686375Y-6118300D01*
X13806300Y-6118300D01*
X13806300Y-5998375D01*
X13790425Y-5982500D01*
X13734000Y-5982193D01*
X13721552Y-5983419D01*
X13709582Y-5987050D01*
X13698551Y-5992946D01*
X13688881Y-6000881D01*
X13680946Y-6010551D01*
X13675050Y-6021582D01*
X13671419Y-6033552D01*
X13670193Y-6046000D01*
X13583521Y-6046000D01*
X13578758Y-6022057D01*
X13559649Y-5975923D01*
X13531906Y-5934403D01*
X13496597Y-5899094D01*
X13455077Y-5871351D01*
X13408943Y-5852242D01*
X13359968Y-5842500D01*
X13310032Y-5842500D01*
X13261057Y-5852242D01*
X13214923Y-5871351D01*
X13173403Y-5899094D01*
X13147000Y-5925497D01*
X13147000Y-5537166D01*
X13681080Y-5537166D01*
X13681080Y-5557554D01*
X13685057Y-5577550D01*
X13692859Y-5596386D01*
X13704186Y-5613337D01*
X13718603Y-5627754D01*
X13735554Y-5639080D01*
X13754390Y-5646883D01*
X13774386Y-5650860D01*
X13794774Y-5650860D01*
X13814770Y-5646883D01*
X13833606Y-5639080D01*
X13838425Y-5635860D01*
X14032402Y-5635860D01*
X14052226Y-5655684D01*
X14053357Y-5661370D01*
X14061159Y-5680206D01*
X14064380Y-5685025D01*
X14064380Y-5952532D01*
X14063952Y-5956880D01*
X14065660Y-5974229D01*
X14068170Y-5982500D01*
X14058374Y-5982500D01*
X14029684Y-5988207D01*
X14002659Y-5999401D01*
X13978337Y-6015652D01*
X13965151Y-6028838D01*
X13962950Y-6021582D01*
X13957054Y-6010551D01*
X13949118Y-6000881D01*
X13939449Y-5992946D01*
X13928418Y-5987050D01*
X13916448Y-5983419D01*
X13904000Y-5982193D01*
X13847575Y-5982500D01*
X13831700Y-5998375D01*
X13831700Y-6118300D01*
X13833700Y-6118300D01*
X13833700Y-6143700D01*
X13831700Y-6143700D01*
X13831700Y-6263625D01*
X13847575Y-6279500D01*
X13904000Y-6279807D01*
X13916448Y-6278581D01*
X13928418Y-6274950D01*
X13939449Y-6269054D01*
X13949118Y-6261118D01*
X13957054Y-6251449D01*
X13962950Y-6240418D01*
X13965151Y-6233162D01*
X13978337Y-6246347D01*
X14002659Y-6262599D01*
X14029684Y-6273793D01*
X14058374Y-6279500D01*
X14087626Y-6279500D01*
X14116316Y-6273793D01*
X14143341Y-6262599D01*
X14167663Y-6246347D01*
X14188347Y-6225663D01*
X14200000Y-6208224D01*
X14211652Y-6225663D01*
X14232337Y-6246347D01*
X14256659Y-6262599D01*
X14283684Y-6273793D01*
X14312374Y-6279500D01*
X14341626Y-6279500D01*
X14370316Y-6273793D01*
X14397341Y-6262599D01*
X14421663Y-6246347D01*
X14442347Y-6225663D01*
X14454000Y-6208224D01*
X14465652Y-6225663D01*
X14486337Y-6246347D01*
X14510659Y-6262599D01*
X14537684Y-6273793D01*
X14566374Y-6279500D01*
X14595626Y-6279500D01*
X14624316Y-6273793D01*
X14651341Y-6262599D01*
X14675663Y-6246347D01*
X14696347Y-6225663D01*
X14708000Y-6208224D01*
X14719652Y-6225663D01*
X14740337Y-6246347D01*
X14764659Y-6262599D01*
X14791684Y-6273793D01*
X14820374Y-6279500D01*
X14849626Y-6279500D01*
X14878316Y-6273793D01*
X14905341Y-6262599D01*
X14929663Y-6246347D01*
X14950347Y-6225663D01*
X14966599Y-6201341D01*
X14977793Y-6174316D01*
X14983500Y-6145626D01*
X14983500Y-6116374D01*
X14977793Y-6087684D01*
X14966599Y-6060659D01*
X14950347Y-6036337D01*
X14929663Y-6015652D01*
X14905341Y-5999401D01*
X14878316Y-5988207D01*
X14853823Y-5983335D01*
X15159805Y-5677353D01*
X15163182Y-5674582D01*
X15174241Y-5661106D01*
X15182459Y-5645731D01*
X15187519Y-5629049D01*
X15188800Y-5616048D01*
X15188800Y-5616047D01*
X15189228Y-5611700D01*
X15188800Y-5607353D01*
X15188800Y-5384067D01*
X15189228Y-5379720D01*
X15188800Y-5375373D01*
X15188800Y-5375372D01*
X15187519Y-5362371D01*
X15182459Y-5345689D01*
X15174241Y-5330314D01*
X15163182Y-5316838D01*
X15159804Y-5314067D01*
X15117693Y-5271956D01*
X15114922Y-5268578D01*
X15101446Y-5257519D01*
X15086071Y-5249301D01*
X15069389Y-5244241D01*
X15056388Y-5242960D01*
X15056387Y-5242960D01*
X15052040Y-5242532D01*
X15047693Y-5242960D01*
X14976345Y-5242960D01*
X14971526Y-5239740D01*
X14952690Y-5231937D01*
X14932694Y-5227960D01*
X14912306Y-5227960D01*
X14892310Y-5231937D01*
X14873474Y-5239740D01*
X14856523Y-5251066D01*
X14842106Y-5265483D01*
X14830779Y-5282434D01*
X14822977Y-5301270D01*
X14821846Y-5306956D01*
X14705502Y-5423300D01*
X14585185Y-5423300D01*
X14580366Y-5420080D01*
X14561530Y-5412277D01*
X14541534Y-5408300D01*
X14521146Y-5408300D01*
X14501150Y-5412277D01*
X14482314Y-5420080D01*
X14477495Y-5423300D01*
X14220018Y-5423300D01*
X14155033Y-5358316D01*
X14152262Y-5354938D01*
X14138786Y-5343879D01*
X14123411Y-5335661D01*
X14106729Y-5330601D01*
X14093728Y-5329320D01*
X14093727Y-5329320D01*
X14089380Y-5328892D01*
X14085033Y-5329320D01*
X14026385Y-5329320D01*
X14021566Y-5326100D01*
X14002730Y-5318297D01*
X13982734Y-5314320D01*
X13962346Y-5314320D01*
X13942350Y-5318297D01*
X13923514Y-5326100D01*
X13906563Y-5337426D01*
X13892146Y-5351843D01*
X13880819Y-5368794D01*
X13873017Y-5387630D01*
X13869040Y-5407626D01*
X13869040Y-5428014D01*
X13873017Y-5448010D01*
X13877512Y-5458860D01*
X13838425Y-5458860D01*
X13833606Y-5455640D01*
X13814770Y-5447837D01*
X13794774Y-5443860D01*
X13774386Y-5443860D01*
X13754390Y-5447837D01*
X13735554Y-5455640D01*
X13718603Y-5466966D01*
X13704186Y-5481383D01*
X13692859Y-5498334D01*
X13685057Y-5517170D01*
X13681080Y-5537166D01*
X13147000Y-5537166D01*
X13147000Y-4996503D01*
X13173403Y-5022906D01*
X13214923Y-5050649D01*
X13261057Y-5069758D01*
X13310032Y-5079500D01*
X13359968Y-5079500D01*
X13408943Y-5069758D01*
X13455077Y-5050649D01*
X13496597Y-5022906D01*
X13531906Y-4987597D01*
X13559649Y-4946077D01*
X13578758Y-4899943D01*
X13588500Y-4850968D01*
X13588500Y-4801032D01*
X13578758Y-4752057D01*
X13559649Y-4705923D01*
X13531906Y-4664403D01*
X13505503Y-4638000D01*
X15196497Y-4638000D01*
X15170094Y-4664403D01*
G37*
X15170094Y-4664403D02*
X15142351Y-4705923D01*
X15123242Y-4752057D01*
X15113500Y-4801032D01*
X15113500Y-4850968D01*
X15123242Y-4899943D01*
X15142351Y-4946077D01*
X15170094Y-4987597D01*
X15205403Y-5022906D01*
X15246923Y-5050649D01*
X15293057Y-5069758D01*
X15342032Y-5079500D01*
X15391968Y-5079500D01*
X15440943Y-5069758D01*
X15487077Y-5050649D01*
X15528597Y-5022906D01*
X15555000Y-4996503D01*
X15555000Y-5925497D01*
X15528597Y-5899094D01*
X15487077Y-5871351D01*
X15440943Y-5852242D01*
X15391968Y-5842500D01*
X15342032Y-5842500D01*
X15293057Y-5852242D01*
X15246923Y-5871351D01*
X15205403Y-5899094D01*
X15170094Y-5934403D01*
X15142351Y-5975923D01*
X15123242Y-6022057D01*
X15113500Y-6071032D01*
X15113500Y-6120968D01*
X15123242Y-6169943D01*
X15142351Y-6216077D01*
X15170094Y-6257597D01*
X15196497Y-6284000D01*
X13505503Y-6284000D01*
X13531906Y-6257597D01*
X13559649Y-6216077D01*
X13559681Y-6216000D01*
X13670193Y-6216000D01*
X13671419Y-6228448D01*
X13675050Y-6240418D01*
X13680946Y-6251449D01*
X13688881Y-6261118D01*
X13698551Y-6269054D01*
X13709582Y-6274950D01*
X13721552Y-6278581D01*
X13734000Y-6279807D01*
X13790425Y-6279500D01*
X13806300Y-6263625D01*
X13806300Y-6143700D01*
X13686375Y-6143700D01*
X13670500Y-6159575D01*
X13670193Y-6216000D01*
X13559681Y-6216000D01*
X13578758Y-6169943D01*
X13588500Y-6120968D01*
X13588500Y-6071032D01*
X13583521Y-6046000D01*
X13670193Y-6046000D01*
X13670500Y-6102425D01*
X13686375Y-6118300D01*
X13806300Y-6118300D01*
X13806300Y-5998375D01*
X13790425Y-5982500D01*
X13734000Y-5982193D01*
X13721552Y-5983419D01*
X13709582Y-5987050D01*
X13698551Y-5992946D01*
X13688881Y-6000881D01*
X13680946Y-6010551D01*
X13675050Y-6021582D01*
X13671419Y-6033552D01*
X13670193Y-6046000D01*
X13583521Y-6046000D01*
X13578758Y-6022057D01*
X13559649Y-5975923D01*
X13531906Y-5934403D01*
X13496597Y-5899094D01*
X13455077Y-5871351D01*
X13408943Y-5852242D01*
X13359968Y-5842500D01*
X13310032Y-5842500D01*
X13261057Y-5852242D01*
X13214923Y-5871351D01*
X13173403Y-5899094D01*
X13147000Y-5925497D01*
X13147000Y-5537166D01*
X13681080Y-5537166D01*
X13681080Y-5557554D01*
X13685057Y-5577550D01*
X13692859Y-5596386D01*
X13704186Y-5613337D01*
X13718603Y-5627754D01*
X13735554Y-5639080D01*
X13754390Y-5646883D01*
X13774386Y-5650860D01*
X13794774Y-5650860D01*
X13814770Y-5646883D01*
X13833606Y-5639080D01*
X13838425Y-5635860D01*
X14032402Y-5635860D01*
X14052226Y-5655684D01*
X14053357Y-5661370D01*
X14061159Y-5680206D01*
X14064380Y-5685025D01*
X14064380Y-5952532D01*
X14063952Y-5956880D01*
X14065660Y-5974229D01*
X14068170Y-5982500D01*
X14058374Y-5982500D01*
X14029684Y-5988207D01*
X14002659Y-5999401D01*
X13978337Y-6015652D01*
X13965151Y-6028838D01*
X13962950Y-6021582D01*
X13957054Y-6010551D01*
X13949118Y-6000881D01*
X13939449Y-5992946D01*
X13928418Y-5987050D01*
X13916448Y-5983419D01*
X13904000Y-5982193D01*
X13847575Y-5982500D01*
X13831700Y-5998375D01*
X13831700Y-6118300D01*
X13833700Y-6118300D01*
X13833700Y-6143700D01*
X13831700Y-6143700D01*
X13831700Y-6263625D01*
X13847575Y-6279500D01*
X13904000Y-6279807D01*
X13916448Y-6278581D01*
X13928418Y-6274950D01*
X13939449Y-6269054D01*
X13949118Y-6261118D01*
X13957054Y-6251449D01*
X13962950Y-6240418D01*
X13965151Y-6233162D01*
X13978337Y-6246347D01*
X14002659Y-6262599D01*
X14029684Y-6273793D01*
X14058374Y-6279500D01*
X14087626Y-6279500D01*
X14116316Y-6273793D01*
X14143341Y-6262599D01*
X14167663Y-6246347D01*
X14188347Y-6225663D01*
X14200000Y-6208224D01*
X14211652Y-6225663D01*
X14232337Y-6246347D01*
X14256659Y-6262599D01*
X14283684Y-6273793D01*
X14312374Y-6279500D01*
X14341626Y-6279500D01*
X14370316Y-6273793D01*
X14397341Y-6262599D01*
X14421663Y-6246347D01*
X14442347Y-6225663D01*
X14454000Y-6208224D01*
X14465652Y-6225663D01*
X14486337Y-6246347D01*
X14510659Y-6262599D01*
X14537684Y-6273793D01*
X14566374Y-6279500D01*
X14595626Y-6279500D01*
X14624316Y-6273793D01*
X14651341Y-6262599D01*
X14675663Y-6246347D01*
X14696347Y-6225663D01*
X14708000Y-6208224D01*
X14719652Y-6225663D01*
X14740337Y-6246347D01*
X14764659Y-6262599D01*
X14791684Y-6273793D01*
X14820374Y-6279500D01*
X14849626Y-6279500D01*
X14878316Y-6273793D01*
X14905341Y-6262599D01*
X14929663Y-6246347D01*
X14950347Y-6225663D01*
X14966599Y-6201341D01*
X14977793Y-6174316D01*
X14983500Y-6145626D01*
X14983500Y-6116374D01*
X14977793Y-6087684D01*
X14966599Y-6060659D01*
X14950347Y-6036337D01*
X14929663Y-6015652D01*
X14905341Y-5999401D01*
X14878316Y-5988207D01*
X14853823Y-5983335D01*
X15159805Y-5677353D01*
X15163182Y-5674582D01*
X15174241Y-5661106D01*
X15182459Y-5645731D01*
X15187519Y-5629049D01*
X15188800Y-5616048D01*
X15188800Y-5616047D01*
X15189228Y-5611700D01*
X15188800Y-5607353D01*
X15188800Y-5384067D01*
X15189228Y-5379720D01*
X15188800Y-5375373D01*
X15188800Y-5375372D01*
X15187519Y-5362371D01*
X15182459Y-5345689D01*
X15174241Y-5330314D01*
X15163182Y-5316838D01*
X15159804Y-5314067D01*
X15117693Y-5271956D01*
X15114922Y-5268578D01*
X15101446Y-5257519D01*
X15086071Y-5249301D01*
X15069389Y-5244241D01*
X15056388Y-5242960D01*
X15056387Y-5242960D01*
X15052040Y-5242532D01*
X15047693Y-5242960D01*
X14976345Y-5242960D01*
X14971526Y-5239740D01*
X14952690Y-5231937D01*
X14932694Y-5227960D01*
X14912306Y-5227960D01*
X14892310Y-5231937D01*
X14873474Y-5239740D01*
X14856523Y-5251066D01*
X14842106Y-5265483D01*
X14830779Y-5282434D01*
X14822977Y-5301270D01*
X14821846Y-5306956D01*
X14705502Y-5423300D01*
X14585185Y-5423300D01*
X14580366Y-5420080D01*
X14561530Y-5412277D01*
X14541534Y-5408300D01*
X14521146Y-5408300D01*
X14501150Y-5412277D01*
X14482314Y-5420080D01*
X14477495Y-5423300D01*
X14220018Y-5423300D01*
X14155033Y-5358316D01*
X14152262Y-5354938D01*
X14138786Y-5343879D01*
X14123411Y-5335661D01*
X14106729Y-5330601D01*
X14093728Y-5329320D01*
X14093727Y-5329320D01*
X14089380Y-5328892D01*
X14085033Y-5329320D01*
X14026385Y-5329320D01*
X14021566Y-5326100D01*
X14002730Y-5318297D01*
X13982734Y-5314320D01*
X13962346Y-5314320D01*
X13942350Y-5318297D01*
X13923514Y-5326100D01*
X13906563Y-5337426D01*
X13892146Y-5351843D01*
X13880819Y-5368794D01*
X13873017Y-5387630D01*
X13869040Y-5407626D01*
X13869040Y-5428014D01*
X13873017Y-5448010D01*
X13877512Y-5458860D01*
X13838425Y-5458860D01*
X13833606Y-5455640D01*
X13814770Y-5447837D01*
X13794774Y-5443860D01*
X13774386Y-5443860D01*
X13754390Y-5447837D01*
X13735554Y-5455640D01*
X13718603Y-5466966D01*
X13704186Y-5481383D01*
X13692859Y-5498334D01*
X13685057Y-5517170D01*
X13681080Y-5537166D01*
X13147000Y-5537166D01*
X13147000Y-4996503D01*
X13173403Y-5022906D01*
X13214923Y-5050649D01*
X13261057Y-5069758D01*
X13310032Y-5079500D01*
X13359968Y-5079500D01*
X13408943Y-5069758D01*
X13455077Y-5050649D01*
X13496597Y-5022906D01*
X13531906Y-4987597D01*
X13559649Y-4946077D01*
X13578758Y-4899943D01*
X13588500Y-4850968D01*
X13588500Y-4801032D01*
X13578758Y-4752057D01*
X13559649Y-4705923D01*
X13531906Y-4664403D01*
X13505503Y-4638000D01*
X15196497Y-4638000D01*
X15170094Y-4664403D01*
D17*
X14538960Y-5369560D03*
X13609320Y-5189220D03*
X14241780Y-4907280D03*
X15354300Y-5565140D03*
X14922500Y-5331460D03*
X14531340Y-5511800D03*
X13972540Y-5417820D03*
X13784580Y-5547360D03*
X14152880Y-5631180D03*
X14963140Y-5440680D03*
X15367000Y-6096000D03*
X14835000Y-6131000D03*
X14581000Y-6131000D03*
X14327000Y-6131000D03*
X14073000Y-6131000D03*
X13819000Y-6131000D03*
X13335000Y-6096000D03*
X13335000Y-4826000D03*
X15367000Y-4826000D03*
M02*
