%TF.GenerationSoftware,KiCad,Pcbnew,5.1.5+dfsg1-2~bpo10+1*%
%TF.CreationDate,Date%
%TF.ProjectId,Gesture Sensor,47657374-7572-4652-9053-656e736f722e,rev?*%
%TF.SameCoordinates,Original*%
%TF.FileFunction,Copper,L1,Top*%
%TF.FilePolarity,Positive*%
%FSLAX45Y45*%
G04 Gerber Fmt 4.5, Leading zero omitted, Abs format (unit mm)*
G04 Created by KiCad*
%MOMM*%
%LPD*%
G04 APERTURE LIST*
%ADD10C,0.050000*%
%ADD11C,0.150000*%
%ADD12R,1.550000X0.600000*%
%ADD13R,1.800000X1.200000*%
%ADD14C,3.800000*%
%ADD15O,1.700000X1.700000*%
%ADD16R,1.700000X1.700000*%
%ADD17R,0.600000X0.720000*%
%ADD18C,0.800000*%
%ADD19C,0.500000*%
%ADD20C,0.254000*%
%ADD21C,0.350000*%
G04 APERTURE END LIST*
D10*
X13335000Y-6350000D02*
G75*
G02X13081000Y-6096000I0J254000D01*
G01*
X15367000Y-4572000D02*
G75*
G02X15621000Y-4826000I0J-254000D01*
G01*
X15621000Y-6096000D02*
G75*
G02X15367000Y-6350000I-254000J0D01*
G01*
X13081000Y-4826000D02*
G75*
G02X13335000Y-4572000I254000J0D01*
G01*
X13335000Y-4572000D02*
X15367000Y-4572000D01*
X13081000Y-4826000D02*
X13081000Y-6096000D01*
X15621000Y-4826000D02*
X15621000Y-6096000D01*
X13335000Y-6350000D02*
X15367000Y-6350000D01*
D11*
G36*
X14482440Y-4736720D02*
G01*
X14532440Y-4736720D01*
X14532440Y-4676720D01*
X14482440Y-4676720D01*
X14482440Y-4736720D01*
G37*
D12*
X13589000Y-5636400D03*
X13589000Y-5536400D03*
X13589000Y-5436400D03*
X13589000Y-5336400D03*
D13*
X13201500Y-5206400D03*
X13201500Y-5766400D03*
D12*
X15113000Y-5336400D03*
X15113000Y-5436400D03*
X15113000Y-5536400D03*
X15113000Y-5636400D03*
D13*
X15500500Y-5766400D03*
X15500500Y-5206400D03*
D14*
X15367000Y-6096000D03*
%TA.AperFunction,SMDPad,CuDef*%
D11*
G36*
X14012570Y-4606840D02*
G01*
X14014997Y-4607200D01*
X14017377Y-4607797D01*
X14019687Y-4608623D01*
X14021905Y-4609672D01*
X14024009Y-4610933D01*
X14025980Y-4612395D01*
X14027798Y-4614042D01*
X14029445Y-4615860D01*
X14030907Y-4617831D01*
X14032168Y-4619935D01*
X14033217Y-4622153D01*
X14034043Y-4624463D01*
X14034640Y-4626843D01*
X14035000Y-4629270D01*
X14035120Y-4631720D01*
X14035120Y-4721720D01*
X14035000Y-4724171D01*
X14034640Y-4726597D01*
X14034043Y-4728977D01*
X14033217Y-4731287D01*
X14032168Y-4733505D01*
X14030907Y-4735609D01*
X14029445Y-4737580D01*
X14027798Y-4739398D01*
X14025980Y-4741045D01*
X14024009Y-4742507D01*
X14021905Y-4743768D01*
X14019687Y-4744817D01*
X14017377Y-4745644D01*
X14014997Y-4746240D01*
X14012570Y-4746600D01*
X14010120Y-4746720D01*
X13945120Y-4746720D01*
X13942669Y-4746600D01*
X13940243Y-4746240D01*
X13937863Y-4745644D01*
X13935553Y-4744817D01*
X13933335Y-4743768D01*
X13931231Y-4742507D01*
X13929260Y-4741045D01*
X13927442Y-4739398D01*
X13925795Y-4737580D01*
X13924333Y-4735609D01*
X13923072Y-4733505D01*
X13922023Y-4731287D01*
X13921196Y-4728977D01*
X13920600Y-4726597D01*
X13920240Y-4724171D01*
X13920120Y-4721720D01*
X13920120Y-4631720D01*
X13920240Y-4629270D01*
X13920600Y-4626843D01*
X13921196Y-4624463D01*
X13922023Y-4622153D01*
X13923072Y-4619935D01*
X13924333Y-4617831D01*
X13925795Y-4615860D01*
X13927442Y-4614042D01*
X13929260Y-4612395D01*
X13931231Y-4610933D01*
X13933335Y-4609672D01*
X13935553Y-4608623D01*
X13937863Y-4607797D01*
X13940243Y-4607200D01*
X13942669Y-4606840D01*
X13945120Y-4606720D01*
X14010120Y-4606720D01*
X14012570Y-4606840D01*
G37*
%TD.AperFunction*%
%TA.AperFunction,SMDPad,CuDef*%
G36*
X14217570Y-4606840D02*
G01*
X14219997Y-4607200D01*
X14222377Y-4607797D01*
X14224687Y-4608623D01*
X14226905Y-4609672D01*
X14229009Y-4610933D01*
X14230980Y-4612395D01*
X14232798Y-4614042D01*
X14234445Y-4615860D01*
X14235907Y-4617831D01*
X14237168Y-4619935D01*
X14238217Y-4622153D01*
X14239043Y-4624463D01*
X14239640Y-4626843D01*
X14240000Y-4629270D01*
X14240120Y-4631720D01*
X14240120Y-4721720D01*
X14240000Y-4724171D01*
X14239640Y-4726597D01*
X14239043Y-4728977D01*
X14238217Y-4731287D01*
X14237168Y-4733505D01*
X14235907Y-4735609D01*
X14234445Y-4737580D01*
X14232798Y-4739398D01*
X14230980Y-4741045D01*
X14229009Y-4742507D01*
X14226905Y-4743768D01*
X14224687Y-4744817D01*
X14222377Y-4745644D01*
X14219997Y-4746240D01*
X14217570Y-4746600D01*
X14215120Y-4746720D01*
X14150120Y-4746720D01*
X14147669Y-4746600D01*
X14145243Y-4746240D01*
X14142863Y-4745644D01*
X14140553Y-4744817D01*
X14138335Y-4743768D01*
X14136231Y-4742507D01*
X14134260Y-4741045D01*
X14132442Y-4739398D01*
X14130795Y-4737580D01*
X14129333Y-4735609D01*
X14128072Y-4733505D01*
X14127023Y-4731287D01*
X14126196Y-4728977D01*
X14125600Y-4726597D01*
X14125240Y-4724171D01*
X14125120Y-4721720D01*
X14125120Y-4631720D01*
X14125240Y-4629270D01*
X14125600Y-4626843D01*
X14126196Y-4624463D01*
X14127023Y-4622153D01*
X14128072Y-4619935D01*
X14129333Y-4617831D01*
X14130795Y-4615860D01*
X14132442Y-4614042D01*
X14134260Y-4612395D01*
X14136231Y-4610933D01*
X14138335Y-4609672D01*
X14140553Y-4608623D01*
X14142863Y-4607797D01*
X14145243Y-4607200D01*
X14147669Y-4606840D01*
X14150120Y-4606720D01*
X14215120Y-4606720D01*
X14217570Y-4606840D01*
G37*
%TD.AperFunction*%
%TA.AperFunction,SMDPad,CuDef*%
G36*
X14839870Y-5708620D02*
G01*
X14842297Y-5708980D01*
X14844677Y-5709576D01*
X14846987Y-5710403D01*
X14849205Y-5711452D01*
X14851309Y-5712713D01*
X14853280Y-5714175D01*
X14855098Y-5715822D01*
X14856745Y-5717640D01*
X14858207Y-5719611D01*
X14859468Y-5721715D01*
X14860517Y-5723933D01*
X14861343Y-5726243D01*
X14861940Y-5728623D01*
X14862300Y-5731049D01*
X14862420Y-5733500D01*
X14862420Y-5823500D01*
X14862300Y-5825950D01*
X14861940Y-5828377D01*
X14861343Y-5830757D01*
X14860517Y-5833067D01*
X14859468Y-5835285D01*
X14858207Y-5837389D01*
X14856745Y-5839360D01*
X14855098Y-5841178D01*
X14853280Y-5842825D01*
X14851309Y-5844287D01*
X14849205Y-5845548D01*
X14846987Y-5846597D01*
X14844677Y-5847423D01*
X14842297Y-5848020D01*
X14839870Y-5848380D01*
X14837420Y-5848500D01*
X14772420Y-5848500D01*
X14769969Y-5848380D01*
X14767543Y-5848020D01*
X14765163Y-5847423D01*
X14762853Y-5846597D01*
X14760635Y-5845548D01*
X14758531Y-5844287D01*
X14756560Y-5842825D01*
X14754742Y-5841178D01*
X14753095Y-5839360D01*
X14751633Y-5837389D01*
X14750372Y-5835285D01*
X14749323Y-5833067D01*
X14748496Y-5830757D01*
X14747900Y-5828377D01*
X14747540Y-5825950D01*
X14747420Y-5823500D01*
X14747420Y-5733500D01*
X14747540Y-5731049D01*
X14747900Y-5728623D01*
X14748496Y-5726243D01*
X14749323Y-5723933D01*
X14750372Y-5721715D01*
X14751633Y-5719611D01*
X14753095Y-5717640D01*
X14754742Y-5715822D01*
X14756560Y-5714175D01*
X14758531Y-5712713D01*
X14760635Y-5711452D01*
X14762853Y-5710403D01*
X14765163Y-5709576D01*
X14767543Y-5708980D01*
X14769969Y-5708620D01*
X14772420Y-5708500D01*
X14837420Y-5708500D01*
X14839870Y-5708620D01*
G37*
%TD.AperFunction*%
%TA.AperFunction,SMDPad,CuDef*%
G36*
X14634870Y-5708620D02*
G01*
X14637297Y-5708980D01*
X14639677Y-5709576D01*
X14641987Y-5710403D01*
X14644205Y-5711452D01*
X14646309Y-5712713D01*
X14648280Y-5714175D01*
X14650098Y-5715822D01*
X14651745Y-5717640D01*
X14653207Y-5719611D01*
X14654468Y-5721715D01*
X14655517Y-5723933D01*
X14656343Y-5726243D01*
X14656940Y-5728623D01*
X14657300Y-5731049D01*
X14657420Y-5733500D01*
X14657420Y-5823500D01*
X14657300Y-5825950D01*
X14656940Y-5828377D01*
X14656343Y-5830757D01*
X14655517Y-5833067D01*
X14654468Y-5835285D01*
X14653207Y-5837389D01*
X14651745Y-5839360D01*
X14650098Y-5841178D01*
X14648280Y-5842825D01*
X14646309Y-5844287D01*
X14644205Y-5845548D01*
X14641987Y-5846597D01*
X14639677Y-5847423D01*
X14637297Y-5848020D01*
X14634870Y-5848380D01*
X14632420Y-5848500D01*
X14567420Y-5848500D01*
X14564969Y-5848380D01*
X14562543Y-5848020D01*
X14560163Y-5847423D01*
X14557853Y-5846597D01*
X14555635Y-5845548D01*
X14553531Y-5844287D01*
X14551560Y-5842825D01*
X14549742Y-5841178D01*
X14548095Y-5839360D01*
X14546633Y-5837389D01*
X14545372Y-5835285D01*
X14544323Y-5833067D01*
X14543496Y-5830757D01*
X14542900Y-5828377D01*
X14542540Y-5825950D01*
X14542420Y-5823500D01*
X14542420Y-5733500D01*
X14542540Y-5731049D01*
X14542900Y-5728623D01*
X14543496Y-5726243D01*
X14544323Y-5723933D01*
X14545372Y-5721715D01*
X14546633Y-5719611D01*
X14548095Y-5717640D01*
X14549742Y-5715822D01*
X14551560Y-5714175D01*
X14553531Y-5712713D01*
X14555635Y-5711452D01*
X14557853Y-5710403D01*
X14560163Y-5709576D01*
X14562543Y-5708980D01*
X14564969Y-5708620D01*
X14567420Y-5708500D01*
X14632420Y-5708500D01*
X14634870Y-5708620D01*
G37*
%TD.AperFunction*%
%TA.AperFunction,SMDPad,CuDef*%
G36*
X15020750Y-4810160D02*
G01*
X15023177Y-4810520D01*
X15025557Y-4811117D01*
X15027867Y-4811943D01*
X15030085Y-4812992D01*
X15032189Y-4814253D01*
X15034160Y-4815715D01*
X15035978Y-4817362D01*
X15037625Y-4819180D01*
X15039087Y-4821151D01*
X15040348Y-4823255D01*
X15041397Y-4825473D01*
X15042223Y-4827783D01*
X15042820Y-4830163D01*
X15043180Y-4832590D01*
X15043300Y-4835040D01*
X15043300Y-4900040D01*
X15043180Y-4902491D01*
X15042820Y-4904917D01*
X15042223Y-4907297D01*
X15041397Y-4909607D01*
X15040348Y-4911825D01*
X15039087Y-4913929D01*
X15037625Y-4915900D01*
X15035978Y-4917718D01*
X15034160Y-4919365D01*
X15032189Y-4920827D01*
X15030085Y-4922088D01*
X15027867Y-4923137D01*
X15025557Y-4923964D01*
X15023177Y-4924560D01*
X15020750Y-4924920D01*
X15018300Y-4925040D01*
X14928300Y-4925040D01*
X14925849Y-4924920D01*
X14923423Y-4924560D01*
X14921043Y-4923964D01*
X14918733Y-4923137D01*
X14916515Y-4922088D01*
X14914411Y-4920827D01*
X14912440Y-4919365D01*
X14910622Y-4917718D01*
X14908975Y-4915900D01*
X14907513Y-4913929D01*
X14906252Y-4911825D01*
X14905203Y-4909607D01*
X14904376Y-4907297D01*
X14903780Y-4904917D01*
X14903420Y-4902491D01*
X14903300Y-4900040D01*
X14903300Y-4835040D01*
X14903420Y-4832590D01*
X14903780Y-4830163D01*
X14904376Y-4827783D01*
X14905203Y-4825473D01*
X14906252Y-4823255D01*
X14907513Y-4821151D01*
X14908975Y-4819180D01*
X14910622Y-4817362D01*
X14912440Y-4815715D01*
X14914411Y-4814253D01*
X14916515Y-4812992D01*
X14918733Y-4811943D01*
X14921043Y-4811117D01*
X14923423Y-4810520D01*
X14925849Y-4810160D01*
X14928300Y-4810040D01*
X15018300Y-4810040D01*
X15020750Y-4810160D01*
G37*
%TD.AperFunction*%
%TA.AperFunction,SMDPad,CuDef*%
G36*
X15020750Y-4605160D02*
G01*
X15023177Y-4605520D01*
X15025557Y-4606117D01*
X15027867Y-4606943D01*
X15030085Y-4607992D01*
X15032189Y-4609253D01*
X15034160Y-4610715D01*
X15035978Y-4612362D01*
X15037625Y-4614180D01*
X15039087Y-4616151D01*
X15040348Y-4618255D01*
X15041397Y-4620473D01*
X15042223Y-4622783D01*
X15042820Y-4625163D01*
X15043180Y-4627590D01*
X15043300Y-4630040D01*
X15043300Y-4695040D01*
X15043180Y-4697491D01*
X15042820Y-4699917D01*
X15042223Y-4702297D01*
X15041397Y-4704607D01*
X15040348Y-4706825D01*
X15039087Y-4708929D01*
X15037625Y-4710900D01*
X15035978Y-4712718D01*
X15034160Y-4714365D01*
X15032189Y-4715827D01*
X15030085Y-4717088D01*
X15027867Y-4718137D01*
X15025557Y-4718964D01*
X15023177Y-4719560D01*
X15020750Y-4719920D01*
X15018300Y-4720040D01*
X14928300Y-4720040D01*
X14925849Y-4719920D01*
X14923423Y-4719560D01*
X14921043Y-4718964D01*
X14918733Y-4718137D01*
X14916515Y-4717088D01*
X14914411Y-4715827D01*
X14912440Y-4714365D01*
X14910622Y-4712718D01*
X14908975Y-4710900D01*
X14907513Y-4708929D01*
X14906252Y-4706825D01*
X14905203Y-4704607D01*
X14904376Y-4702297D01*
X14903780Y-4699917D01*
X14903420Y-4697491D01*
X14903300Y-4695040D01*
X14903300Y-4630040D01*
X14903420Y-4627590D01*
X14903780Y-4625163D01*
X14904376Y-4622783D01*
X14905203Y-4620473D01*
X14906252Y-4618255D01*
X14907513Y-4616151D01*
X14908975Y-4614180D01*
X14910622Y-4612362D01*
X14912440Y-4610715D01*
X14914411Y-4609253D01*
X14916515Y-4607992D01*
X14918733Y-4606943D01*
X14921043Y-4606117D01*
X14923423Y-4605520D01*
X14925849Y-4605160D01*
X14928300Y-4605040D01*
X15018300Y-4605040D01*
X15020750Y-4605160D01*
G37*
%TD.AperFunction*%
%TA.AperFunction,SMDPad,CuDef*%
G36*
X14822630Y-4810160D02*
G01*
X14825057Y-4810520D01*
X14827437Y-4811117D01*
X14829747Y-4811943D01*
X14831965Y-4812992D01*
X14834069Y-4814253D01*
X14836040Y-4815715D01*
X14837858Y-4817362D01*
X14839505Y-4819180D01*
X14840967Y-4821151D01*
X14842228Y-4823255D01*
X14843277Y-4825473D01*
X14844103Y-4827783D01*
X14844700Y-4830163D01*
X14845060Y-4832590D01*
X14845180Y-4835040D01*
X14845180Y-4900040D01*
X14845060Y-4902491D01*
X14844700Y-4904917D01*
X14844103Y-4907297D01*
X14843277Y-4909607D01*
X14842228Y-4911825D01*
X14840967Y-4913929D01*
X14839505Y-4915900D01*
X14837858Y-4917718D01*
X14836040Y-4919365D01*
X14834069Y-4920827D01*
X14831965Y-4922088D01*
X14829747Y-4923137D01*
X14827437Y-4923964D01*
X14825057Y-4924560D01*
X14822630Y-4924920D01*
X14820180Y-4925040D01*
X14730180Y-4925040D01*
X14727729Y-4924920D01*
X14725303Y-4924560D01*
X14722923Y-4923964D01*
X14720613Y-4923137D01*
X14718395Y-4922088D01*
X14716291Y-4920827D01*
X14714320Y-4919365D01*
X14712502Y-4917718D01*
X14710855Y-4915900D01*
X14709393Y-4913929D01*
X14708132Y-4911825D01*
X14707083Y-4909607D01*
X14706256Y-4907297D01*
X14705660Y-4904917D01*
X14705300Y-4902491D01*
X14705180Y-4900040D01*
X14705180Y-4835040D01*
X14705300Y-4832590D01*
X14705660Y-4830163D01*
X14706256Y-4827783D01*
X14707083Y-4825473D01*
X14708132Y-4823255D01*
X14709393Y-4821151D01*
X14710855Y-4819180D01*
X14712502Y-4817362D01*
X14714320Y-4815715D01*
X14716291Y-4814253D01*
X14718395Y-4812992D01*
X14720613Y-4811943D01*
X14722923Y-4811117D01*
X14725303Y-4810520D01*
X14727729Y-4810160D01*
X14730180Y-4810040D01*
X14820180Y-4810040D01*
X14822630Y-4810160D01*
G37*
%TD.AperFunction*%
%TA.AperFunction,SMDPad,CuDef*%
G36*
X14822630Y-4605160D02*
G01*
X14825057Y-4605520D01*
X14827437Y-4606117D01*
X14829747Y-4606943D01*
X14831965Y-4607992D01*
X14834069Y-4609253D01*
X14836040Y-4610715D01*
X14837858Y-4612362D01*
X14839505Y-4614180D01*
X14840967Y-4616151D01*
X14842228Y-4618255D01*
X14843277Y-4620473D01*
X14844103Y-4622783D01*
X14844700Y-4625163D01*
X14845060Y-4627590D01*
X14845180Y-4630040D01*
X14845180Y-4695040D01*
X14845060Y-4697491D01*
X14844700Y-4699917D01*
X14844103Y-4702297D01*
X14843277Y-4704607D01*
X14842228Y-4706825D01*
X14840967Y-4708929D01*
X14839505Y-4710900D01*
X14837858Y-4712718D01*
X14836040Y-4714365D01*
X14834069Y-4715827D01*
X14831965Y-4717088D01*
X14829747Y-4718137D01*
X14827437Y-4718964D01*
X14825057Y-4719560D01*
X14822630Y-4719920D01*
X14820180Y-4720040D01*
X14730180Y-4720040D01*
X14727729Y-4719920D01*
X14725303Y-4719560D01*
X14722923Y-4718964D01*
X14720613Y-4718137D01*
X14718395Y-4717088D01*
X14716291Y-4715827D01*
X14714320Y-4714365D01*
X14712502Y-4712718D01*
X14710855Y-4710900D01*
X14709393Y-4708929D01*
X14708132Y-4706825D01*
X14707083Y-4704607D01*
X14706256Y-4702297D01*
X14705660Y-4699917D01*
X14705300Y-4697491D01*
X14705180Y-4695040D01*
X14705180Y-4630040D01*
X14705300Y-4627590D01*
X14705660Y-4625163D01*
X14706256Y-4622783D01*
X14707083Y-4620473D01*
X14708132Y-4618255D01*
X14709393Y-4616151D01*
X14710855Y-4614180D01*
X14712502Y-4612362D01*
X14714320Y-4610715D01*
X14716291Y-4609253D01*
X14718395Y-4607992D01*
X14720613Y-4606943D01*
X14722923Y-4606117D01*
X14725303Y-4605520D01*
X14727729Y-4605160D01*
X14730180Y-4605040D01*
X14820180Y-4605040D01*
X14822630Y-4605160D01*
G37*
%TD.AperFunction*%
%TA.AperFunction,SMDPad,CuDef*%
G36*
X14088770Y-5708620D02*
G01*
X14091197Y-5708980D01*
X14093577Y-5709576D01*
X14095887Y-5710403D01*
X14098105Y-5711452D01*
X14100209Y-5712713D01*
X14102180Y-5714175D01*
X14103998Y-5715822D01*
X14105645Y-5717640D01*
X14107107Y-5719611D01*
X14108368Y-5721715D01*
X14109417Y-5723933D01*
X14110243Y-5726243D01*
X14110840Y-5728623D01*
X14111200Y-5731049D01*
X14111320Y-5733500D01*
X14111320Y-5823500D01*
X14111200Y-5825950D01*
X14110840Y-5828377D01*
X14110243Y-5830757D01*
X14109417Y-5833067D01*
X14108368Y-5835285D01*
X14107107Y-5837389D01*
X14105645Y-5839360D01*
X14103998Y-5841178D01*
X14102180Y-5842825D01*
X14100209Y-5844287D01*
X14098105Y-5845548D01*
X14095887Y-5846597D01*
X14093577Y-5847423D01*
X14091197Y-5848020D01*
X14088770Y-5848380D01*
X14086320Y-5848500D01*
X14021320Y-5848500D01*
X14018869Y-5848380D01*
X14016443Y-5848020D01*
X14014063Y-5847423D01*
X14011753Y-5846597D01*
X14009535Y-5845548D01*
X14007431Y-5844287D01*
X14005460Y-5842825D01*
X14003642Y-5841178D01*
X14001995Y-5839360D01*
X14000533Y-5837389D01*
X13999272Y-5835285D01*
X13998223Y-5833067D01*
X13997396Y-5830757D01*
X13996800Y-5828377D01*
X13996440Y-5825950D01*
X13996320Y-5823500D01*
X13996320Y-5733500D01*
X13996440Y-5731049D01*
X13996800Y-5728623D01*
X13997396Y-5726243D01*
X13998223Y-5723933D01*
X13999272Y-5721715D01*
X14000533Y-5719611D01*
X14001995Y-5717640D01*
X14003642Y-5715822D01*
X14005460Y-5714175D01*
X14007431Y-5712713D01*
X14009535Y-5711452D01*
X14011753Y-5710403D01*
X14014063Y-5709576D01*
X14016443Y-5708980D01*
X14018869Y-5708620D01*
X14021320Y-5708500D01*
X14086320Y-5708500D01*
X14088770Y-5708620D01*
G37*
%TD.AperFunction*%
%TA.AperFunction,SMDPad,CuDef*%
G36*
X13883770Y-5708620D02*
G01*
X13886197Y-5708980D01*
X13888577Y-5709576D01*
X13890887Y-5710403D01*
X13893105Y-5711452D01*
X13895209Y-5712713D01*
X13897180Y-5714175D01*
X13898998Y-5715822D01*
X13900645Y-5717640D01*
X13902107Y-5719611D01*
X13903368Y-5721715D01*
X13904417Y-5723933D01*
X13905243Y-5726243D01*
X13905840Y-5728623D01*
X13906200Y-5731049D01*
X13906320Y-5733500D01*
X13906320Y-5823500D01*
X13906200Y-5825950D01*
X13905840Y-5828377D01*
X13905243Y-5830757D01*
X13904417Y-5833067D01*
X13903368Y-5835285D01*
X13902107Y-5837389D01*
X13900645Y-5839360D01*
X13898998Y-5841178D01*
X13897180Y-5842825D01*
X13895209Y-5844287D01*
X13893105Y-5845548D01*
X13890887Y-5846597D01*
X13888577Y-5847423D01*
X13886197Y-5848020D01*
X13883770Y-5848380D01*
X13881320Y-5848500D01*
X13816320Y-5848500D01*
X13813869Y-5848380D01*
X13811443Y-5848020D01*
X13809063Y-5847423D01*
X13806753Y-5846597D01*
X13804535Y-5845548D01*
X13802431Y-5844287D01*
X13800460Y-5842825D01*
X13798642Y-5841178D01*
X13796995Y-5839360D01*
X13795533Y-5837389D01*
X13794272Y-5835285D01*
X13793223Y-5833067D01*
X13792396Y-5830757D01*
X13791800Y-5828377D01*
X13791440Y-5825950D01*
X13791320Y-5823500D01*
X13791320Y-5733500D01*
X13791440Y-5731049D01*
X13791800Y-5728623D01*
X13792396Y-5726243D01*
X13793223Y-5723933D01*
X13794272Y-5721715D01*
X13795533Y-5719611D01*
X13796995Y-5717640D01*
X13798642Y-5715822D01*
X13800460Y-5714175D01*
X13802431Y-5712713D01*
X13804535Y-5711452D01*
X13806753Y-5710403D01*
X13809063Y-5709576D01*
X13811443Y-5708980D01*
X13813869Y-5708620D01*
X13816320Y-5708500D01*
X13881320Y-5708500D01*
X13883770Y-5708620D01*
G37*
%TD.AperFunction*%
%TA.AperFunction,SMDPad,CuDef*%
G36*
X14258950Y-5708620D02*
G01*
X14261377Y-5708980D01*
X14263757Y-5709576D01*
X14266067Y-5710403D01*
X14268285Y-5711452D01*
X14270389Y-5712713D01*
X14272360Y-5714175D01*
X14274178Y-5715822D01*
X14275825Y-5717640D01*
X14277287Y-5719611D01*
X14278548Y-5721715D01*
X14279597Y-5723933D01*
X14280423Y-5726243D01*
X14281020Y-5728623D01*
X14281380Y-5731049D01*
X14281500Y-5733500D01*
X14281500Y-5823500D01*
X14281380Y-5825950D01*
X14281020Y-5828377D01*
X14280423Y-5830757D01*
X14279597Y-5833067D01*
X14278548Y-5835285D01*
X14277287Y-5837389D01*
X14275825Y-5839360D01*
X14274178Y-5841178D01*
X14272360Y-5842825D01*
X14270389Y-5844287D01*
X14268285Y-5845548D01*
X14266067Y-5846597D01*
X14263757Y-5847423D01*
X14261377Y-5848020D01*
X14258950Y-5848380D01*
X14256500Y-5848500D01*
X14191500Y-5848500D01*
X14189049Y-5848380D01*
X14186623Y-5848020D01*
X14184243Y-5847423D01*
X14181933Y-5846597D01*
X14179715Y-5845548D01*
X14177611Y-5844287D01*
X14175640Y-5842825D01*
X14173822Y-5841178D01*
X14172175Y-5839360D01*
X14170713Y-5837389D01*
X14169452Y-5835285D01*
X14168403Y-5833067D01*
X14167576Y-5830757D01*
X14166980Y-5828377D01*
X14166620Y-5825950D01*
X14166500Y-5823500D01*
X14166500Y-5733500D01*
X14166620Y-5731049D01*
X14166980Y-5728623D01*
X14167576Y-5726243D01*
X14168403Y-5723933D01*
X14169452Y-5721715D01*
X14170713Y-5719611D01*
X14172175Y-5717640D01*
X14173822Y-5715822D01*
X14175640Y-5714175D01*
X14177611Y-5712713D01*
X14179715Y-5711452D01*
X14181933Y-5710403D01*
X14184243Y-5709576D01*
X14186623Y-5708980D01*
X14189049Y-5708620D01*
X14191500Y-5708500D01*
X14256500Y-5708500D01*
X14258950Y-5708620D01*
G37*
%TD.AperFunction*%
%TA.AperFunction,SMDPad,CuDef*%
G36*
X14463950Y-5708620D02*
G01*
X14466377Y-5708980D01*
X14468757Y-5709576D01*
X14471067Y-5710403D01*
X14473285Y-5711452D01*
X14475389Y-5712713D01*
X14477360Y-5714175D01*
X14479178Y-5715822D01*
X14480825Y-5717640D01*
X14482287Y-5719611D01*
X14483548Y-5721715D01*
X14484597Y-5723933D01*
X14485423Y-5726243D01*
X14486020Y-5728623D01*
X14486380Y-5731049D01*
X14486500Y-5733500D01*
X14486500Y-5823500D01*
X14486380Y-5825950D01*
X14486020Y-5828377D01*
X14485423Y-5830757D01*
X14484597Y-5833067D01*
X14483548Y-5835285D01*
X14482287Y-5837389D01*
X14480825Y-5839360D01*
X14479178Y-5841178D01*
X14477360Y-5842825D01*
X14475389Y-5844287D01*
X14473285Y-5845548D01*
X14471067Y-5846597D01*
X14468757Y-5847423D01*
X14466377Y-5848020D01*
X14463950Y-5848380D01*
X14461500Y-5848500D01*
X14396500Y-5848500D01*
X14394049Y-5848380D01*
X14391623Y-5848020D01*
X14389243Y-5847423D01*
X14386933Y-5846597D01*
X14384715Y-5845548D01*
X14382611Y-5844287D01*
X14380640Y-5842825D01*
X14378822Y-5841178D01*
X14377175Y-5839360D01*
X14375713Y-5837389D01*
X14374452Y-5835285D01*
X14373403Y-5833067D01*
X14372576Y-5830757D01*
X14371980Y-5828377D01*
X14371620Y-5825950D01*
X14371500Y-5823500D01*
X14371500Y-5733500D01*
X14371620Y-5731049D01*
X14371980Y-5728623D01*
X14372576Y-5726243D01*
X14373403Y-5723933D01*
X14374452Y-5721715D01*
X14375713Y-5719611D01*
X14377175Y-5717640D01*
X14378822Y-5715822D01*
X14380640Y-5714175D01*
X14382611Y-5712713D01*
X14384715Y-5711452D01*
X14386933Y-5710403D01*
X14389243Y-5709576D01*
X14391623Y-5708980D01*
X14394049Y-5708620D01*
X14396500Y-5708500D01*
X14461500Y-5708500D01*
X14463950Y-5708620D01*
G37*
%TD.AperFunction*%
%TA.AperFunction,SMDPad,CuDef*%
G36*
X14258950Y-5083780D02*
G01*
X14261377Y-5084140D01*
X14263757Y-5084737D01*
X14266067Y-5085563D01*
X14268285Y-5086612D01*
X14270389Y-5087873D01*
X14272360Y-5089335D01*
X14274178Y-5090982D01*
X14275825Y-5092800D01*
X14277287Y-5094771D01*
X14278548Y-5096875D01*
X14279597Y-5099093D01*
X14280423Y-5101403D01*
X14281020Y-5103783D01*
X14281380Y-5106210D01*
X14281500Y-5108660D01*
X14281500Y-5198660D01*
X14281380Y-5201111D01*
X14281020Y-5203537D01*
X14280423Y-5205917D01*
X14279597Y-5208227D01*
X14278548Y-5210445D01*
X14277287Y-5212549D01*
X14275825Y-5214520D01*
X14274178Y-5216338D01*
X14272360Y-5217985D01*
X14270389Y-5219447D01*
X14268285Y-5220708D01*
X14266067Y-5221757D01*
X14263757Y-5222584D01*
X14261377Y-5223180D01*
X14258950Y-5223540D01*
X14256500Y-5223660D01*
X14191500Y-5223660D01*
X14189049Y-5223540D01*
X14186623Y-5223180D01*
X14184243Y-5222584D01*
X14181933Y-5221757D01*
X14179715Y-5220708D01*
X14177611Y-5219447D01*
X14175640Y-5217985D01*
X14173822Y-5216338D01*
X14172175Y-5214520D01*
X14170713Y-5212549D01*
X14169452Y-5210445D01*
X14168403Y-5208227D01*
X14167576Y-5205917D01*
X14166980Y-5203537D01*
X14166620Y-5201111D01*
X14166500Y-5198660D01*
X14166500Y-5108660D01*
X14166620Y-5106210D01*
X14166980Y-5103783D01*
X14167576Y-5101403D01*
X14168403Y-5099093D01*
X14169452Y-5096875D01*
X14170713Y-5094771D01*
X14172175Y-5092800D01*
X14173822Y-5090982D01*
X14175640Y-5089335D01*
X14177611Y-5087873D01*
X14179715Y-5086612D01*
X14181933Y-5085563D01*
X14184243Y-5084737D01*
X14186623Y-5084140D01*
X14189049Y-5083780D01*
X14191500Y-5083660D01*
X14256500Y-5083660D01*
X14258950Y-5083780D01*
G37*
%TD.AperFunction*%
%TA.AperFunction,SMDPad,CuDef*%
G36*
X14463950Y-5083780D02*
G01*
X14466377Y-5084140D01*
X14468757Y-5084737D01*
X14471067Y-5085563D01*
X14473285Y-5086612D01*
X14475389Y-5087873D01*
X14477360Y-5089335D01*
X14479178Y-5090982D01*
X14480825Y-5092800D01*
X14482287Y-5094771D01*
X14483548Y-5096875D01*
X14484597Y-5099093D01*
X14485423Y-5101403D01*
X14486020Y-5103783D01*
X14486380Y-5106210D01*
X14486500Y-5108660D01*
X14486500Y-5198660D01*
X14486380Y-5201111D01*
X14486020Y-5203537D01*
X14485423Y-5205917D01*
X14484597Y-5208227D01*
X14483548Y-5210445D01*
X14482287Y-5212549D01*
X14480825Y-5214520D01*
X14479178Y-5216338D01*
X14477360Y-5217985D01*
X14475389Y-5219447D01*
X14473285Y-5220708D01*
X14471067Y-5221757D01*
X14468757Y-5222584D01*
X14466377Y-5223180D01*
X14463950Y-5223540D01*
X14461500Y-5223660D01*
X14396500Y-5223660D01*
X14394049Y-5223540D01*
X14391623Y-5223180D01*
X14389243Y-5222584D01*
X14386933Y-5221757D01*
X14384715Y-5220708D01*
X14382611Y-5219447D01*
X14380640Y-5217985D01*
X14378822Y-5216338D01*
X14377175Y-5214520D01*
X14375713Y-5212549D01*
X14374452Y-5210445D01*
X14373403Y-5208227D01*
X14372576Y-5205917D01*
X14371980Y-5203537D01*
X14371620Y-5201111D01*
X14371500Y-5198660D01*
X14371500Y-5108660D01*
X14371620Y-5106210D01*
X14371980Y-5103783D01*
X14372576Y-5101403D01*
X14373403Y-5099093D01*
X14374452Y-5096875D01*
X14375713Y-5094771D01*
X14377175Y-5092800D01*
X14378822Y-5090982D01*
X14380640Y-5089335D01*
X14382611Y-5087873D01*
X14384715Y-5086612D01*
X14386933Y-5085563D01*
X14389243Y-5084737D01*
X14391623Y-5084140D01*
X14394049Y-5083780D01*
X14396500Y-5083660D01*
X14461500Y-5083660D01*
X14463950Y-5083780D01*
G37*
%TD.AperFunction*%
%TA.AperFunction,SMDPad,CuDef*%
G36*
X13646810Y-4951700D02*
G01*
X13649237Y-4952060D01*
X13651617Y-4952657D01*
X13653927Y-4953483D01*
X13656145Y-4954532D01*
X13658249Y-4955793D01*
X13660220Y-4957255D01*
X13662038Y-4958902D01*
X13663685Y-4960720D01*
X13665147Y-4962691D01*
X13666408Y-4964795D01*
X13667457Y-4967013D01*
X13668283Y-4969323D01*
X13668880Y-4971703D01*
X13669240Y-4974130D01*
X13669360Y-4976580D01*
X13669360Y-5066580D01*
X13669240Y-5069031D01*
X13668880Y-5071457D01*
X13668283Y-5073837D01*
X13667457Y-5076147D01*
X13666408Y-5078365D01*
X13665147Y-5080469D01*
X13663685Y-5082440D01*
X13662038Y-5084258D01*
X13660220Y-5085905D01*
X13658249Y-5087367D01*
X13656145Y-5088628D01*
X13653927Y-5089677D01*
X13651617Y-5090504D01*
X13649237Y-5091100D01*
X13646810Y-5091460D01*
X13644360Y-5091580D01*
X13579360Y-5091580D01*
X13576909Y-5091460D01*
X13574483Y-5091100D01*
X13572103Y-5090504D01*
X13569793Y-5089677D01*
X13567575Y-5088628D01*
X13565471Y-5087367D01*
X13563500Y-5085905D01*
X13561682Y-5084258D01*
X13560035Y-5082440D01*
X13558573Y-5080469D01*
X13557312Y-5078365D01*
X13556263Y-5076147D01*
X13555436Y-5073837D01*
X13554840Y-5071457D01*
X13554480Y-5069031D01*
X13554360Y-5066580D01*
X13554360Y-4976580D01*
X13554480Y-4974130D01*
X13554840Y-4971703D01*
X13555436Y-4969323D01*
X13556263Y-4967013D01*
X13557312Y-4964795D01*
X13558573Y-4962691D01*
X13560035Y-4960720D01*
X13561682Y-4958902D01*
X13563500Y-4957255D01*
X13565471Y-4955793D01*
X13567575Y-4954532D01*
X13569793Y-4953483D01*
X13572103Y-4952657D01*
X13574483Y-4952060D01*
X13576909Y-4951700D01*
X13579360Y-4951580D01*
X13644360Y-4951580D01*
X13646810Y-4951700D01*
G37*
%TD.AperFunction*%
%TA.AperFunction,SMDPad,CuDef*%
G36*
X13851810Y-4951700D02*
G01*
X13854237Y-4952060D01*
X13856617Y-4952657D01*
X13858927Y-4953483D01*
X13861145Y-4954532D01*
X13863249Y-4955793D01*
X13865220Y-4957255D01*
X13867038Y-4958902D01*
X13868685Y-4960720D01*
X13870147Y-4962691D01*
X13871408Y-4964795D01*
X13872457Y-4967013D01*
X13873283Y-4969323D01*
X13873880Y-4971703D01*
X13874240Y-4974130D01*
X13874360Y-4976580D01*
X13874360Y-5066580D01*
X13874240Y-5069031D01*
X13873880Y-5071457D01*
X13873283Y-5073837D01*
X13872457Y-5076147D01*
X13871408Y-5078365D01*
X13870147Y-5080469D01*
X13868685Y-5082440D01*
X13867038Y-5084258D01*
X13865220Y-5085905D01*
X13863249Y-5087367D01*
X13861145Y-5088628D01*
X13858927Y-5089677D01*
X13856617Y-5090504D01*
X13854237Y-5091100D01*
X13851810Y-5091460D01*
X13849360Y-5091580D01*
X13784360Y-5091580D01*
X13781909Y-5091460D01*
X13779483Y-5091100D01*
X13777103Y-5090504D01*
X13774793Y-5089677D01*
X13772575Y-5088628D01*
X13770471Y-5087367D01*
X13768500Y-5085905D01*
X13766682Y-5084258D01*
X13765035Y-5082440D01*
X13763573Y-5080469D01*
X13762312Y-5078365D01*
X13761263Y-5076147D01*
X13760436Y-5073837D01*
X13759840Y-5071457D01*
X13759480Y-5069031D01*
X13759360Y-5066580D01*
X13759360Y-4976580D01*
X13759480Y-4974130D01*
X13759840Y-4971703D01*
X13760436Y-4969323D01*
X13761263Y-4967013D01*
X13762312Y-4964795D01*
X13763573Y-4962691D01*
X13765035Y-4960720D01*
X13766682Y-4958902D01*
X13768500Y-4957255D01*
X13770471Y-4955793D01*
X13772575Y-4954532D01*
X13774793Y-4953483D01*
X13777103Y-4952657D01*
X13779483Y-4952060D01*
X13781909Y-4951700D01*
X13784360Y-4951580D01*
X13849360Y-4951580D01*
X13851810Y-4951700D01*
G37*
%TD.AperFunction*%
D15*
X14835000Y-6131000D03*
X14581000Y-6131000D03*
X14327000Y-6131000D03*
X14073000Y-6131000D03*
D16*
X13819000Y-6131000D03*
D14*
X13335000Y-6096000D03*
X13335000Y-4826000D03*
X15367000Y-4826000D03*
%TA.AperFunction,SMDPad,CuDef*%
D11*
G36*
X14522440Y-4631720D02*
G01*
X14572440Y-4631720D01*
X14572440Y-4631780D01*
X14574893Y-4631780D01*
X14579776Y-4632261D01*
X14584589Y-4633218D01*
X14589284Y-4634643D01*
X14593818Y-4636521D01*
X14598145Y-4638834D01*
X14602225Y-4641560D01*
X14606018Y-4644672D01*
X14609488Y-4648142D01*
X14612600Y-4651935D01*
X14615326Y-4656015D01*
X14617639Y-4660342D01*
X14619517Y-4664876D01*
X14620942Y-4669571D01*
X14621899Y-4674384D01*
X14622380Y-4679267D01*
X14622380Y-4681720D01*
X14622440Y-4681720D01*
X14622440Y-4731720D01*
X14622380Y-4731720D01*
X14622380Y-4734173D01*
X14621899Y-4739057D01*
X14620942Y-4743869D01*
X14619517Y-4748565D01*
X14617639Y-4753098D01*
X14615326Y-4757425D01*
X14612600Y-4761505D01*
X14609488Y-4765298D01*
X14606018Y-4768768D01*
X14602225Y-4771880D01*
X14598145Y-4774606D01*
X14593818Y-4776920D01*
X14589284Y-4778797D01*
X14584589Y-4780222D01*
X14579776Y-4781179D01*
X14574893Y-4781660D01*
X14572440Y-4781660D01*
X14572440Y-4781720D01*
X14522440Y-4781720D01*
X14522440Y-4631720D01*
G37*
%TD.AperFunction*%
%TA.AperFunction,SMDPad,CuDef*%
G36*
X14442440Y-4781660D02*
G01*
X14439987Y-4781660D01*
X14435103Y-4781179D01*
X14430291Y-4780222D01*
X14425595Y-4778797D01*
X14421062Y-4776920D01*
X14416735Y-4774606D01*
X14412655Y-4771880D01*
X14408862Y-4768768D01*
X14405392Y-4765298D01*
X14402280Y-4761505D01*
X14399554Y-4757425D01*
X14397240Y-4753098D01*
X14395363Y-4748565D01*
X14393938Y-4743869D01*
X14392981Y-4739057D01*
X14392500Y-4734173D01*
X14392500Y-4731720D01*
X14392440Y-4731720D01*
X14392440Y-4681720D01*
X14392500Y-4681720D01*
X14392500Y-4679267D01*
X14392981Y-4674384D01*
X14393938Y-4669571D01*
X14395363Y-4664876D01*
X14397240Y-4660342D01*
X14399554Y-4656015D01*
X14402280Y-4651935D01*
X14405392Y-4648142D01*
X14408862Y-4644672D01*
X14412655Y-4641560D01*
X14416735Y-4638834D01*
X14421062Y-4636521D01*
X14425595Y-4634643D01*
X14430291Y-4633218D01*
X14435103Y-4632261D01*
X14439987Y-4631780D01*
X14442440Y-4631780D01*
X14442440Y-4631720D01*
X14492440Y-4631720D01*
X14492440Y-4781720D01*
X14442440Y-4781720D01*
X14442440Y-4781660D01*
G37*
%TD.AperFunction*%
%TA.AperFunction,SMDPad,CuDef*%
G36*
X13839054Y-4611337D02*
G01*
X13841420Y-4611688D01*
X13843741Y-4612270D01*
X13845993Y-4613075D01*
X13848155Y-4614098D01*
X13850207Y-4615328D01*
X13852128Y-4616753D01*
X13853901Y-4618359D01*
X13855507Y-4620132D01*
X13856932Y-4622053D01*
X13858162Y-4624105D01*
X13859185Y-4626267D01*
X13859990Y-4628519D01*
X13860572Y-4630840D01*
X13860923Y-4633206D01*
X13861040Y-4635595D01*
X13861040Y-4726845D01*
X13860923Y-4729234D01*
X13860572Y-4731600D01*
X13859990Y-4733921D01*
X13859185Y-4736173D01*
X13858162Y-4738335D01*
X13856932Y-4740387D01*
X13855507Y-4742308D01*
X13853901Y-4744081D01*
X13852128Y-4745687D01*
X13850207Y-4747112D01*
X13848155Y-4748342D01*
X13845993Y-4749365D01*
X13843741Y-4750170D01*
X13841420Y-4750752D01*
X13839054Y-4751103D01*
X13836665Y-4751220D01*
X13787915Y-4751220D01*
X13785526Y-4751103D01*
X13783160Y-4750752D01*
X13780839Y-4750170D01*
X13778587Y-4749365D01*
X13776425Y-4748342D01*
X13774373Y-4747112D01*
X13772452Y-4745687D01*
X13770679Y-4744081D01*
X13769073Y-4742308D01*
X13767648Y-4740387D01*
X13766418Y-4738335D01*
X13765395Y-4736173D01*
X13764590Y-4733921D01*
X13764008Y-4731600D01*
X13763657Y-4729234D01*
X13763540Y-4726845D01*
X13763540Y-4635595D01*
X13763657Y-4633206D01*
X13764008Y-4630840D01*
X13764590Y-4628519D01*
X13765395Y-4626267D01*
X13766418Y-4624105D01*
X13767648Y-4622053D01*
X13769073Y-4620132D01*
X13770679Y-4618359D01*
X13772452Y-4616753D01*
X13774373Y-4615328D01*
X13776425Y-4614098D01*
X13778587Y-4613075D01*
X13780839Y-4612270D01*
X13783160Y-4611688D01*
X13785526Y-4611337D01*
X13787915Y-4611220D01*
X13836665Y-4611220D01*
X13839054Y-4611337D01*
G37*
%TD.AperFunction*%
%TA.AperFunction,SMDPad,CuDef*%
G36*
X13651554Y-4611337D02*
G01*
X13653920Y-4611688D01*
X13656241Y-4612270D01*
X13658493Y-4613075D01*
X13660655Y-4614098D01*
X13662707Y-4615328D01*
X13664628Y-4616753D01*
X13666401Y-4618359D01*
X13668007Y-4620132D01*
X13669432Y-4622053D01*
X13670662Y-4624105D01*
X13671685Y-4626267D01*
X13672490Y-4628519D01*
X13673072Y-4630840D01*
X13673423Y-4633206D01*
X13673540Y-4635595D01*
X13673540Y-4726845D01*
X13673423Y-4729234D01*
X13673072Y-4731600D01*
X13672490Y-4733921D01*
X13671685Y-4736173D01*
X13670662Y-4738335D01*
X13669432Y-4740387D01*
X13668007Y-4742308D01*
X13666401Y-4744081D01*
X13664628Y-4745687D01*
X13662707Y-4747112D01*
X13660655Y-4748342D01*
X13658493Y-4749365D01*
X13656241Y-4750170D01*
X13653920Y-4750752D01*
X13651554Y-4751103D01*
X13649165Y-4751220D01*
X13600415Y-4751220D01*
X13598026Y-4751103D01*
X13595660Y-4750752D01*
X13593339Y-4750170D01*
X13591087Y-4749365D01*
X13588925Y-4748342D01*
X13586873Y-4747112D01*
X13584952Y-4745687D01*
X13583179Y-4744081D01*
X13581573Y-4742308D01*
X13580148Y-4740387D01*
X13578918Y-4738335D01*
X13577895Y-4736173D01*
X13577090Y-4733921D01*
X13576508Y-4731600D01*
X13576157Y-4729234D01*
X13576040Y-4726845D01*
X13576040Y-4635595D01*
X13576157Y-4633206D01*
X13576508Y-4630840D01*
X13577090Y-4628519D01*
X13577895Y-4626267D01*
X13578918Y-4624105D01*
X13580148Y-4622053D01*
X13581573Y-4620132D01*
X13583179Y-4618359D01*
X13584952Y-4616753D01*
X13586873Y-4615328D01*
X13588925Y-4614098D01*
X13591087Y-4613075D01*
X13593339Y-4612270D01*
X13595660Y-4611688D01*
X13598026Y-4611337D01*
X13600415Y-4611220D01*
X13649165Y-4611220D01*
X13651554Y-4611337D01*
G37*
%TD.AperFunction*%
D17*
X14387980Y-5614120D03*
X14387980Y-5517120D03*
X14387980Y-5420120D03*
X14387980Y-5323120D03*
X14247980Y-5323120D03*
X14247980Y-5420120D03*
X14247980Y-5517120D03*
X14247980Y-5614120D03*
D18*
X14538960Y-5369560D03*
X13609320Y-5189220D03*
X14241780Y-4907280D03*
X15354300Y-5565140D03*
X14922500Y-5331460D03*
X14531340Y-5511800D03*
X13972540Y-5417820D03*
X13784580Y-5547360D03*
X14152880Y-5631180D03*
X14963140Y-5440680D03*
D19*
X14488400Y-5420120D02*
X14387980Y-5420120D01*
X14538960Y-5369560D02*
X14488400Y-5420120D01*
X13816860Y-5297040D02*
X13816860Y-5021580D01*
X13677500Y-5436400D02*
X13816860Y-5297040D01*
X13589000Y-5436400D02*
X13677500Y-5436400D01*
X13839720Y-5021580D02*
X14182620Y-4678680D01*
X13816860Y-5021580D02*
X13839720Y-5021580D01*
X14434080Y-5158740D02*
X14429000Y-5153660D01*
X14429000Y-5282100D02*
X14387980Y-5323120D01*
X14429000Y-5153660D02*
X14429000Y-5282100D01*
X14804920Y-5716980D02*
X14804920Y-5778500D01*
X14985500Y-5536400D02*
X14804920Y-5716980D01*
X15113000Y-5536400D02*
X14985500Y-5536400D01*
X14212620Y-4706720D02*
X14182620Y-4676720D01*
X14442440Y-4706720D02*
X14212620Y-4706720D01*
X14442440Y-5140220D02*
X14429000Y-5153660D01*
X14442440Y-4706720D02*
X14442440Y-5140220D01*
X14429000Y-5153660D02*
X14645640Y-5153660D01*
X14804920Y-5312940D02*
X14804920Y-5778500D01*
X14645640Y-5153660D02*
X14804920Y-5312940D01*
X13848820Y-5778500D02*
X13459460Y-5778500D01*
X13459460Y-5778500D02*
X13393420Y-5712460D01*
X13393420Y-5504480D02*
X13461500Y-5436400D01*
X13461500Y-5436400D02*
X13589000Y-5436400D01*
X13393420Y-5712460D02*
X13393420Y-5504480D01*
X13848820Y-5906820D02*
X13848820Y-5778500D01*
X14073000Y-6131000D02*
X13848820Y-5906820D01*
X14247980Y-5517120D02*
X14086600Y-5517120D01*
X14053820Y-5549900D02*
X14053820Y-5778500D01*
X14086600Y-5517120D02*
X14053820Y-5549900D01*
X14053820Y-5778500D02*
X14053820Y-5900420D01*
X14053820Y-5900420D02*
X14155420Y-6002020D01*
X14705000Y-6001000D02*
X14835000Y-6131000D01*
X14156440Y-6001000D02*
X14705000Y-6001000D01*
X14155420Y-6002020D02*
X14156440Y-6001000D01*
X14775180Y-4998580D02*
X15113000Y-5336400D01*
X14775180Y-4867540D02*
X14775180Y-4998580D01*
X14526020Y-5517120D02*
X14531340Y-5511800D01*
X14387980Y-5517120D02*
X14526020Y-5517120D01*
X15108060Y-5331460D02*
X15113000Y-5336400D01*
X14922500Y-5331460D02*
X15108060Y-5331460D01*
X13972540Y-5417820D02*
X13972540Y-5524500D01*
X13860640Y-5636400D02*
X13589000Y-5636400D01*
X13972540Y-5524500D02*
X13860640Y-5636400D01*
X14975840Y-4867540D02*
X14975840Y-4983480D01*
X14975840Y-4983480D02*
X15288260Y-5295900D01*
X15240500Y-5436400D02*
X15113000Y-5436400D01*
X15288260Y-5388640D02*
X15240500Y-5436400D01*
X15288260Y-5295900D02*
X15288260Y-5388640D01*
X14169976Y-5614120D02*
X14152898Y-5631198D01*
X14247980Y-5614120D02*
X14169976Y-5614120D01*
X13599960Y-5547360D02*
X13589000Y-5536400D01*
X13784580Y-5547360D02*
X13599960Y-5547360D01*
X15108720Y-5440680D02*
X15113000Y-5436400D01*
X14963140Y-5440680D02*
X15108720Y-5440680D01*
X15500500Y-5206400D02*
X15500500Y-5766400D01*
X13201500Y-5206400D02*
X13201500Y-5766400D01*
X13814830Y-4678680D02*
X13812290Y-4681220D01*
X13977620Y-4678680D02*
X13814830Y-4678680D01*
X14599920Y-5778500D02*
X14429000Y-5778500D01*
X14387980Y-5737480D02*
X14429000Y-5778500D01*
X14387980Y-5614120D02*
X14387980Y-5737480D01*
X14247980Y-5420120D02*
X14247980Y-5323120D01*
X14731000Y-4706720D02*
X14775180Y-4662540D01*
X14572440Y-4706720D02*
X14731000Y-4706720D01*
X14775180Y-4662540D02*
X14975840Y-4662540D01*
D20*
G36*
X15386082Y-5325350D02*
G01*
X15398052Y-5328981D01*
X15410500Y-5330207D01*
X15412000Y-5330207D01*
X15412000Y-5642593D01*
X15410500Y-5642593D01*
X15398052Y-5643819D01*
X15386082Y-5647450D01*
X15375051Y-5653346D01*
X15365381Y-5661281D01*
X15357446Y-5670951D01*
X15351550Y-5681982D01*
X15347919Y-5693952D01*
X15346693Y-5706400D01*
X15346693Y-5826400D01*
X15347919Y-5838848D01*
X15349027Y-5842500D01*
X15342032Y-5842500D01*
X15293057Y-5852242D01*
X15246923Y-5871351D01*
X15205403Y-5899094D01*
X15170094Y-5934403D01*
X15142351Y-5975923D01*
X15123242Y-6022057D01*
X15113500Y-6071032D01*
X15113500Y-6120968D01*
X15123242Y-6169943D01*
X15142351Y-6216077D01*
X15170094Y-6257597D01*
X15196497Y-6284000D01*
X13505503Y-6284000D01*
X13531906Y-6257597D01*
X13559649Y-6216077D01*
X13559681Y-6216000D01*
X13670193Y-6216000D01*
X13671419Y-6228448D01*
X13675050Y-6240418D01*
X13680946Y-6251449D01*
X13688881Y-6261118D01*
X13698551Y-6269054D01*
X13709582Y-6274950D01*
X13721552Y-6278581D01*
X13734000Y-6279807D01*
X13790425Y-6279500D01*
X13806300Y-6263625D01*
X13806300Y-6143700D01*
X13686375Y-6143700D01*
X13670500Y-6159575D01*
X13670193Y-6216000D01*
X13559681Y-6216000D01*
X13578758Y-6169943D01*
X13588500Y-6120968D01*
X13588500Y-6071032D01*
X13578758Y-6022057D01*
X13559649Y-5975923D01*
X13531906Y-5934403D01*
X13496597Y-5899094D01*
X13455077Y-5871351D01*
X13439758Y-5865006D01*
X13442111Y-5865719D01*
X13442111Y-5865719D01*
X13455112Y-5867000D01*
X13455113Y-5867000D01*
X13459460Y-5867428D01*
X13463807Y-5867000D01*
X13739359Y-5867000D01*
X13742479Y-5872839D01*
X13753524Y-5886296D01*
X13760320Y-5891874D01*
X13760320Y-5902473D01*
X13759892Y-5906820D01*
X13760320Y-5911167D01*
X13760320Y-5911168D01*
X13760970Y-5917769D01*
X13761600Y-5924169D01*
X13762477Y-5927059D01*
X13766661Y-5940851D01*
X13774879Y-5956226D01*
X13785938Y-5969702D01*
X13789316Y-5972473D01*
X13806300Y-5989458D01*
X13806300Y-5998375D01*
X13790425Y-5982500D01*
X13734000Y-5982193D01*
X13721552Y-5983419D01*
X13709582Y-5987050D01*
X13698551Y-5992946D01*
X13688881Y-6000881D01*
X13680946Y-6010551D01*
X13675050Y-6021582D01*
X13671419Y-6033552D01*
X13670193Y-6046000D01*
X13670500Y-6102425D01*
X13686375Y-6118300D01*
X13806300Y-6118300D01*
X13806300Y-6116300D01*
X13831700Y-6116300D01*
X13831700Y-6118300D01*
X13833700Y-6118300D01*
X13833700Y-6143700D01*
X13831700Y-6143700D01*
X13831700Y-6263625D01*
X13847575Y-6279500D01*
X13904000Y-6279807D01*
X13916448Y-6278581D01*
X13928418Y-6274950D01*
X13939449Y-6269054D01*
X13949118Y-6261118D01*
X13957054Y-6251449D01*
X13962950Y-6240418D01*
X13965151Y-6233162D01*
X13978337Y-6246347D01*
X14002659Y-6262599D01*
X14029684Y-6273793D01*
X14058374Y-6279500D01*
X14087626Y-6279500D01*
X14116316Y-6273793D01*
X14143341Y-6262599D01*
X14167663Y-6246347D01*
X14188347Y-6225663D01*
X14200000Y-6208224D01*
X14211652Y-6225663D01*
X14232337Y-6246347D01*
X14256659Y-6262599D01*
X14283684Y-6273793D01*
X14312374Y-6279500D01*
X14341626Y-6279500D01*
X14370316Y-6273793D01*
X14397341Y-6262599D01*
X14421663Y-6246347D01*
X14442347Y-6225663D01*
X14454000Y-6208224D01*
X14465652Y-6225663D01*
X14486337Y-6246347D01*
X14510659Y-6262599D01*
X14537684Y-6273793D01*
X14566374Y-6279500D01*
X14595626Y-6279500D01*
X14624316Y-6273793D01*
X14651341Y-6262599D01*
X14675663Y-6246347D01*
X14696347Y-6225663D01*
X14708000Y-6208224D01*
X14719652Y-6225663D01*
X14740337Y-6246347D01*
X14764659Y-6262599D01*
X14791684Y-6273793D01*
X14820374Y-6279500D01*
X14849626Y-6279500D01*
X14878316Y-6273793D01*
X14905341Y-6262599D01*
X14929663Y-6246347D01*
X14950347Y-6225663D01*
X14966599Y-6201341D01*
X14977793Y-6174316D01*
X14983500Y-6145626D01*
X14983500Y-6116374D01*
X14977793Y-6087684D01*
X14966599Y-6060659D01*
X14950347Y-6036337D01*
X14929663Y-6015652D01*
X14905341Y-5999401D01*
X14878316Y-5988207D01*
X14849626Y-5982500D01*
X14820374Y-5982500D01*
X14813104Y-5983946D01*
X14770653Y-5941495D01*
X14767882Y-5938118D01*
X14754406Y-5927059D01*
X14739031Y-5918841D01*
X14722349Y-5913780D01*
X14709348Y-5912500D01*
X14709347Y-5912500D01*
X14705000Y-5912072D01*
X14700653Y-5912500D01*
X14191058Y-5912500D01*
X14190609Y-5912051D01*
X14195425Y-5912000D01*
X14211300Y-5896125D01*
X14211300Y-5791200D01*
X14209300Y-5791200D01*
X14209300Y-5765800D01*
X14211300Y-5765800D01*
X14211300Y-5763800D01*
X14236700Y-5763800D01*
X14236700Y-5765800D01*
X14238700Y-5765800D01*
X14238700Y-5791200D01*
X14236700Y-5791200D01*
X14236700Y-5896125D01*
X14252575Y-5912000D01*
X14281500Y-5912307D01*
X14293948Y-5911081D01*
X14305918Y-5907450D01*
X14316949Y-5901554D01*
X14326618Y-5893618D01*
X14333166Y-5885641D01*
X14333704Y-5886296D01*
X14347161Y-5897340D01*
X14362515Y-5905547D01*
X14379174Y-5910601D01*
X14396500Y-5912307D01*
X14461500Y-5912307D01*
X14478825Y-5910601D01*
X14495485Y-5905547D01*
X14510839Y-5897340D01*
X14514460Y-5894369D01*
X14518081Y-5897340D01*
X14533435Y-5905547D01*
X14550094Y-5910601D01*
X14567420Y-5912307D01*
X14632420Y-5912307D01*
X14649745Y-5910601D01*
X14666405Y-5905547D01*
X14681759Y-5897340D01*
X14695216Y-5886296D01*
X14702420Y-5877518D01*
X14709624Y-5886296D01*
X14723081Y-5897340D01*
X14738435Y-5905547D01*
X14755094Y-5910601D01*
X14772420Y-5912307D01*
X14837420Y-5912307D01*
X14854745Y-5910601D01*
X14871405Y-5905547D01*
X14886759Y-5897340D01*
X14900216Y-5886296D01*
X14911260Y-5872839D01*
X14919467Y-5857485D01*
X14924521Y-5840825D01*
X14926227Y-5823500D01*
X14926227Y-5733500D01*
X14925091Y-5721967D01*
X14972497Y-5674561D01*
X14972919Y-5678848D01*
X14976550Y-5690818D01*
X14982446Y-5701849D01*
X14990381Y-5711518D01*
X15000051Y-5719454D01*
X15011082Y-5725350D01*
X15023052Y-5728981D01*
X15035500Y-5730207D01*
X15084425Y-5729900D01*
X15100300Y-5714025D01*
X15100300Y-5649100D01*
X15125700Y-5649100D01*
X15125700Y-5714025D01*
X15141575Y-5729900D01*
X15190500Y-5730207D01*
X15202948Y-5728981D01*
X15214918Y-5725350D01*
X15225949Y-5719454D01*
X15235618Y-5711518D01*
X15243554Y-5701849D01*
X15249450Y-5690818D01*
X15253081Y-5678848D01*
X15254307Y-5666400D01*
X15254000Y-5664975D01*
X15238125Y-5649100D01*
X15125700Y-5649100D01*
X15100300Y-5649100D01*
X15098300Y-5649100D01*
X15098300Y-5630207D01*
X15190500Y-5630207D01*
X15202948Y-5628981D01*
X15214918Y-5625350D01*
X15218005Y-5623700D01*
X15238125Y-5623700D01*
X15254000Y-5607825D01*
X15254307Y-5606400D01*
X15253081Y-5593952D01*
X15250790Y-5586400D01*
X15253081Y-5578848D01*
X15254307Y-5566400D01*
X15254307Y-5523968D01*
X15257849Y-5523620D01*
X15274531Y-5518559D01*
X15289906Y-5510341D01*
X15303382Y-5499282D01*
X15306153Y-5495904D01*
X15347764Y-5454293D01*
X15351142Y-5451522D01*
X15362201Y-5438046D01*
X15370419Y-5422671D01*
X15375479Y-5405989D01*
X15376760Y-5392988D01*
X15376760Y-5392987D01*
X15377188Y-5388640D01*
X15376760Y-5384294D01*
X15376760Y-5320367D01*
X15386082Y-5325350D01*
G37*
X15386082Y-5325350D02*
X15398052Y-5328981D01*
X15410500Y-5330207D01*
X15412000Y-5330207D01*
X15412000Y-5642593D01*
X15410500Y-5642593D01*
X15398052Y-5643819D01*
X15386082Y-5647450D01*
X15375051Y-5653346D01*
X15365381Y-5661281D01*
X15357446Y-5670951D01*
X15351550Y-5681982D01*
X15347919Y-5693952D01*
X15346693Y-5706400D01*
X15346693Y-5826400D01*
X15347919Y-5838848D01*
X15349027Y-5842500D01*
X15342032Y-5842500D01*
X15293057Y-5852242D01*
X15246923Y-5871351D01*
X15205403Y-5899094D01*
X15170094Y-5934403D01*
X15142351Y-5975923D01*
X15123242Y-6022057D01*
X15113500Y-6071032D01*
X15113500Y-6120968D01*
X15123242Y-6169943D01*
X15142351Y-6216077D01*
X15170094Y-6257597D01*
X15196497Y-6284000D01*
X13505503Y-6284000D01*
X13531906Y-6257597D01*
X13559649Y-6216077D01*
X13559681Y-6216000D01*
X13670193Y-6216000D01*
X13671419Y-6228448D01*
X13675050Y-6240418D01*
X13680946Y-6251449D01*
X13688881Y-6261118D01*
X13698551Y-6269054D01*
X13709582Y-6274950D01*
X13721552Y-6278581D01*
X13734000Y-6279807D01*
X13790425Y-6279500D01*
X13806300Y-6263625D01*
X13806300Y-6143700D01*
X13686375Y-6143700D01*
X13670500Y-6159575D01*
X13670193Y-6216000D01*
X13559681Y-6216000D01*
X13578758Y-6169943D01*
X13588500Y-6120968D01*
X13588500Y-6071032D01*
X13578758Y-6022057D01*
X13559649Y-5975923D01*
X13531906Y-5934403D01*
X13496597Y-5899094D01*
X13455077Y-5871351D01*
X13439758Y-5865006D01*
X13442111Y-5865719D01*
X13442111Y-5865719D01*
X13455112Y-5867000D01*
X13455113Y-5867000D01*
X13459460Y-5867428D01*
X13463807Y-5867000D01*
X13739359Y-5867000D01*
X13742479Y-5872839D01*
X13753524Y-5886296D01*
X13760320Y-5891874D01*
X13760320Y-5902473D01*
X13759892Y-5906820D01*
X13760320Y-5911167D01*
X13760320Y-5911168D01*
X13760970Y-5917769D01*
X13761600Y-5924169D01*
X13762477Y-5927059D01*
X13766661Y-5940851D01*
X13774879Y-5956226D01*
X13785938Y-5969702D01*
X13789316Y-5972473D01*
X13806300Y-5989458D01*
X13806300Y-5998375D01*
X13790425Y-5982500D01*
X13734000Y-5982193D01*
X13721552Y-5983419D01*
X13709582Y-5987050D01*
X13698551Y-5992946D01*
X13688881Y-6000881D01*
X13680946Y-6010551D01*
X13675050Y-6021582D01*
X13671419Y-6033552D01*
X13670193Y-6046000D01*
X13670500Y-6102425D01*
X13686375Y-6118300D01*
X13806300Y-6118300D01*
X13806300Y-6116300D01*
X13831700Y-6116300D01*
X13831700Y-6118300D01*
X13833700Y-6118300D01*
X13833700Y-6143700D01*
X13831700Y-6143700D01*
X13831700Y-6263625D01*
X13847575Y-6279500D01*
X13904000Y-6279807D01*
X13916448Y-6278581D01*
X13928418Y-6274950D01*
X13939449Y-6269054D01*
X13949118Y-6261118D01*
X13957054Y-6251449D01*
X13962950Y-6240418D01*
X13965151Y-6233162D01*
X13978337Y-6246347D01*
X14002659Y-6262599D01*
X14029684Y-6273793D01*
X14058374Y-6279500D01*
X14087626Y-6279500D01*
X14116316Y-6273793D01*
X14143341Y-6262599D01*
X14167663Y-6246347D01*
X14188347Y-6225663D01*
X14200000Y-6208224D01*
X14211652Y-6225663D01*
X14232337Y-6246347D01*
X14256659Y-6262599D01*
X14283684Y-6273793D01*
X14312374Y-6279500D01*
X14341626Y-6279500D01*
X14370316Y-6273793D01*
X14397341Y-6262599D01*
X14421663Y-6246347D01*
X14442347Y-6225663D01*
X14454000Y-6208224D01*
X14465652Y-6225663D01*
X14486337Y-6246347D01*
X14510659Y-6262599D01*
X14537684Y-6273793D01*
X14566374Y-6279500D01*
X14595626Y-6279500D01*
X14624316Y-6273793D01*
X14651341Y-6262599D01*
X14675663Y-6246347D01*
X14696347Y-6225663D01*
X14708000Y-6208224D01*
X14719652Y-6225663D01*
X14740337Y-6246347D01*
X14764659Y-6262599D01*
X14791684Y-6273793D01*
X14820374Y-6279500D01*
X14849626Y-6279500D01*
X14878316Y-6273793D01*
X14905341Y-6262599D01*
X14929663Y-6246347D01*
X14950347Y-6225663D01*
X14966599Y-6201341D01*
X14977793Y-6174316D01*
X14983500Y-6145626D01*
X14983500Y-6116374D01*
X14977793Y-6087684D01*
X14966599Y-6060659D01*
X14950347Y-6036337D01*
X14929663Y-6015652D01*
X14905341Y-5999401D01*
X14878316Y-5988207D01*
X14849626Y-5982500D01*
X14820374Y-5982500D01*
X14813104Y-5983946D01*
X14770653Y-5941495D01*
X14767882Y-5938118D01*
X14754406Y-5927059D01*
X14739031Y-5918841D01*
X14722349Y-5913780D01*
X14709348Y-5912500D01*
X14709347Y-5912500D01*
X14705000Y-5912072D01*
X14700653Y-5912500D01*
X14191058Y-5912500D01*
X14190609Y-5912051D01*
X14195425Y-5912000D01*
X14211300Y-5896125D01*
X14211300Y-5791200D01*
X14209300Y-5791200D01*
X14209300Y-5765800D01*
X14211300Y-5765800D01*
X14211300Y-5763800D01*
X14236700Y-5763800D01*
X14236700Y-5765800D01*
X14238700Y-5765800D01*
X14238700Y-5791200D01*
X14236700Y-5791200D01*
X14236700Y-5896125D01*
X14252575Y-5912000D01*
X14281500Y-5912307D01*
X14293948Y-5911081D01*
X14305918Y-5907450D01*
X14316949Y-5901554D01*
X14326618Y-5893618D01*
X14333166Y-5885641D01*
X14333704Y-5886296D01*
X14347161Y-5897340D01*
X14362515Y-5905547D01*
X14379174Y-5910601D01*
X14396500Y-5912307D01*
X14461500Y-5912307D01*
X14478825Y-5910601D01*
X14495485Y-5905547D01*
X14510839Y-5897340D01*
X14514460Y-5894369D01*
X14518081Y-5897340D01*
X14533435Y-5905547D01*
X14550094Y-5910601D01*
X14567420Y-5912307D01*
X14632420Y-5912307D01*
X14649745Y-5910601D01*
X14666405Y-5905547D01*
X14681759Y-5897340D01*
X14695216Y-5886296D01*
X14702420Y-5877518D01*
X14709624Y-5886296D01*
X14723081Y-5897340D01*
X14738435Y-5905547D01*
X14755094Y-5910601D01*
X14772420Y-5912307D01*
X14837420Y-5912307D01*
X14854745Y-5910601D01*
X14871405Y-5905547D01*
X14886759Y-5897340D01*
X14900216Y-5886296D01*
X14911260Y-5872839D01*
X14919467Y-5857485D01*
X14924521Y-5840825D01*
X14926227Y-5823500D01*
X14926227Y-5733500D01*
X14925091Y-5721967D01*
X14972497Y-5674561D01*
X14972919Y-5678848D01*
X14976550Y-5690818D01*
X14982446Y-5701849D01*
X14990381Y-5711518D01*
X15000051Y-5719454D01*
X15011082Y-5725350D01*
X15023052Y-5728981D01*
X15035500Y-5730207D01*
X15084425Y-5729900D01*
X15100300Y-5714025D01*
X15100300Y-5649100D01*
X15125700Y-5649100D01*
X15125700Y-5714025D01*
X15141575Y-5729900D01*
X15190500Y-5730207D01*
X15202948Y-5728981D01*
X15214918Y-5725350D01*
X15225949Y-5719454D01*
X15235618Y-5711518D01*
X15243554Y-5701849D01*
X15249450Y-5690818D01*
X15253081Y-5678848D01*
X15254307Y-5666400D01*
X15254000Y-5664975D01*
X15238125Y-5649100D01*
X15125700Y-5649100D01*
X15100300Y-5649100D01*
X15098300Y-5649100D01*
X15098300Y-5630207D01*
X15190500Y-5630207D01*
X15202948Y-5628981D01*
X15214918Y-5625350D01*
X15218005Y-5623700D01*
X15238125Y-5623700D01*
X15254000Y-5607825D01*
X15254307Y-5606400D01*
X15253081Y-5593952D01*
X15250790Y-5586400D01*
X15253081Y-5578848D01*
X15254307Y-5566400D01*
X15254307Y-5523968D01*
X15257849Y-5523620D01*
X15274531Y-5518559D01*
X15289906Y-5510341D01*
X15303382Y-5499282D01*
X15306153Y-5495904D01*
X15347764Y-5454293D01*
X15351142Y-5451522D01*
X15362201Y-5438046D01*
X15370419Y-5422671D01*
X15375479Y-5405989D01*
X15376760Y-5392988D01*
X15376760Y-5392987D01*
X15377188Y-5388640D01*
X15376760Y-5384294D01*
X15376760Y-5320367D01*
X15386082Y-5325350D01*
G36*
X14716420Y-5349598D02*
G01*
X14716420Y-5665126D01*
X14709624Y-5670704D01*
X14702420Y-5679482D01*
X14695216Y-5670704D01*
X14681759Y-5659659D01*
X14666405Y-5651453D01*
X14649745Y-5646399D01*
X14632420Y-5644693D01*
X14567420Y-5644693D01*
X14550094Y-5646399D01*
X14533435Y-5651453D01*
X14518081Y-5659659D01*
X14514460Y-5662631D01*
X14510839Y-5659659D01*
X14495485Y-5651453D01*
X14481787Y-5647298D01*
X14481787Y-5605620D01*
X14487383Y-5605620D01*
X14501150Y-5611323D01*
X14521146Y-5615300D01*
X14541534Y-5615300D01*
X14561530Y-5611323D01*
X14580366Y-5603520D01*
X14597317Y-5592194D01*
X14611734Y-5577777D01*
X14623060Y-5560826D01*
X14630863Y-5541990D01*
X14634840Y-5521994D01*
X14634840Y-5501606D01*
X14630863Y-5481610D01*
X14623060Y-5462774D01*
X14611734Y-5445823D01*
X14597317Y-5431406D01*
X14580366Y-5420080D01*
X14561530Y-5412277D01*
X14541534Y-5408300D01*
X14521146Y-5408300D01*
X14501150Y-5412277D01*
X14482314Y-5420080D01*
X14469533Y-5428620D01*
X14454104Y-5428620D01*
X14453429Y-5428066D01*
X14442398Y-5422170D01*
X14435641Y-5420120D01*
X14442398Y-5418070D01*
X14453429Y-5412174D01*
X14459222Y-5407420D01*
X14465605Y-5407420D01*
X14481480Y-5391545D01*
X14481787Y-5384120D01*
X14480561Y-5371672D01*
X14480545Y-5371620D01*
X14480561Y-5371568D01*
X14481787Y-5359120D01*
X14481787Y-5354471D01*
X14488504Y-5347753D01*
X14491882Y-5344982D01*
X14502941Y-5331506D01*
X14511159Y-5316131D01*
X14516219Y-5299449D01*
X14517500Y-5286448D01*
X14517500Y-5286447D01*
X14517928Y-5282100D01*
X14517500Y-5277754D01*
X14517500Y-5267034D01*
X14524296Y-5261456D01*
X14535340Y-5247999D01*
X14538461Y-5242160D01*
X14608982Y-5242160D01*
X14716420Y-5349598D01*
G37*
X14716420Y-5349598D02*
X14716420Y-5665126D01*
X14709624Y-5670704D01*
X14702420Y-5679482D01*
X14695216Y-5670704D01*
X14681759Y-5659659D01*
X14666405Y-5651453D01*
X14649745Y-5646399D01*
X14632420Y-5644693D01*
X14567420Y-5644693D01*
X14550094Y-5646399D01*
X14533435Y-5651453D01*
X14518081Y-5659659D01*
X14514460Y-5662631D01*
X14510839Y-5659659D01*
X14495485Y-5651453D01*
X14481787Y-5647298D01*
X14481787Y-5605620D01*
X14487383Y-5605620D01*
X14501150Y-5611323D01*
X14521146Y-5615300D01*
X14541534Y-5615300D01*
X14561530Y-5611323D01*
X14580366Y-5603520D01*
X14597317Y-5592194D01*
X14611734Y-5577777D01*
X14623060Y-5560826D01*
X14630863Y-5541990D01*
X14634840Y-5521994D01*
X14634840Y-5501606D01*
X14630863Y-5481610D01*
X14623060Y-5462774D01*
X14611734Y-5445823D01*
X14597317Y-5431406D01*
X14580366Y-5420080D01*
X14561530Y-5412277D01*
X14541534Y-5408300D01*
X14521146Y-5408300D01*
X14501150Y-5412277D01*
X14482314Y-5420080D01*
X14469533Y-5428620D01*
X14454104Y-5428620D01*
X14453429Y-5428066D01*
X14442398Y-5422170D01*
X14435641Y-5420120D01*
X14442398Y-5418070D01*
X14453429Y-5412174D01*
X14459222Y-5407420D01*
X14465605Y-5407420D01*
X14481480Y-5391545D01*
X14481787Y-5384120D01*
X14480561Y-5371672D01*
X14480545Y-5371620D01*
X14480561Y-5371568D01*
X14481787Y-5359120D01*
X14481787Y-5354471D01*
X14488504Y-5347753D01*
X14491882Y-5344982D01*
X14502941Y-5331506D01*
X14511159Y-5316131D01*
X14516219Y-5299449D01*
X14517500Y-5286448D01*
X14517500Y-5286447D01*
X14517928Y-5282100D01*
X14517500Y-5277754D01*
X14517500Y-5267034D01*
X14524296Y-5261456D01*
X14535340Y-5247999D01*
X14538461Y-5242160D01*
X14608982Y-5242160D01*
X14716420Y-5349598D01*
G36*
X13637490Y-4668520D02*
G01*
X13639490Y-4668520D01*
X13639490Y-4693920D01*
X13637490Y-4693920D01*
X13637490Y-4798845D01*
X13653365Y-4814720D01*
X13673540Y-4815027D01*
X13685988Y-4813801D01*
X13697958Y-4810170D01*
X13708989Y-4804274D01*
X13718658Y-4796339D01*
X13725039Y-4788564D01*
X13725561Y-4789199D01*
X13738924Y-4800166D01*
X13754169Y-4808315D01*
X13770711Y-4813333D01*
X13787915Y-4815027D01*
X13836665Y-4815027D01*
X13853868Y-4813333D01*
X13870411Y-4808315D01*
X13885656Y-4800166D01*
X13893525Y-4793709D01*
X13895781Y-4795561D01*
X13911135Y-4803767D01*
X13927431Y-4808711D01*
X13848369Y-4887773D01*
X13784360Y-4887773D01*
X13767034Y-4889479D01*
X13750375Y-4894533D01*
X13735021Y-4902740D01*
X13721564Y-4913784D01*
X13721026Y-4914439D01*
X13714478Y-4906462D01*
X13704809Y-4898526D01*
X13693778Y-4892630D01*
X13681808Y-4888999D01*
X13669360Y-4887773D01*
X13640435Y-4888080D01*
X13624560Y-4903955D01*
X13624560Y-5008880D01*
X13626560Y-5008880D01*
X13626560Y-5034280D01*
X13624560Y-5034280D01*
X13624560Y-5139205D01*
X13640435Y-5155080D01*
X13669360Y-5155387D01*
X13681808Y-5154161D01*
X13693778Y-5150530D01*
X13704809Y-5144634D01*
X13714478Y-5136699D01*
X13721026Y-5128721D01*
X13721564Y-5129376D01*
X13728360Y-5134954D01*
X13728360Y-5260382D01*
X13718759Y-5269983D01*
X13711618Y-5261282D01*
X13701949Y-5253346D01*
X13690918Y-5247450D01*
X13678948Y-5243819D01*
X13666500Y-5242593D01*
X13617575Y-5242900D01*
X13601700Y-5258775D01*
X13601700Y-5323700D01*
X13603700Y-5323700D01*
X13603700Y-5342593D01*
X13511500Y-5342593D01*
X13499052Y-5343819D01*
X13487082Y-5347450D01*
X13486240Y-5347900D01*
X13465847Y-5347900D01*
X13461500Y-5347472D01*
X13457153Y-5347900D01*
X13457152Y-5347900D01*
X13444151Y-5349181D01*
X13427469Y-5354241D01*
X13412094Y-5362459D01*
X13401995Y-5370747D01*
X13401995Y-5370747D01*
X13398618Y-5373518D01*
X13395847Y-5376895D01*
X13333915Y-5438827D01*
X13330538Y-5441598D01*
X13327767Y-5444975D01*
X13327767Y-5444975D01*
X13319479Y-5455074D01*
X13311261Y-5470449D01*
X13306200Y-5487131D01*
X13304492Y-5504480D01*
X13304920Y-5508828D01*
X13304920Y-5644114D01*
X13303948Y-5643819D01*
X13291500Y-5642593D01*
X13290000Y-5642593D01*
X13290000Y-5330207D01*
X13291500Y-5330207D01*
X13303948Y-5328981D01*
X13315918Y-5325350D01*
X13326949Y-5319454D01*
X13336618Y-5311519D01*
X13340819Y-5306400D01*
X13447693Y-5306400D01*
X13448000Y-5307825D01*
X13463875Y-5323700D01*
X13576300Y-5323700D01*
X13576300Y-5258775D01*
X13560425Y-5242900D01*
X13511500Y-5242593D01*
X13499052Y-5243819D01*
X13487082Y-5247450D01*
X13476051Y-5253346D01*
X13466381Y-5261282D01*
X13458446Y-5270951D01*
X13452550Y-5281982D01*
X13448919Y-5293952D01*
X13447693Y-5306400D01*
X13340819Y-5306400D01*
X13344554Y-5301849D01*
X13350450Y-5290818D01*
X13354081Y-5278848D01*
X13355307Y-5266400D01*
X13355307Y-5146400D01*
X13354081Y-5133952D01*
X13350450Y-5121982D01*
X13344554Y-5110951D01*
X13336618Y-5101282D01*
X13326949Y-5093346D01*
X13315918Y-5087450D01*
X13303948Y-5083819D01*
X13291500Y-5082593D01*
X13147000Y-5082593D01*
X13147000Y-4996503D01*
X13173403Y-5022906D01*
X13214923Y-5050649D01*
X13261057Y-5069758D01*
X13310032Y-5079500D01*
X13359968Y-5079500D01*
X13408943Y-5069758D01*
X13455077Y-5050649D01*
X13490860Y-5026740D01*
X13490860Y-5034280D01*
X13506735Y-5034280D01*
X13490860Y-5050155D01*
X13490553Y-5091580D01*
X13491779Y-5104028D01*
X13495410Y-5115998D01*
X13501306Y-5127029D01*
X13509241Y-5136699D01*
X13518911Y-5144634D01*
X13529942Y-5150530D01*
X13541912Y-5154161D01*
X13554360Y-5155387D01*
X13583285Y-5155080D01*
X13599160Y-5139205D01*
X13599160Y-5034280D01*
X13597160Y-5034280D01*
X13597160Y-5008880D01*
X13599160Y-5008880D01*
X13599160Y-4903955D01*
X13583285Y-4888080D01*
X13581122Y-4888057D01*
X13588500Y-4850968D01*
X13588500Y-4814838D01*
X13596215Y-4814720D01*
X13612090Y-4798845D01*
X13612090Y-4693920D01*
X13610090Y-4693920D01*
X13610090Y-4668520D01*
X13612090Y-4668520D01*
X13612090Y-4666520D01*
X13637490Y-4666520D01*
X13637490Y-4668520D01*
G37*
X13637490Y-4668520D02*
X13639490Y-4668520D01*
X13639490Y-4693920D01*
X13637490Y-4693920D01*
X13637490Y-4798845D01*
X13653365Y-4814720D01*
X13673540Y-4815027D01*
X13685988Y-4813801D01*
X13697958Y-4810170D01*
X13708989Y-4804274D01*
X13718658Y-4796339D01*
X13725039Y-4788564D01*
X13725561Y-4789199D01*
X13738924Y-4800166D01*
X13754169Y-4808315D01*
X13770711Y-4813333D01*
X13787915Y-4815027D01*
X13836665Y-4815027D01*
X13853868Y-4813333D01*
X13870411Y-4808315D01*
X13885656Y-4800166D01*
X13893525Y-4793709D01*
X13895781Y-4795561D01*
X13911135Y-4803767D01*
X13927431Y-4808711D01*
X13848369Y-4887773D01*
X13784360Y-4887773D01*
X13767034Y-4889479D01*
X13750375Y-4894533D01*
X13735021Y-4902740D01*
X13721564Y-4913784D01*
X13721026Y-4914439D01*
X13714478Y-4906462D01*
X13704809Y-4898526D01*
X13693778Y-4892630D01*
X13681808Y-4888999D01*
X13669360Y-4887773D01*
X13640435Y-4888080D01*
X13624560Y-4903955D01*
X13624560Y-5008880D01*
X13626560Y-5008880D01*
X13626560Y-5034280D01*
X13624560Y-5034280D01*
X13624560Y-5139205D01*
X13640435Y-5155080D01*
X13669360Y-5155387D01*
X13681808Y-5154161D01*
X13693778Y-5150530D01*
X13704809Y-5144634D01*
X13714478Y-5136699D01*
X13721026Y-5128721D01*
X13721564Y-5129376D01*
X13728360Y-5134954D01*
X13728360Y-5260382D01*
X13718759Y-5269983D01*
X13711618Y-5261282D01*
X13701949Y-5253346D01*
X13690918Y-5247450D01*
X13678948Y-5243819D01*
X13666500Y-5242593D01*
X13617575Y-5242900D01*
X13601700Y-5258775D01*
X13601700Y-5323700D01*
X13603700Y-5323700D01*
X13603700Y-5342593D01*
X13511500Y-5342593D01*
X13499052Y-5343819D01*
X13487082Y-5347450D01*
X13486240Y-5347900D01*
X13465847Y-5347900D01*
X13461500Y-5347472D01*
X13457153Y-5347900D01*
X13457152Y-5347900D01*
X13444151Y-5349181D01*
X13427469Y-5354241D01*
X13412094Y-5362459D01*
X13401995Y-5370747D01*
X13401995Y-5370747D01*
X13398618Y-5373518D01*
X13395847Y-5376895D01*
X13333915Y-5438827D01*
X13330538Y-5441598D01*
X13327767Y-5444975D01*
X13327767Y-5444975D01*
X13319479Y-5455074D01*
X13311261Y-5470449D01*
X13306200Y-5487131D01*
X13304492Y-5504480D01*
X13304920Y-5508828D01*
X13304920Y-5644114D01*
X13303948Y-5643819D01*
X13291500Y-5642593D01*
X13290000Y-5642593D01*
X13290000Y-5330207D01*
X13291500Y-5330207D01*
X13303948Y-5328981D01*
X13315918Y-5325350D01*
X13326949Y-5319454D01*
X13336618Y-5311519D01*
X13340819Y-5306400D01*
X13447693Y-5306400D01*
X13448000Y-5307825D01*
X13463875Y-5323700D01*
X13576300Y-5323700D01*
X13576300Y-5258775D01*
X13560425Y-5242900D01*
X13511500Y-5242593D01*
X13499052Y-5243819D01*
X13487082Y-5247450D01*
X13476051Y-5253346D01*
X13466381Y-5261282D01*
X13458446Y-5270951D01*
X13452550Y-5281982D01*
X13448919Y-5293952D01*
X13447693Y-5306400D01*
X13340819Y-5306400D01*
X13344554Y-5301849D01*
X13350450Y-5290818D01*
X13354081Y-5278848D01*
X13355307Y-5266400D01*
X13355307Y-5146400D01*
X13354081Y-5133952D01*
X13350450Y-5121982D01*
X13344554Y-5110951D01*
X13336618Y-5101282D01*
X13326949Y-5093346D01*
X13315918Y-5087450D01*
X13303948Y-5083819D01*
X13291500Y-5082593D01*
X13147000Y-5082593D01*
X13147000Y-4996503D01*
X13173403Y-5022906D01*
X13214923Y-5050649D01*
X13261057Y-5069758D01*
X13310032Y-5079500D01*
X13359968Y-5079500D01*
X13408943Y-5069758D01*
X13455077Y-5050649D01*
X13490860Y-5026740D01*
X13490860Y-5034280D01*
X13506735Y-5034280D01*
X13490860Y-5050155D01*
X13490553Y-5091580D01*
X13491779Y-5104028D01*
X13495410Y-5115998D01*
X13501306Y-5127029D01*
X13509241Y-5136699D01*
X13518911Y-5144634D01*
X13529942Y-5150530D01*
X13541912Y-5154161D01*
X13554360Y-5155387D01*
X13583285Y-5155080D01*
X13599160Y-5139205D01*
X13599160Y-5034280D01*
X13597160Y-5034280D01*
X13597160Y-5008880D01*
X13599160Y-5008880D01*
X13599160Y-4903955D01*
X13583285Y-4888080D01*
X13581122Y-4888057D01*
X13588500Y-4850968D01*
X13588500Y-4814838D01*
X13596215Y-4814720D01*
X13612090Y-4798845D01*
X13612090Y-4693920D01*
X13610090Y-4693920D01*
X13610090Y-4668520D01*
X13612090Y-4668520D01*
X13612090Y-4666520D01*
X13637490Y-4666520D01*
X13637490Y-4668520D01*
G36*
X14350736Y-4798889D02*
G01*
X14353940Y-4802794D01*
X14353940Y-5031196D01*
X14347161Y-5034820D01*
X14333704Y-5045864D01*
X14333166Y-5046519D01*
X14326618Y-5038542D01*
X14316949Y-5030606D01*
X14305918Y-5024710D01*
X14293948Y-5021079D01*
X14281500Y-5019853D01*
X14252575Y-5020160D01*
X14236700Y-5036035D01*
X14236700Y-5140960D01*
X14238700Y-5140960D01*
X14238700Y-5166360D01*
X14236700Y-5166360D01*
X14236700Y-5168360D01*
X14211300Y-5168360D01*
X14211300Y-5166360D01*
X14118875Y-5166360D01*
X14103000Y-5182235D01*
X14102693Y-5223660D01*
X14103919Y-5236108D01*
X14107550Y-5248078D01*
X14113446Y-5259109D01*
X14121381Y-5268779D01*
X14131051Y-5276714D01*
X14142082Y-5282610D01*
X14154052Y-5286241D01*
X14154257Y-5286261D01*
X14154173Y-5287120D01*
X14154173Y-5359120D01*
X14155399Y-5371568D01*
X14155414Y-5371620D01*
X14155399Y-5371672D01*
X14154173Y-5384120D01*
X14154173Y-5428620D01*
X14090946Y-5428620D01*
X14086600Y-5428192D01*
X14082253Y-5428620D01*
X14082252Y-5428620D01*
X14075793Y-5429256D01*
X14076040Y-5428014D01*
X14076040Y-5407626D01*
X14072063Y-5387630D01*
X14064260Y-5368794D01*
X14052934Y-5351843D01*
X14038517Y-5337426D01*
X14021566Y-5326100D01*
X14002730Y-5318297D01*
X13982734Y-5314320D01*
X13962346Y-5314320D01*
X13942350Y-5318297D01*
X13923514Y-5326100D01*
X13906563Y-5337426D01*
X13892146Y-5351843D01*
X13880819Y-5368794D01*
X13873017Y-5387630D01*
X13869040Y-5407626D01*
X13869040Y-5428014D01*
X13873017Y-5448010D01*
X13880819Y-5466846D01*
X13884040Y-5471666D01*
X13884040Y-5487842D01*
X13875198Y-5496684D01*
X13864974Y-5481383D01*
X13850557Y-5466966D01*
X13833606Y-5455640D01*
X13814770Y-5447837D01*
X13795128Y-5443930D01*
X13876365Y-5362693D01*
X13879742Y-5359922D01*
X13882927Y-5356041D01*
X13890801Y-5346446D01*
X13890801Y-5346446D01*
X13899019Y-5331072D01*
X13904079Y-5314389D01*
X13905360Y-5301388D01*
X13905360Y-5301387D01*
X13905788Y-5297040D01*
X13905360Y-5292694D01*
X13905360Y-5134954D01*
X13912156Y-5129376D01*
X13923200Y-5115919D01*
X13931407Y-5100565D01*
X13936461Y-5083906D01*
X13936485Y-5083660D01*
X14102693Y-5083660D01*
X14103000Y-5125085D01*
X14118875Y-5140960D01*
X14211300Y-5140960D01*
X14211300Y-5036035D01*
X14195425Y-5020160D01*
X14166500Y-5019853D01*
X14154052Y-5021079D01*
X14142082Y-5024710D01*
X14131051Y-5030606D01*
X14121381Y-5038542D01*
X14113446Y-5048211D01*
X14107550Y-5059242D01*
X14103919Y-5071212D01*
X14102693Y-5083660D01*
X13936485Y-5083660D01*
X13938167Y-5066580D01*
X13938167Y-5048291D01*
X14175931Y-4810527D01*
X14215120Y-4810527D01*
X14232445Y-4808821D01*
X14249105Y-4803767D01*
X14264459Y-4795561D01*
X14264874Y-4795220D01*
X14348284Y-4795220D01*
X14350736Y-4798889D01*
G37*
X14350736Y-4798889D02*
X14353940Y-4802794D01*
X14353940Y-5031196D01*
X14347161Y-5034820D01*
X14333704Y-5045864D01*
X14333166Y-5046519D01*
X14326618Y-5038542D01*
X14316949Y-5030606D01*
X14305918Y-5024710D01*
X14293948Y-5021079D01*
X14281500Y-5019853D01*
X14252575Y-5020160D01*
X14236700Y-5036035D01*
X14236700Y-5140960D01*
X14238700Y-5140960D01*
X14238700Y-5166360D01*
X14236700Y-5166360D01*
X14236700Y-5168360D01*
X14211300Y-5168360D01*
X14211300Y-5166360D01*
X14118875Y-5166360D01*
X14103000Y-5182235D01*
X14102693Y-5223660D01*
X14103919Y-5236108D01*
X14107550Y-5248078D01*
X14113446Y-5259109D01*
X14121381Y-5268779D01*
X14131051Y-5276714D01*
X14142082Y-5282610D01*
X14154052Y-5286241D01*
X14154257Y-5286261D01*
X14154173Y-5287120D01*
X14154173Y-5359120D01*
X14155399Y-5371568D01*
X14155414Y-5371620D01*
X14155399Y-5371672D01*
X14154173Y-5384120D01*
X14154173Y-5428620D01*
X14090946Y-5428620D01*
X14086600Y-5428192D01*
X14082253Y-5428620D01*
X14082252Y-5428620D01*
X14075793Y-5429256D01*
X14076040Y-5428014D01*
X14076040Y-5407626D01*
X14072063Y-5387630D01*
X14064260Y-5368794D01*
X14052934Y-5351843D01*
X14038517Y-5337426D01*
X14021566Y-5326100D01*
X14002730Y-5318297D01*
X13982734Y-5314320D01*
X13962346Y-5314320D01*
X13942350Y-5318297D01*
X13923514Y-5326100D01*
X13906563Y-5337426D01*
X13892146Y-5351843D01*
X13880819Y-5368794D01*
X13873017Y-5387630D01*
X13869040Y-5407626D01*
X13869040Y-5428014D01*
X13873017Y-5448010D01*
X13880819Y-5466846D01*
X13884040Y-5471666D01*
X13884040Y-5487842D01*
X13875198Y-5496684D01*
X13864974Y-5481383D01*
X13850557Y-5466966D01*
X13833606Y-5455640D01*
X13814770Y-5447837D01*
X13795128Y-5443930D01*
X13876365Y-5362693D01*
X13879742Y-5359922D01*
X13882927Y-5356041D01*
X13890801Y-5346446D01*
X13890801Y-5346446D01*
X13899019Y-5331072D01*
X13904079Y-5314389D01*
X13905360Y-5301388D01*
X13905360Y-5301387D01*
X13905788Y-5297040D01*
X13905360Y-5292694D01*
X13905360Y-5134954D01*
X13912156Y-5129376D01*
X13923200Y-5115919D01*
X13931407Y-5100565D01*
X13936461Y-5083906D01*
X13936485Y-5083660D01*
X14102693Y-5083660D01*
X14103000Y-5125085D01*
X14118875Y-5140960D01*
X14211300Y-5140960D01*
X14211300Y-5036035D01*
X14195425Y-5020160D01*
X14166500Y-5019853D01*
X14154052Y-5021079D01*
X14142082Y-5024710D01*
X14131051Y-5030606D01*
X14121381Y-5038542D01*
X14113446Y-5048211D01*
X14107550Y-5059242D01*
X14103919Y-5071212D01*
X14102693Y-5083660D01*
X13936485Y-5083660D01*
X13938167Y-5066580D01*
X13938167Y-5048291D01*
X14175931Y-4810527D01*
X14215120Y-4810527D01*
X14232445Y-4808821D01*
X14249105Y-4803767D01*
X14264459Y-4795561D01*
X14264874Y-4795220D01*
X14348284Y-4795220D01*
X14350736Y-4798889D01*
D21*
X14538960Y-5369560D03*
X13609320Y-5189220D03*
X14241780Y-4907280D03*
X15354300Y-5565140D03*
X14922500Y-5331460D03*
X14531340Y-5511800D03*
X13972540Y-5417820D03*
X13784580Y-5547360D03*
X14152880Y-5631180D03*
X14963140Y-5440680D03*
X15367000Y-6096000D03*
X14835000Y-6131000D03*
X14581000Y-6131000D03*
X14327000Y-6131000D03*
X14073000Y-6131000D03*
X13819000Y-6131000D03*
X13335000Y-6096000D03*
X13335000Y-4826000D03*
X15367000Y-4826000D03*
M02*
