%TF.GenerationSoftware,KiCad,Pcbnew,5.1.5+dfsg1-2~bpo10+1*%
%TF.CreationDate,Date%
%TF.ProjectId,Gesture Sensor,47657374-7572-4652-9053-656e736f722e,rev?*%
%TF.SameCoordinates,Original*%
%TF.FileFunction,Legend,Top*%
%TF.FilePolarity,Positive*%
%FSLAX45Y45*%
G04 Gerber Fmt 4.5, Leading zero omitted, Abs format (unit mm)*
G04 Created by KiCad*
%MOMM*%
%LPD*%
G04 APERTURE LIST*
%ADD10C,0.150000*%
%ADD11C,0.050000*%
%ADD12C,0.300000*%
%ADD13C,0.127000*%
%ADD14C,0.120000*%
%ADD15C,0.203200*%
%ADD16C,0.100000*%
%ADD17R,1.650000X0.700000*%
%ADD18R,1.900000X1.300000*%
%ADD19C,3.900000*%
%ADD20O,1.800000X1.800000*%
%ADD21R,1.800000X1.800000*%
%ADD22R,0.700000X0.820000*%
G04 APERTURE END LIST*
D10*
X14888058Y-5855448D02*
X14888058Y-5793543D01*
X14926153Y-5826876D01*
X14926153Y-5812590D01*
X14930915Y-5803067D01*
X14935677Y-5798305D01*
X14945201Y-5793543D01*
X14969010Y-5793543D01*
X14978534Y-5798305D01*
X14983296Y-5803067D01*
X14988058Y-5812590D01*
X14988058Y-5841162D01*
X14983296Y-5850686D01*
X14978534Y-5855448D01*
X14978534Y-5750686D02*
X14983296Y-5745924D01*
X14988058Y-5750686D01*
X14983296Y-5755448D01*
X14978534Y-5750686D01*
X14988058Y-5750686D01*
X14888058Y-5712590D02*
X14888058Y-5650686D01*
X14926153Y-5684019D01*
X14926153Y-5669733D01*
X14930915Y-5660210D01*
X14935677Y-5655448D01*
X14945201Y-5650686D01*
X14969010Y-5650686D01*
X14978534Y-5655448D01*
X14983296Y-5660210D01*
X14988058Y-5669733D01*
X14988058Y-5698305D01*
X14983296Y-5707829D01*
X14978534Y-5712590D01*
X14921391Y-5617352D02*
X14988058Y-5593543D01*
X14921391Y-5569733D01*
X14888058Y-5436400D02*
X14888058Y-5417352D01*
X14892820Y-5407829D01*
X14902344Y-5398305D01*
X14921391Y-5393543D01*
X14954725Y-5393543D01*
X14973772Y-5398305D01*
X14983296Y-5407829D01*
X14988058Y-5417352D01*
X14988058Y-5436400D01*
X14983296Y-5445924D01*
X14973772Y-5455448D01*
X14954725Y-5460210D01*
X14921391Y-5460210D01*
X14902344Y-5455448D01*
X14892820Y-5445924D01*
X14888058Y-5436400D01*
X14988058Y-5350686D02*
X14888058Y-5350686D01*
X14988058Y-5293543D01*
X14888058Y-5293543D01*
X14988058Y-5198305D02*
X14988058Y-5245924D01*
X14888058Y-5245924D01*
X14940439Y-5145924D02*
X14988058Y-5145924D01*
X14888058Y-5179257D02*
X14940439Y-5145924D01*
X14888058Y-5112591D01*
D11*
X13335000Y-6350000D02*
G75*
G02X13081000Y-6096000I0J254000D01*
G01*
X15367000Y-4572000D02*
G75*
G02X15621000Y-4826000I0J-254000D01*
G01*
X15621000Y-6096000D02*
G75*
G02X15367000Y-6350000I-254000J0D01*
G01*
X13081000Y-4826000D02*
G75*
G02X13335000Y-4572000I254000J0D01*
G01*
X13335000Y-4572000D02*
X15367000Y-4572000D01*
X13081000Y-4826000D02*
X13081000Y-6096000D01*
X15621000Y-4826000D02*
X15621000Y-6096000D01*
X13335000Y-6350000D02*
X15367000Y-6350000D01*
D12*
X13637500Y-5241400D02*
G75*
G03X13637500Y-5241400I-10000J0D01*
G01*
D13*
X13556500Y-5266400D02*
X13556500Y-5186400D01*
X13556500Y-5186400D02*
X13329000Y-5186400D01*
X13556500Y-5706400D02*
X13556500Y-5786400D01*
X13556500Y-5786400D02*
X13329000Y-5786400D01*
X13131500Y-5306400D02*
X13131500Y-5666400D01*
D12*
X15084500Y-5731400D02*
G75*
G03X15084500Y-5731400I-10000J0D01*
G01*
D13*
X15145500Y-5706400D02*
X15145500Y-5786400D01*
X15145500Y-5786400D02*
X15373000Y-5786400D01*
X15145500Y-5266400D02*
X15145500Y-5186400D01*
X15145500Y-5186400D02*
X15373000Y-5186400D01*
X15570500Y-5666400D02*
X15570500Y-5306400D01*
D14*
X14106245Y-4605720D02*
X14053995Y-4605720D01*
X14106245Y-4747720D02*
X14053995Y-4747720D01*
X14676295Y-5849500D02*
X14728545Y-5849500D01*
X14676295Y-5707500D02*
X14728545Y-5707500D01*
X14902300Y-4738915D02*
X14902300Y-4791165D01*
X15044300Y-4738915D02*
X15044300Y-4791165D01*
X14704180Y-4738915D02*
X14704180Y-4791165D01*
X14846180Y-4738915D02*
X14846180Y-4791165D01*
X13925195Y-5849500D02*
X13977445Y-5849500D01*
X13925195Y-5707500D02*
X13977445Y-5707500D01*
X14352625Y-5707500D02*
X14300375Y-5707500D01*
X14352625Y-5849500D02*
X14300375Y-5849500D01*
X14352625Y-5082660D02*
X14300375Y-5082660D01*
X14352625Y-5224660D02*
X14300375Y-5224660D01*
X13740485Y-4950580D02*
X13688235Y-4950580D01*
X13740485Y-5092580D02*
X13688235Y-5092580D01*
X14968000Y-6264000D02*
X14968000Y-5998000D01*
X13946000Y-6264000D02*
X14968000Y-6264000D01*
X13946000Y-5998000D02*
X14968000Y-5998000D01*
X13946000Y-6264000D02*
X13946000Y-5998000D01*
X13819000Y-6264000D02*
X13686000Y-6264000D01*
X13686000Y-6264000D02*
X13686000Y-6131000D01*
X14647440Y-4676720D02*
X14647440Y-4736720D01*
X14437440Y-4606720D02*
X14577440Y-4606720D01*
X14367440Y-4736720D02*
X14367440Y-4676720D01*
X14577440Y-4806720D02*
X14437440Y-4806720D01*
X14647440Y-4736720D02*
G75*
G02X14577440Y-4806720I-70000J0D01*
G01*
X14577440Y-4606720D02*
G75*
G02X14647440Y-4676720I0J-70000D01*
G01*
X14367440Y-4676720D02*
G75*
G02X14437440Y-4606720I70000J0D01*
G01*
X14437440Y-4806720D02*
G75*
G02X14367440Y-4736720I0J70000D01*
G01*
X13818540Y-4585220D02*
X13550040Y-4585220D01*
X13550040Y-4585220D02*
X13550040Y-4777220D01*
X13550040Y-4777220D02*
X13818540Y-4777220D01*
D15*
X14438980Y-5670620D02*
X14196980Y-5670620D01*
D16*
X14178980Y-5630820D02*
G75*
G03X14178980Y-5630820I-25400J0D01*
G01*
D15*
X14438980Y-5266620D02*
X14196980Y-5266620D01*
X14438980Y-5670620D02*
X14438980Y-5266620D01*
X14196980Y-5670620D02*
X14196980Y-5266620D01*
D10*
X14067620Y-4867549D02*
X14042620Y-4831834D01*
X14024763Y-4867549D02*
X14024763Y-4792549D01*
X14053334Y-4792549D01*
X14060477Y-4796120D01*
X14064048Y-4799691D01*
X14067620Y-4806834D01*
X14067620Y-4817549D01*
X14064048Y-4824691D01*
X14060477Y-4828263D01*
X14053334Y-4831834D01*
X14024763Y-4831834D01*
X14135477Y-4792549D02*
X14099763Y-4792549D01*
X14096191Y-4828263D01*
X14099763Y-4824691D01*
X14106906Y-4821120D01*
X14124763Y-4821120D01*
X14131906Y-4824691D01*
X14135477Y-4828263D01*
X14139048Y-4835406D01*
X14139048Y-4853263D01*
X14135477Y-4860406D01*
X14131906Y-4863977D01*
X14124763Y-4867549D01*
X14106906Y-4867549D01*
X14099763Y-4863977D01*
X14096191Y-4860406D01*
X14689920Y-5954668D02*
X14664920Y-5918954D01*
X14647063Y-5954668D02*
X14647063Y-5879668D01*
X14675634Y-5879668D01*
X14682777Y-5883240D01*
X14686348Y-5886811D01*
X14689920Y-5893954D01*
X14689920Y-5904668D01*
X14686348Y-5911811D01*
X14682777Y-5915383D01*
X14675634Y-5918954D01*
X14647063Y-5918954D01*
X14754206Y-5904668D02*
X14754206Y-5954668D01*
X14736348Y-5876097D02*
X14718491Y-5929668D01*
X14764920Y-5929668D01*
X14950640Y-5042809D02*
X14925640Y-5007094D01*
X14907783Y-5042809D02*
X14907783Y-4967809D01*
X14936354Y-4967809D01*
X14943497Y-4971380D01*
X14947068Y-4974951D01*
X14950640Y-4982094D01*
X14950640Y-4992809D01*
X14947068Y-4999951D01*
X14943497Y-5003523D01*
X14936354Y-5007094D01*
X14907783Y-5007094D01*
X14975640Y-4967809D02*
X15022068Y-4967809D01*
X14997068Y-4996380D01*
X15007783Y-4996380D01*
X15014926Y-4999951D01*
X15018497Y-5003523D01*
X15022068Y-5010666D01*
X15022068Y-5028523D01*
X15018497Y-5035666D01*
X15014926Y-5039237D01*
X15007783Y-5042809D01*
X14986354Y-5042809D01*
X14979211Y-5039237D01*
X14975640Y-5035666D01*
X14762680Y-5042809D02*
X14737680Y-5007094D01*
X14719823Y-5042809D02*
X14719823Y-4967809D01*
X14748394Y-4967809D01*
X14755537Y-4971380D01*
X14759108Y-4974951D01*
X14762680Y-4982094D01*
X14762680Y-4992809D01*
X14759108Y-4999951D01*
X14755537Y-5003523D01*
X14748394Y-5007094D01*
X14719823Y-5007094D01*
X14791251Y-4974951D02*
X14794823Y-4971380D01*
X14801966Y-4967809D01*
X14819823Y-4967809D01*
X14826966Y-4971380D01*
X14830537Y-4974951D01*
X14834108Y-4982094D01*
X14834108Y-4989237D01*
X14830537Y-4999951D01*
X14787680Y-5042809D01*
X14834108Y-5042809D01*
X13938820Y-5957208D02*
X13913820Y-5921494D01*
X13895963Y-5957208D02*
X13895963Y-5882208D01*
X13924534Y-5882208D01*
X13931677Y-5885780D01*
X13935248Y-5889351D01*
X13938820Y-5896494D01*
X13938820Y-5907208D01*
X13935248Y-5914351D01*
X13931677Y-5917923D01*
X13924534Y-5921494D01*
X13895963Y-5921494D01*
X14010248Y-5957208D02*
X13967391Y-5957208D01*
X13988820Y-5957208D02*
X13988820Y-5882208D01*
X13981677Y-5892923D01*
X13974534Y-5900066D01*
X13967391Y-5903637D01*
X14314000Y-5950066D02*
X14310428Y-5953637D01*
X14299714Y-5957208D01*
X14292571Y-5957208D01*
X14281857Y-5953637D01*
X14274714Y-5946494D01*
X14271143Y-5939351D01*
X14267571Y-5925066D01*
X14267571Y-5914351D01*
X14271143Y-5900066D01*
X14274714Y-5892923D01*
X14281857Y-5885780D01*
X14292571Y-5882208D01*
X14299714Y-5882208D01*
X14310428Y-5885780D01*
X14314000Y-5889351D01*
X14339000Y-5882208D02*
X14385428Y-5882208D01*
X14360428Y-5910780D01*
X14371143Y-5910780D01*
X14378286Y-5914351D01*
X14381857Y-5917923D01*
X14385428Y-5925066D01*
X14385428Y-5942923D01*
X14381857Y-5950066D01*
X14378286Y-5953637D01*
X14371143Y-5957208D01*
X14349714Y-5957208D01*
X14342571Y-5953637D01*
X14339000Y-5950066D01*
X14569640Y-5172826D02*
X14566068Y-5176397D01*
X14555354Y-5179969D01*
X14548211Y-5179969D01*
X14537497Y-5176397D01*
X14530354Y-5169254D01*
X14526783Y-5162111D01*
X14523211Y-5147826D01*
X14523211Y-5137111D01*
X14526783Y-5122826D01*
X14530354Y-5115683D01*
X14537497Y-5108540D01*
X14548211Y-5104969D01*
X14555354Y-5104969D01*
X14566068Y-5108540D01*
X14569640Y-5112111D01*
X14598211Y-5112111D02*
X14601783Y-5108540D01*
X14608926Y-5104969D01*
X14626783Y-5104969D01*
X14633926Y-5108540D01*
X14637497Y-5112111D01*
X14641068Y-5119254D01*
X14641068Y-5126397D01*
X14637497Y-5137111D01*
X14594640Y-5179969D01*
X14641068Y-5179969D01*
X13952420Y-5055986D02*
X13948848Y-5059557D01*
X13938134Y-5063129D01*
X13930991Y-5063129D01*
X13920277Y-5059557D01*
X13913134Y-5052414D01*
X13909563Y-5045271D01*
X13905991Y-5030986D01*
X13905991Y-5020271D01*
X13909563Y-5005986D01*
X13913134Y-4998843D01*
X13920277Y-4991700D01*
X13930991Y-4988129D01*
X13938134Y-4988129D01*
X13948848Y-4991700D01*
X13952420Y-4995271D01*
X14023848Y-5063129D02*
X13980991Y-5063129D01*
X14002420Y-5063129D02*
X14002420Y-4988129D01*
X13995277Y-4998843D01*
X13988134Y-5005986D01*
X13980991Y-5009557D01*
X13661183Y-4870089D02*
X13661183Y-4795089D01*
X13679040Y-4795089D01*
X13689754Y-4798660D01*
X13696897Y-4805803D01*
X13700468Y-4812946D01*
X13704040Y-4827231D01*
X13704040Y-4837946D01*
X13700468Y-4852231D01*
X13696897Y-4859374D01*
X13689754Y-4866517D01*
X13679040Y-4870089D01*
X13661183Y-4870089D01*
X13775468Y-4870089D02*
X13732611Y-4870089D01*
X13754040Y-4870089D02*
X13754040Y-4795089D01*
X13746897Y-4805803D01*
X13739754Y-4812946D01*
X13732611Y-4816517D01*
%LPC*%
D17*
X13589000Y-5636400D03*
X13589000Y-5536400D03*
X13589000Y-5436400D03*
X13589000Y-5336400D03*
D18*
X13201500Y-5206400D03*
X13201500Y-5766400D03*
D17*
X15113000Y-5336400D03*
X15113000Y-5436400D03*
X15113000Y-5536400D03*
X15113000Y-5636400D03*
D18*
X15500500Y-5766400D03*
X15500500Y-5206400D03*
D19*
X15367000Y-6096000D03*
D10*
G36*
X14015610Y-4601851D02*
G01*
X14018247Y-4602242D01*
X14020834Y-4602890D01*
X14023345Y-4603789D01*
X14025756Y-4604929D01*
X14028043Y-4606300D01*
X14030185Y-4607888D01*
X14032161Y-4609679D01*
X14033952Y-4611655D01*
X14035540Y-4613797D01*
X14036911Y-4616084D01*
X14038051Y-4618495D01*
X14038950Y-4621006D01*
X14039598Y-4623593D01*
X14039989Y-4626230D01*
X14040120Y-4628894D01*
X14040120Y-4724546D01*
X14039989Y-4727210D01*
X14039598Y-4729848D01*
X14038950Y-4732434D01*
X14038051Y-4734945D01*
X14036911Y-4737356D01*
X14035540Y-4739643D01*
X14033952Y-4741785D01*
X14032161Y-4743761D01*
X14030185Y-4745552D01*
X14028043Y-4747140D01*
X14025756Y-4748511D01*
X14023345Y-4749652D01*
X14020834Y-4750550D01*
X14018247Y-4751198D01*
X14015610Y-4751589D01*
X14012946Y-4751720D01*
X13942294Y-4751720D01*
X13939630Y-4751589D01*
X13936992Y-4751198D01*
X13934406Y-4750550D01*
X13931895Y-4749652D01*
X13929484Y-4748511D01*
X13927197Y-4747140D01*
X13925055Y-4745552D01*
X13923079Y-4743761D01*
X13921288Y-4741785D01*
X13919700Y-4739643D01*
X13918329Y-4737356D01*
X13917188Y-4734945D01*
X13916290Y-4732434D01*
X13915642Y-4729848D01*
X13915251Y-4727210D01*
X13915120Y-4724546D01*
X13915120Y-4628894D01*
X13915251Y-4626230D01*
X13915642Y-4623593D01*
X13916290Y-4621006D01*
X13917188Y-4618495D01*
X13918329Y-4616084D01*
X13919700Y-4613797D01*
X13921288Y-4611655D01*
X13923079Y-4609679D01*
X13925055Y-4607888D01*
X13927197Y-4606300D01*
X13929484Y-4604929D01*
X13931895Y-4603789D01*
X13934406Y-4602890D01*
X13936992Y-4602242D01*
X13939630Y-4601851D01*
X13942294Y-4601720D01*
X14012946Y-4601720D01*
X14015610Y-4601851D01*
G37*
G36*
X14220610Y-4601851D02*
G01*
X14223247Y-4602242D01*
X14225834Y-4602890D01*
X14228345Y-4603789D01*
X14230756Y-4604929D01*
X14233043Y-4606300D01*
X14235185Y-4607888D01*
X14237161Y-4609679D01*
X14238952Y-4611655D01*
X14240540Y-4613797D01*
X14241911Y-4616084D01*
X14243051Y-4618495D01*
X14243950Y-4621006D01*
X14244598Y-4623593D01*
X14244989Y-4626230D01*
X14245120Y-4628894D01*
X14245120Y-4724546D01*
X14244989Y-4727210D01*
X14244598Y-4729848D01*
X14243950Y-4732434D01*
X14243051Y-4734945D01*
X14241911Y-4737356D01*
X14240540Y-4739643D01*
X14238952Y-4741785D01*
X14237161Y-4743761D01*
X14235185Y-4745552D01*
X14233043Y-4747140D01*
X14230756Y-4748511D01*
X14228345Y-4749652D01*
X14225834Y-4750550D01*
X14223247Y-4751198D01*
X14220610Y-4751589D01*
X14217946Y-4751720D01*
X14147294Y-4751720D01*
X14144630Y-4751589D01*
X14141992Y-4751198D01*
X14139406Y-4750550D01*
X14136895Y-4749652D01*
X14134484Y-4748511D01*
X14132197Y-4747140D01*
X14130055Y-4745552D01*
X14128079Y-4743761D01*
X14126288Y-4741785D01*
X14124700Y-4739643D01*
X14123329Y-4737356D01*
X14122188Y-4734945D01*
X14121290Y-4732434D01*
X14120642Y-4729848D01*
X14120251Y-4727210D01*
X14120120Y-4724546D01*
X14120120Y-4628894D01*
X14120251Y-4626230D01*
X14120642Y-4623593D01*
X14121290Y-4621006D01*
X14122188Y-4618495D01*
X14123329Y-4616084D01*
X14124700Y-4613797D01*
X14126288Y-4611655D01*
X14128079Y-4609679D01*
X14130055Y-4607888D01*
X14132197Y-4606300D01*
X14134484Y-4604929D01*
X14136895Y-4603789D01*
X14139406Y-4602890D01*
X14141992Y-4602242D01*
X14144630Y-4601851D01*
X14147294Y-4601720D01*
X14217946Y-4601720D01*
X14220610Y-4601851D01*
G37*
G36*
X14842910Y-5703631D02*
G01*
X14845547Y-5704022D01*
X14848134Y-5704670D01*
X14850645Y-5705568D01*
X14853056Y-5706709D01*
X14855343Y-5708080D01*
X14857485Y-5709668D01*
X14859461Y-5711459D01*
X14861252Y-5713435D01*
X14862840Y-5715577D01*
X14864211Y-5717864D01*
X14865351Y-5720275D01*
X14866250Y-5722786D01*
X14866898Y-5725372D01*
X14867289Y-5728010D01*
X14867420Y-5730674D01*
X14867420Y-5826326D01*
X14867289Y-5828990D01*
X14866898Y-5831627D01*
X14866250Y-5834214D01*
X14865351Y-5836725D01*
X14864211Y-5839136D01*
X14862840Y-5841423D01*
X14861252Y-5843565D01*
X14859461Y-5845541D01*
X14857485Y-5847332D01*
X14855343Y-5848920D01*
X14853056Y-5850291D01*
X14850645Y-5851431D01*
X14848134Y-5852330D01*
X14845547Y-5852978D01*
X14842910Y-5853369D01*
X14840246Y-5853500D01*
X14769594Y-5853500D01*
X14766930Y-5853369D01*
X14764292Y-5852978D01*
X14761706Y-5852330D01*
X14759195Y-5851431D01*
X14756784Y-5850291D01*
X14754497Y-5848920D01*
X14752355Y-5847332D01*
X14750379Y-5845541D01*
X14748588Y-5843565D01*
X14747000Y-5841423D01*
X14745629Y-5839136D01*
X14744488Y-5836725D01*
X14743590Y-5834214D01*
X14742942Y-5831627D01*
X14742551Y-5828990D01*
X14742420Y-5826326D01*
X14742420Y-5730674D01*
X14742551Y-5728010D01*
X14742942Y-5725372D01*
X14743590Y-5722786D01*
X14744488Y-5720275D01*
X14745629Y-5717864D01*
X14747000Y-5715577D01*
X14748588Y-5713435D01*
X14750379Y-5711459D01*
X14752355Y-5709668D01*
X14754497Y-5708080D01*
X14756784Y-5706709D01*
X14759195Y-5705568D01*
X14761706Y-5704670D01*
X14764292Y-5704022D01*
X14766930Y-5703631D01*
X14769594Y-5703500D01*
X14840246Y-5703500D01*
X14842910Y-5703631D01*
G37*
G36*
X14637910Y-5703631D02*
G01*
X14640547Y-5704022D01*
X14643134Y-5704670D01*
X14645645Y-5705568D01*
X14648056Y-5706709D01*
X14650343Y-5708080D01*
X14652485Y-5709668D01*
X14654461Y-5711459D01*
X14656252Y-5713435D01*
X14657840Y-5715577D01*
X14659211Y-5717864D01*
X14660351Y-5720275D01*
X14661250Y-5722786D01*
X14661898Y-5725372D01*
X14662289Y-5728010D01*
X14662420Y-5730674D01*
X14662420Y-5826326D01*
X14662289Y-5828990D01*
X14661898Y-5831627D01*
X14661250Y-5834214D01*
X14660351Y-5836725D01*
X14659211Y-5839136D01*
X14657840Y-5841423D01*
X14656252Y-5843565D01*
X14654461Y-5845541D01*
X14652485Y-5847332D01*
X14650343Y-5848920D01*
X14648056Y-5850291D01*
X14645645Y-5851431D01*
X14643134Y-5852330D01*
X14640547Y-5852978D01*
X14637910Y-5853369D01*
X14635246Y-5853500D01*
X14564594Y-5853500D01*
X14561930Y-5853369D01*
X14559292Y-5852978D01*
X14556706Y-5852330D01*
X14554195Y-5851431D01*
X14551784Y-5850291D01*
X14549497Y-5848920D01*
X14547355Y-5847332D01*
X14545379Y-5845541D01*
X14543588Y-5843565D01*
X14542000Y-5841423D01*
X14540629Y-5839136D01*
X14539488Y-5836725D01*
X14538590Y-5834214D01*
X14537942Y-5831627D01*
X14537551Y-5828990D01*
X14537420Y-5826326D01*
X14537420Y-5730674D01*
X14537551Y-5728010D01*
X14537942Y-5725372D01*
X14538590Y-5722786D01*
X14539488Y-5720275D01*
X14540629Y-5717864D01*
X14542000Y-5715577D01*
X14543588Y-5713435D01*
X14545379Y-5711459D01*
X14547355Y-5709668D01*
X14549497Y-5708080D01*
X14551784Y-5706709D01*
X14554195Y-5705568D01*
X14556706Y-5704670D01*
X14559292Y-5704022D01*
X14561930Y-5703631D01*
X14564594Y-5703500D01*
X14635246Y-5703500D01*
X14637910Y-5703631D01*
G37*
G36*
X15023790Y-4805171D02*
G01*
X15026427Y-4805562D01*
X15029014Y-4806210D01*
X15031525Y-4807109D01*
X15033936Y-4808249D01*
X15036223Y-4809620D01*
X15038365Y-4811208D01*
X15040341Y-4812999D01*
X15042132Y-4814975D01*
X15043720Y-4817117D01*
X15045091Y-4819404D01*
X15046231Y-4821815D01*
X15047130Y-4824326D01*
X15047778Y-4826913D01*
X15048169Y-4829550D01*
X15048300Y-4832214D01*
X15048300Y-4902866D01*
X15048169Y-4905530D01*
X15047778Y-4908168D01*
X15047130Y-4910754D01*
X15046231Y-4913265D01*
X15045091Y-4915676D01*
X15043720Y-4917963D01*
X15042132Y-4920105D01*
X15040341Y-4922081D01*
X15038365Y-4923872D01*
X15036223Y-4925460D01*
X15033936Y-4926831D01*
X15031525Y-4927972D01*
X15029014Y-4928870D01*
X15026427Y-4929518D01*
X15023790Y-4929909D01*
X15021126Y-4930040D01*
X14925474Y-4930040D01*
X14922810Y-4929909D01*
X14920172Y-4929518D01*
X14917586Y-4928870D01*
X14915075Y-4927972D01*
X14912664Y-4926831D01*
X14910377Y-4925460D01*
X14908235Y-4923872D01*
X14906259Y-4922081D01*
X14904468Y-4920105D01*
X14902880Y-4917963D01*
X14901509Y-4915676D01*
X14900368Y-4913265D01*
X14899470Y-4910754D01*
X14898822Y-4908168D01*
X14898431Y-4905530D01*
X14898300Y-4902866D01*
X14898300Y-4832214D01*
X14898431Y-4829550D01*
X14898822Y-4826913D01*
X14899470Y-4824326D01*
X14900368Y-4821815D01*
X14901509Y-4819404D01*
X14902880Y-4817117D01*
X14904468Y-4814975D01*
X14906259Y-4812999D01*
X14908235Y-4811208D01*
X14910377Y-4809620D01*
X14912664Y-4808249D01*
X14915075Y-4807109D01*
X14917586Y-4806210D01*
X14920172Y-4805562D01*
X14922810Y-4805171D01*
X14925474Y-4805040D01*
X15021126Y-4805040D01*
X15023790Y-4805171D01*
G37*
G36*
X15023790Y-4600171D02*
G01*
X15026427Y-4600562D01*
X15029014Y-4601210D01*
X15031525Y-4602109D01*
X15033936Y-4603249D01*
X15036223Y-4604620D01*
X15038365Y-4606208D01*
X15040341Y-4607999D01*
X15042132Y-4609975D01*
X15043720Y-4612117D01*
X15045091Y-4614404D01*
X15046231Y-4616815D01*
X15047130Y-4619326D01*
X15047778Y-4621913D01*
X15048169Y-4624550D01*
X15048300Y-4627214D01*
X15048300Y-4697866D01*
X15048169Y-4700530D01*
X15047778Y-4703168D01*
X15047130Y-4705754D01*
X15046231Y-4708265D01*
X15045091Y-4710676D01*
X15043720Y-4712963D01*
X15042132Y-4715105D01*
X15040341Y-4717081D01*
X15038365Y-4718872D01*
X15036223Y-4720460D01*
X15033936Y-4721831D01*
X15031525Y-4722972D01*
X15029014Y-4723870D01*
X15026427Y-4724518D01*
X15023790Y-4724909D01*
X15021126Y-4725040D01*
X14925474Y-4725040D01*
X14922810Y-4724909D01*
X14920172Y-4724518D01*
X14917586Y-4723870D01*
X14915075Y-4722972D01*
X14912664Y-4721831D01*
X14910377Y-4720460D01*
X14908235Y-4718872D01*
X14906259Y-4717081D01*
X14904468Y-4715105D01*
X14902880Y-4712963D01*
X14901509Y-4710676D01*
X14900368Y-4708265D01*
X14899470Y-4705754D01*
X14898822Y-4703168D01*
X14898431Y-4700530D01*
X14898300Y-4697866D01*
X14898300Y-4627214D01*
X14898431Y-4624550D01*
X14898822Y-4621913D01*
X14899470Y-4619326D01*
X14900368Y-4616815D01*
X14901509Y-4614404D01*
X14902880Y-4612117D01*
X14904468Y-4609975D01*
X14906259Y-4607999D01*
X14908235Y-4606208D01*
X14910377Y-4604620D01*
X14912664Y-4603249D01*
X14915075Y-4602109D01*
X14917586Y-4601210D01*
X14920172Y-4600562D01*
X14922810Y-4600171D01*
X14925474Y-4600040D01*
X15021126Y-4600040D01*
X15023790Y-4600171D01*
G37*
G36*
X14825670Y-4805171D02*
G01*
X14828307Y-4805562D01*
X14830894Y-4806210D01*
X14833405Y-4807109D01*
X14835816Y-4808249D01*
X14838103Y-4809620D01*
X14840245Y-4811208D01*
X14842221Y-4812999D01*
X14844012Y-4814975D01*
X14845600Y-4817117D01*
X14846971Y-4819404D01*
X14848111Y-4821815D01*
X14849010Y-4824326D01*
X14849658Y-4826913D01*
X14850049Y-4829550D01*
X14850180Y-4832214D01*
X14850180Y-4902866D01*
X14850049Y-4905530D01*
X14849658Y-4908168D01*
X14849010Y-4910754D01*
X14848111Y-4913265D01*
X14846971Y-4915676D01*
X14845600Y-4917963D01*
X14844012Y-4920105D01*
X14842221Y-4922081D01*
X14840245Y-4923872D01*
X14838103Y-4925460D01*
X14835816Y-4926831D01*
X14833405Y-4927972D01*
X14830894Y-4928870D01*
X14828307Y-4929518D01*
X14825670Y-4929909D01*
X14823006Y-4930040D01*
X14727354Y-4930040D01*
X14724690Y-4929909D01*
X14722052Y-4929518D01*
X14719466Y-4928870D01*
X14716955Y-4927972D01*
X14714544Y-4926831D01*
X14712257Y-4925460D01*
X14710115Y-4923872D01*
X14708139Y-4922081D01*
X14706348Y-4920105D01*
X14704760Y-4917963D01*
X14703389Y-4915676D01*
X14702248Y-4913265D01*
X14701350Y-4910754D01*
X14700702Y-4908168D01*
X14700311Y-4905530D01*
X14700180Y-4902866D01*
X14700180Y-4832214D01*
X14700311Y-4829550D01*
X14700702Y-4826913D01*
X14701350Y-4824326D01*
X14702248Y-4821815D01*
X14703389Y-4819404D01*
X14704760Y-4817117D01*
X14706348Y-4814975D01*
X14708139Y-4812999D01*
X14710115Y-4811208D01*
X14712257Y-4809620D01*
X14714544Y-4808249D01*
X14716955Y-4807109D01*
X14719466Y-4806210D01*
X14722052Y-4805562D01*
X14724690Y-4805171D01*
X14727354Y-4805040D01*
X14823006Y-4805040D01*
X14825670Y-4805171D01*
G37*
G36*
X14825670Y-4600171D02*
G01*
X14828307Y-4600562D01*
X14830894Y-4601210D01*
X14833405Y-4602109D01*
X14835816Y-4603249D01*
X14838103Y-4604620D01*
X14840245Y-4606208D01*
X14842221Y-4607999D01*
X14844012Y-4609975D01*
X14845600Y-4612117D01*
X14846971Y-4614404D01*
X14848111Y-4616815D01*
X14849010Y-4619326D01*
X14849658Y-4621913D01*
X14850049Y-4624550D01*
X14850180Y-4627214D01*
X14850180Y-4697866D01*
X14850049Y-4700530D01*
X14849658Y-4703168D01*
X14849010Y-4705754D01*
X14848111Y-4708265D01*
X14846971Y-4710676D01*
X14845600Y-4712963D01*
X14844012Y-4715105D01*
X14842221Y-4717081D01*
X14840245Y-4718872D01*
X14838103Y-4720460D01*
X14835816Y-4721831D01*
X14833405Y-4722972D01*
X14830894Y-4723870D01*
X14828307Y-4724518D01*
X14825670Y-4724909D01*
X14823006Y-4725040D01*
X14727354Y-4725040D01*
X14724690Y-4724909D01*
X14722052Y-4724518D01*
X14719466Y-4723870D01*
X14716955Y-4722972D01*
X14714544Y-4721831D01*
X14712257Y-4720460D01*
X14710115Y-4718872D01*
X14708139Y-4717081D01*
X14706348Y-4715105D01*
X14704760Y-4712963D01*
X14703389Y-4710676D01*
X14702248Y-4708265D01*
X14701350Y-4705754D01*
X14700702Y-4703168D01*
X14700311Y-4700530D01*
X14700180Y-4697866D01*
X14700180Y-4627214D01*
X14700311Y-4624550D01*
X14700702Y-4621913D01*
X14701350Y-4619326D01*
X14702248Y-4616815D01*
X14703389Y-4614404D01*
X14704760Y-4612117D01*
X14706348Y-4609975D01*
X14708139Y-4607999D01*
X14710115Y-4606208D01*
X14712257Y-4604620D01*
X14714544Y-4603249D01*
X14716955Y-4602109D01*
X14719466Y-4601210D01*
X14722052Y-4600562D01*
X14724690Y-4600171D01*
X14727354Y-4600040D01*
X14823006Y-4600040D01*
X14825670Y-4600171D01*
G37*
G36*
X14091810Y-5703631D02*
G01*
X14094447Y-5704022D01*
X14097034Y-5704670D01*
X14099545Y-5705568D01*
X14101956Y-5706709D01*
X14104243Y-5708080D01*
X14106385Y-5709668D01*
X14108361Y-5711459D01*
X14110152Y-5713435D01*
X14111740Y-5715577D01*
X14113111Y-5717864D01*
X14114251Y-5720275D01*
X14115150Y-5722786D01*
X14115798Y-5725372D01*
X14116189Y-5728010D01*
X14116320Y-5730674D01*
X14116320Y-5826326D01*
X14116189Y-5828990D01*
X14115798Y-5831627D01*
X14115150Y-5834214D01*
X14114251Y-5836725D01*
X14113111Y-5839136D01*
X14111740Y-5841423D01*
X14110152Y-5843565D01*
X14108361Y-5845541D01*
X14106385Y-5847332D01*
X14104243Y-5848920D01*
X14101956Y-5850291D01*
X14099545Y-5851431D01*
X14097034Y-5852330D01*
X14094447Y-5852978D01*
X14091810Y-5853369D01*
X14089146Y-5853500D01*
X14018494Y-5853500D01*
X14015830Y-5853369D01*
X14013192Y-5852978D01*
X14010606Y-5852330D01*
X14008095Y-5851431D01*
X14005684Y-5850291D01*
X14003397Y-5848920D01*
X14001255Y-5847332D01*
X13999279Y-5845541D01*
X13997488Y-5843565D01*
X13995900Y-5841423D01*
X13994529Y-5839136D01*
X13993388Y-5836725D01*
X13992490Y-5834214D01*
X13991842Y-5831627D01*
X13991451Y-5828990D01*
X13991320Y-5826326D01*
X13991320Y-5730674D01*
X13991451Y-5728010D01*
X13991842Y-5725372D01*
X13992490Y-5722786D01*
X13993388Y-5720275D01*
X13994529Y-5717864D01*
X13995900Y-5715577D01*
X13997488Y-5713435D01*
X13999279Y-5711459D01*
X14001255Y-5709668D01*
X14003397Y-5708080D01*
X14005684Y-5706709D01*
X14008095Y-5705568D01*
X14010606Y-5704670D01*
X14013192Y-5704022D01*
X14015830Y-5703631D01*
X14018494Y-5703500D01*
X14089146Y-5703500D01*
X14091810Y-5703631D01*
G37*
G36*
X13886810Y-5703631D02*
G01*
X13889447Y-5704022D01*
X13892034Y-5704670D01*
X13894545Y-5705568D01*
X13896956Y-5706709D01*
X13899243Y-5708080D01*
X13901385Y-5709668D01*
X13903361Y-5711459D01*
X13905152Y-5713435D01*
X13906740Y-5715577D01*
X13908111Y-5717864D01*
X13909251Y-5720275D01*
X13910150Y-5722786D01*
X13910798Y-5725372D01*
X13911189Y-5728010D01*
X13911320Y-5730674D01*
X13911320Y-5826326D01*
X13911189Y-5828990D01*
X13910798Y-5831627D01*
X13910150Y-5834214D01*
X13909251Y-5836725D01*
X13908111Y-5839136D01*
X13906740Y-5841423D01*
X13905152Y-5843565D01*
X13903361Y-5845541D01*
X13901385Y-5847332D01*
X13899243Y-5848920D01*
X13896956Y-5850291D01*
X13894545Y-5851431D01*
X13892034Y-5852330D01*
X13889447Y-5852978D01*
X13886810Y-5853369D01*
X13884146Y-5853500D01*
X13813494Y-5853500D01*
X13810830Y-5853369D01*
X13808192Y-5852978D01*
X13805606Y-5852330D01*
X13803095Y-5851431D01*
X13800684Y-5850291D01*
X13798397Y-5848920D01*
X13796255Y-5847332D01*
X13794279Y-5845541D01*
X13792488Y-5843565D01*
X13790900Y-5841423D01*
X13789529Y-5839136D01*
X13788388Y-5836725D01*
X13787490Y-5834214D01*
X13786842Y-5831627D01*
X13786451Y-5828990D01*
X13786320Y-5826326D01*
X13786320Y-5730674D01*
X13786451Y-5728010D01*
X13786842Y-5725372D01*
X13787490Y-5722786D01*
X13788388Y-5720275D01*
X13789529Y-5717864D01*
X13790900Y-5715577D01*
X13792488Y-5713435D01*
X13794279Y-5711459D01*
X13796255Y-5709668D01*
X13798397Y-5708080D01*
X13800684Y-5706709D01*
X13803095Y-5705568D01*
X13805606Y-5704670D01*
X13808192Y-5704022D01*
X13810830Y-5703631D01*
X13813494Y-5703500D01*
X13884146Y-5703500D01*
X13886810Y-5703631D01*
G37*
G36*
X14261990Y-5703631D02*
G01*
X14264627Y-5704022D01*
X14267214Y-5704670D01*
X14269725Y-5705568D01*
X14272136Y-5706709D01*
X14274423Y-5708080D01*
X14276565Y-5709668D01*
X14278541Y-5711459D01*
X14280332Y-5713435D01*
X14281920Y-5715577D01*
X14283291Y-5717864D01*
X14284431Y-5720275D01*
X14285330Y-5722786D01*
X14285978Y-5725372D01*
X14286369Y-5728010D01*
X14286500Y-5730674D01*
X14286500Y-5826326D01*
X14286369Y-5828990D01*
X14285978Y-5831627D01*
X14285330Y-5834214D01*
X14284431Y-5836725D01*
X14283291Y-5839136D01*
X14281920Y-5841423D01*
X14280332Y-5843565D01*
X14278541Y-5845541D01*
X14276565Y-5847332D01*
X14274423Y-5848920D01*
X14272136Y-5850291D01*
X14269725Y-5851431D01*
X14267214Y-5852330D01*
X14264627Y-5852978D01*
X14261990Y-5853369D01*
X14259326Y-5853500D01*
X14188674Y-5853500D01*
X14186010Y-5853369D01*
X14183372Y-5852978D01*
X14180786Y-5852330D01*
X14178275Y-5851431D01*
X14175864Y-5850291D01*
X14173577Y-5848920D01*
X14171435Y-5847332D01*
X14169459Y-5845541D01*
X14167668Y-5843565D01*
X14166080Y-5841423D01*
X14164709Y-5839136D01*
X14163568Y-5836725D01*
X14162670Y-5834214D01*
X14162022Y-5831627D01*
X14161631Y-5828990D01*
X14161500Y-5826326D01*
X14161500Y-5730674D01*
X14161631Y-5728010D01*
X14162022Y-5725372D01*
X14162670Y-5722786D01*
X14163568Y-5720275D01*
X14164709Y-5717864D01*
X14166080Y-5715577D01*
X14167668Y-5713435D01*
X14169459Y-5711459D01*
X14171435Y-5709668D01*
X14173577Y-5708080D01*
X14175864Y-5706709D01*
X14178275Y-5705568D01*
X14180786Y-5704670D01*
X14183372Y-5704022D01*
X14186010Y-5703631D01*
X14188674Y-5703500D01*
X14259326Y-5703500D01*
X14261990Y-5703631D01*
G37*
G36*
X14466990Y-5703631D02*
G01*
X14469627Y-5704022D01*
X14472214Y-5704670D01*
X14474725Y-5705568D01*
X14477136Y-5706709D01*
X14479423Y-5708080D01*
X14481565Y-5709668D01*
X14483541Y-5711459D01*
X14485332Y-5713435D01*
X14486920Y-5715577D01*
X14488291Y-5717864D01*
X14489431Y-5720275D01*
X14490330Y-5722786D01*
X14490978Y-5725372D01*
X14491369Y-5728010D01*
X14491500Y-5730674D01*
X14491500Y-5826326D01*
X14491369Y-5828990D01*
X14490978Y-5831627D01*
X14490330Y-5834214D01*
X14489431Y-5836725D01*
X14488291Y-5839136D01*
X14486920Y-5841423D01*
X14485332Y-5843565D01*
X14483541Y-5845541D01*
X14481565Y-5847332D01*
X14479423Y-5848920D01*
X14477136Y-5850291D01*
X14474725Y-5851431D01*
X14472214Y-5852330D01*
X14469627Y-5852978D01*
X14466990Y-5853369D01*
X14464326Y-5853500D01*
X14393674Y-5853500D01*
X14391010Y-5853369D01*
X14388372Y-5852978D01*
X14385786Y-5852330D01*
X14383275Y-5851431D01*
X14380864Y-5850291D01*
X14378577Y-5848920D01*
X14376435Y-5847332D01*
X14374459Y-5845541D01*
X14372668Y-5843565D01*
X14371080Y-5841423D01*
X14369709Y-5839136D01*
X14368568Y-5836725D01*
X14367670Y-5834214D01*
X14367022Y-5831627D01*
X14366631Y-5828990D01*
X14366500Y-5826326D01*
X14366500Y-5730674D01*
X14366631Y-5728010D01*
X14367022Y-5725372D01*
X14367670Y-5722786D01*
X14368568Y-5720275D01*
X14369709Y-5717864D01*
X14371080Y-5715577D01*
X14372668Y-5713435D01*
X14374459Y-5711459D01*
X14376435Y-5709668D01*
X14378577Y-5708080D01*
X14380864Y-5706709D01*
X14383275Y-5705568D01*
X14385786Y-5704670D01*
X14388372Y-5704022D01*
X14391010Y-5703631D01*
X14393674Y-5703500D01*
X14464326Y-5703500D01*
X14466990Y-5703631D01*
G37*
G36*
X14261990Y-5078791D02*
G01*
X14264627Y-5079182D01*
X14267214Y-5079830D01*
X14269725Y-5080729D01*
X14272136Y-5081869D01*
X14274423Y-5083240D01*
X14276565Y-5084828D01*
X14278541Y-5086619D01*
X14280332Y-5088595D01*
X14281920Y-5090737D01*
X14283291Y-5093024D01*
X14284431Y-5095435D01*
X14285330Y-5097946D01*
X14285978Y-5100533D01*
X14286369Y-5103170D01*
X14286500Y-5105834D01*
X14286500Y-5201486D01*
X14286369Y-5204150D01*
X14285978Y-5206788D01*
X14285330Y-5209374D01*
X14284431Y-5211885D01*
X14283291Y-5214296D01*
X14281920Y-5216583D01*
X14280332Y-5218725D01*
X14278541Y-5220701D01*
X14276565Y-5222492D01*
X14274423Y-5224080D01*
X14272136Y-5225451D01*
X14269725Y-5226592D01*
X14267214Y-5227490D01*
X14264627Y-5228138D01*
X14261990Y-5228529D01*
X14259326Y-5228660D01*
X14188674Y-5228660D01*
X14186010Y-5228529D01*
X14183372Y-5228138D01*
X14180786Y-5227490D01*
X14178275Y-5226592D01*
X14175864Y-5225451D01*
X14173577Y-5224080D01*
X14171435Y-5222492D01*
X14169459Y-5220701D01*
X14167668Y-5218725D01*
X14166080Y-5216583D01*
X14164709Y-5214296D01*
X14163568Y-5211885D01*
X14162670Y-5209374D01*
X14162022Y-5206788D01*
X14161631Y-5204150D01*
X14161500Y-5201486D01*
X14161500Y-5105834D01*
X14161631Y-5103170D01*
X14162022Y-5100533D01*
X14162670Y-5097946D01*
X14163568Y-5095435D01*
X14164709Y-5093024D01*
X14166080Y-5090737D01*
X14167668Y-5088595D01*
X14169459Y-5086619D01*
X14171435Y-5084828D01*
X14173577Y-5083240D01*
X14175864Y-5081869D01*
X14178275Y-5080729D01*
X14180786Y-5079830D01*
X14183372Y-5079182D01*
X14186010Y-5078791D01*
X14188674Y-5078660D01*
X14259326Y-5078660D01*
X14261990Y-5078791D01*
G37*
G36*
X14466990Y-5078791D02*
G01*
X14469627Y-5079182D01*
X14472214Y-5079830D01*
X14474725Y-5080729D01*
X14477136Y-5081869D01*
X14479423Y-5083240D01*
X14481565Y-5084828D01*
X14483541Y-5086619D01*
X14485332Y-5088595D01*
X14486920Y-5090737D01*
X14488291Y-5093024D01*
X14489431Y-5095435D01*
X14490330Y-5097946D01*
X14490978Y-5100533D01*
X14491369Y-5103170D01*
X14491500Y-5105834D01*
X14491500Y-5201486D01*
X14491369Y-5204150D01*
X14490978Y-5206788D01*
X14490330Y-5209374D01*
X14489431Y-5211885D01*
X14488291Y-5214296D01*
X14486920Y-5216583D01*
X14485332Y-5218725D01*
X14483541Y-5220701D01*
X14481565Y-5222492D01*
X14479423Y-5224080D01*
X14477136Y-5225451D01*
X14474725Y-5226592D01*
X14472214Y-5227490D01*
X14469627Y-5228138D01*
X14466990Y-5228529D01*
X14464326Y-5228660D01*
X14393674Y-5228660D01*
X14391010Y-5228529D01*
X14388372Y-5228138D01*
X14385786Y-5227490D01*
X14383275Y-5226592D01*
X14380864Y-5225451D01*
X14378577Y-5224080D01*
X14376435Y-5222492D01*
X14374459Y-5220701D01*
X14372668Y-5218725D01*
X14371080Y-5216583D01*
X14369709Y-5214296D01*
X14368568Y-5211885D01*
X14367670Y-5209374D01*
X14367022Y-5206788D01*
X14366631Y-5204150D01*
X14366500Y-5201486D01*
X14366500Y-5105834D01*
X14366631Y-5103170D01*
X14367022Y-5100533D01*
X14367670Y-5097946D01*
X14368568Y-5095435D01*
X14369709Y-5093024D01*
X14371080Y-5090737D01*
X14372668Y-5088595D01*
X14374459Y-5086619D01*
X14376435Y-5084828D01*
X14378577Y-5083240D01*
X14380864Y-5081869D01*
X14383275Y-5080729D01*
X14385786Y-5079830D01*
X14388372Y-5079182D01*
X14391010Y-5078791D01*
X14393674Y-5078660D01*
X14464326Y-5078660D01*
X14466990Y-5078791D01*
G37*
G36*
X13649850Y-4946711D02*
G01*
X13652487Y-4947102D01*
X13655074Y-4947750D01*
X13657585Y-4948649D01*
X13659996Y-4949789D01*
X13662283Y-4951160D01*
X13664425Y-4952748D01*
X13666401Y-4954539D01*
X13668192Y-4956515D01*
X13669780Y-4958657D01*
X13671151Y-4960944D01*
X13672291Y-4963355D01*
X13673190Y-4965866D01*
X13673838Y-4968453D01*
X13674229Y-4971090D01*
X13674360Y-4973754D01*
X13674360Y-5069406D01*
X13674229Y-5072070D01*
X13673838Y-5074708D01*
X13673190Y-5077294D01*
X13672291Y-5079805D01*
X13671151Y-5082216D01*
X13669780Y-5084503D01*
X13668192Y-5086645D01*
X13666401Y-5088621D01*
X13664425Y-5090412D01*
X13662283Y-5092000D01*
X13659996Y-5093371D01*
X13657585Y-5094512D01*
X13655074Y-5095410D01*
X13652487Y-5096058D01*
X13649850Y-5096449D01*
X13647186Y-5096580D01*
X13576534Y-5096580D01*
X13573870Y-5096449D01*
X13571232Y-5096058D01*
X13568646Y-5095410D01*
X13566135Y-5094512D01*
X13563724Y-5093371D01*
X13561437Y-5092000D01*
X13559295Y-5090412D01*
X13557319Y-5088621D01*
X13555528Y-5086645D01*
X13553940Y-5084503D01*
X13552569Y-5082216D01*
X13551428Y-5079805D01*
X13550530Y-5077294D01*
X13549882Y-5074708D01*
X13549491Y-5072070D01*
X13549360Y-5069406D01*
X13549360Y-4973754D01*
X13549491Y-4971090D01*
X13549882Y-4968453D01*
X13550530Y-4965866D01*
X13551428Y-4963355D01*
X13552569Y-4960944D01*
X13553940Y-4958657D01*
X13555528Y-4956515D01*
X13557319Y-4954539D01*
X13559295Y-4952748D01*
X13561437Y-4951160D01*
X13563724Y-4949789D01*
X13566135Y-4948649D01*
X13568646Y-4947750D01*
X13571232Y-4947102D01*
X13573870Y-4946711D01*
X13576534Y-4946580D01*
X13647186Y-4946580D01*
X13649850Y-4946711D01*
G37*
G36*
X13854850Y-4946711D02*
G01*
X13857487Y-4947102D01*
X13860074Y-4947750D01*
X13862585Y-4948649D01*
X13864996Y-4949789D01*
X13867283Y-4951160D01*
X13869425Y-4952748D01*
X13871401Y-4954539D01*
X13873192Y-4956515D01*
X13874780Y-4958657D01*
X13876151Y-4960944D01*
X13877291Y-4963355D01*
X13878190Y-4965866D01*
X13878838Y-4968453D01*
X13879229Y-4971090D01*
X13879360Y-4973754D01*
X13879360Y-5069406D01*
X13879229Y-5072070D01*
X13878838Y-5074708D01*
X13878190Y-5077294D01*
X13877291Y-5079805D01*
X13876151Y-5082216D01*
X13874780Y-5084503D01*
X13873192Y-5086645D01*
X13871401Y-5088621D01*
X13869425Y-5090412D01*
X13867283Y-5092000D01*
X13864996Y-5093371D01*
X13862585Y-5094512D01*
X13860074Y-5095410D01*
X13857487Y-5096058D01*
X13854850Y-5096449D01*
X13852186Y-5096580D01*
X13781534Y-5096580D01*
X13778870Y-5096449D01*
X13776232Y-5096058D01*
X13773646Y-5095410D01*
X13771135Y-5094512D01*
X13768724Y-5093371D01*
X13766437Y-5092000D01*
X13764295Y-5090412D01*
X13762319Y-5088621D01*
X13760528Y-5086645D01*
X13758940Y-5084503D01*
X13757569Y-5082216D01*
X13756428Y-5079805D01*
X13755530Y-5077294D01*
X13754882Y-5074708D01*
X13754491Y-5072070D01*
X13754360Y-5069406D01*
X13754360Y-4973754D01*
X13754491Y-4971090D01*
X13754882Y-4968453D01*
X13755530Y-4965866D01*
X13756428Y-4963355D01*
X13757569Y-4960944D01*
X13758940Y-4958657D01*
X13760528Y-4956515D01*
X13762319Y-4954539D01*
X13764295Y-4952748D01*
X13766437Y-4951160D01*
X13768724Y-4949789D01*
X13771135Y-4948649D01*
X13773646Y-4947750D01*
X13776232Y-4947102D01*
X13778870Y-4946711D01*
X13781534Y-4946580D01*
X13852186Y-4946580D01*
X13854850Y-4946711D01*
G37*
D20*
X14835000Y-6131000D03*
X14581000Y-6131000D03*
X14327000Y-6131000D03*
X14073000Y-6131000D03*
D21*
X13819000Y-6131000D03*
D19*
X13335000Y-6096000D03*
X13335000Y-4826000D03*
X15367000Y-4826000D03*
D10*
G36*
X14521464Y-4786624D02*
G01*
X14520527Y-4786339D01*
X14519662Y-4785877D01*
X14518904Y-4785256D01*
X14518283Y-4784498D01*
X14517821Y-4783633D01*
X14517536Y-4782696D01*
X14517440Y-4781720D01*
X14517440Y-4631720D01*
X14517536Y-4630745D01*
X14517821Y-4629807D01*
X14518283Y-4628942D01*
X14518904Y-4628185D01*
X14519662Y-4627563D01*
X14520527Y-4627101D01*
X14521464Y-4626816D01*
X14522440Y-4626720D01*
X14572440Y-4626720D01*
X14573051Y-4626780D01*
X14574893Y-4626780D01*
X14575383Y-4626804D01*
X14580267Y-4627285D01*
X14580752Y-4627357D01*
X14585564Y-4628315D01*
X14586040Y-4628434D01*
X14590736Y-4629858D01*
X14591198Y-4630023D01*
X14595731Y-4631901D01*
X14596175Y-4632111D01*
X14600502Y-4634424D01*
X14600923Y-4634676D01*
X14605003Y-4637402D01*
X14605397Y-4637695D01*
X14609190Y-4640807D01*
X14609553Y-4641137D01*
X14613023Y-4644607D01*
X14613353Y-4644970D01*
X14616465Y-4648763D01*
X14616758Y-4649157D01*
X14619484Y-4653237D01*
X14619736Y-4653658D01*
X14622049Y-4657985D01*
X14622259Y-4658429D01*
X14624137Y-4662962D01*
X14624302Y-4663424D01*
X14625726Y-4668120D01*
X14625845Y-4668596D01*
X14626803Y-4673408D01*
X14626875Y-4673893D01*
X14627356Y-4678777D01*
X14627380Y-4679267D01*
X14627380Y-4681109D01*
X14627440Y-4681720D01*
X14627440Y-4731720D01*
X14627380Y-4732331D01*
X14627380Y-4734173D01*
X14627356Y-4734664D01*
X14626875Y-4739547D01*
X14626803Y-4740032D01*
X14625845Y-4744844D01*
X14625726Y-4745321D01*
X14624302Y-4750016D01*
X14624137Y-4750478D01*
X14622259Y-4755011D01*
X14622049Y-4755455D01*
X14619736Y-4759782D01*
X14619484Y-4760203D01*
X14616758Y-4764283D01*
X14616465Y-4764677D01*
X14613353Y-4768470D01*
X14613023Y-4768833D01*
X14609553Y-4772303D01*
X14609190Y-4772633D01*
X14605397Y-4775745D01*
X14605003Y-4776038D01*
X14600923Y-4778764D01*
X14600502Y-4779016D01*
X14596175Y-4781329D01*
X14595731Y-4781539D01*
X14591198Y-4783417D01*
X14590736Y-4783582D01*
X14586040Y-4785006D01*
X14585564Y-4785126D01*
X14580752Y-4786083D01*
X14580267Y-4786155D01*
X14575383Y-4786636D01*
X14574893Y-4786660D01*
X14573051Y-4786660D01*
X14572440Y-4786720D01*
X14522440Y-4786720D01*
X14521464Y-4786624D01*
G37*
G36*
X14441829Y-4786660D02*
G01*
X14439987Y-4786660D01*
X14439496Y-4786636D01*
X14434613Y-4786155D01*
X14434128Y-4786083D01*
X14429316Y-4785126D01*
X14428839Y-4785006D01*
X14424144Y-4783582D01*
X14423682Y-4783417D01*
X14419149Y-4781539D01*
X14418705Y-4781329D01*
X14414378Y-4779016D01*
X14413957Y-4778764D01*
X14409877Y-4776038D01*
X14409483Y-4775745D01*
X14405690Y-4772633D01*
X14405327Y-4772303D01*
X14401857Y-4768833D01*
X14401527Y-4768470D01*
X14398415Y-4764677D01*
X14398122Y-4764283D01*
X14395396Y-4760203D01*
X14395144Y-4759782D01*
X14392831Y-4755455D01*
X14392621Y-4755011D01*
X14390743Y-4750478D01*
X14390578Y-4750016D01*
X14389154Y-4745321D01*
X14389034Y-4744844D01*
X14388077Y-4740032D01*
X14388005Y-4739547D01*
X14387524Y-4734664D01*
X14387500Y-4734173D01*
X14387500Y-4732331D01*
X14387440Y-4731720D01*
X14387440Y-4681720D01*
X14387500Y-4681109D01*
X14387500Y-4679267D01*
X14387524Y-4678777D01*
X14388005Y-4673893D01*
X14388077Y-4673408D01*
X14389034Y-4668596D01*
X14389154Y-4668120D01*
X14390578Y-4663424D01*
X14390743Y-4662962D01*
X14392621Y-4658429D01*
X14392831Y-4657985D01*
X14395144Y-4653658D01*
X14395396Y-4653237D01*
X14398122Y-4649157D01*
X14398415Y-4648763D01*
X14401527Y-4644970D01*
X14401857Y-4644607D01*
X14405327Y-4641137D01*
X14405690Y-4640807D01*
X14409483Y-4637695D01*
X14409877Y-4637402D01*
X14413957Y-4634676D01*
X14414378Y-4634424D01*
X14418705Y-4632111D01*
X14419149Y-4631901D01*
X14423682Y-4630023D01*
X14424144Y-4629858D01*
X14428839Y-4628434D01*
X14429316Y-4628315D01*
X14434128Y-4627357D01*
X14434613Y-4627285D01*
X14439496Y-4626804D01*
X14439987Y-4626780D01*
X14441829Y-4626780D01*
X14442440Y-4626720D01*
X14492440Y-4626720D01*
X14493415Y-4626816D01*
X14494353Y-4627101D01*
X14495218Y-4627563D01*
X14495975Y-4628185D01*
X14496597Y-4628942D01*
X14497059Y-4629807D01*
X14497344Y-4630745D01*
X14497440Y-4631720D01*
X14497440Y-4781720D01*
X14497344Y-4782696D01*
X14497059Y-4783633D01*
X14496597Y-4784498D01*
X14495975Y-4785256D01*
X14495218Y-4785877D01*
X14494353Y-4786339D01*
X14493415Y-4786624D01*
X14492440Y-4786720D01*
X14442440Y-4786720D01*
X14441829Y-4786660D01*
G37*
G36*
X13841799Y-4606349D02*
G01*
X13844408Y-4606736D01*
X13846966Y-4607377D01*
X13849450Y-4608266D01*
X13851834Y-4609393D01*
X13854096Y-4610749D01*
X13856214Y-4612320D01*
X13858168Y-4614092D01*
X13859940Y-4616046D01*
X13861511Y-4618164D01*
X13862867Y-4620426D01*
X13863994Y-4622810D01*
X13864883Y-4625294D01*
X13865524Y-4627852D01*
X13865911Y-4630461D01*
X13866040Y-4633095D01*
X13866040Y-4729345D01*
X13865911Y-4731979D01*
X13865524Y-4734588D01*
X13864883Y-4737146D01*
X13863994Y-4739630D01*
X13862867Y-4742014D01*
X13861511Y-4744276D01*
X13859940Y-4746394D01*
X13858168Y-4748349D01*
X13856214Y-4750120D01*
X13854096Y-4751691D01*
X13851834Y-4753047D01*
X13849450Y-4754174D01*
X13846966Y-4755063D01*
X13844408Y-4755704D01*
X13841799Y-4756091D01*
X13839165Y-4756220D01*
X13785415Y-4756220D01*
X13782781Y-4756091D01*
X13780172Y-4755704D01*
X13777614Y-4755063D01*
X13775130Y-4754174D01*
X13772746Y-4753047D01*
X13770484Y-4751691D01*
X13768366Y-4750120D01*
X13766411Y-4748349D01*
X13764640Y-4746394D01*
X13763069Y-4744276D01*
X13761713Y-4742014D01*
X13760586Y-4739630D01*
X13759697Y-4737146D01*
X13759056Y-4734588D01*
X13758669Y-4731979D01*
X13758540Y-4729345D01*
X13758540Y-4633095D01*
X13758669Y-4630461D01*
X13759056Y-4627852D01*
X13759697Y-4625294D01*
X13760586Y-4622810D01*
X13761713Y-4620426D01*
X13763069Y-4618164D01*
X13764640Y-4616046D01*
X13766411Y-4614092D01*
X13768366Y-4612320D01*
X13770484Y-4610749D01*
X13772746Y-4609393D01*
X13775130Y-4608266D01*
X13777614Y-4607377D01*
X13780172Y-4606736D01*
X13782781Y-4606349D01*
X13785415Y-4606220D01*
X13839165Y-4606220D01*
X13841799Y-4606349D01*
G37*
G36*
X13654299Y-4606349D02*
G01*
X13656908Y-4606736D01*
X13659466Y-4607377D01*
X13661950Y-4608266D01*
X13664334Y-4609393D01*
X13666596Y-4610749D01*
X13668714Y-4612320D01*
X13670668Y-4614092D01*
X13672440Y-4616046D01*
X13674011Y-4618164D01*
X13675367Y-4620426D01*
X13676494Y-4622810D01*
X13677383Y-4625294D01*
X13678024Y-4627852D01*
X13678411Y-4630461D01*
X13678540Y-4633095D01*
X13678540Y-4729345D01*
X13678411Y-4731979D01*
X13678024Y-4734588D01*
X13677383Y-4737146D01*
X13676494Y-4739630D01*
X13675367Y-4742014D01*
X13674011Y-4744276D01*
X13672440Y-4746394D01*
X13670668Y-4748349D01*
X13668714Y-4750120D01*
X13666596Y-4751691D01*
X13664334Y-4753047D01*
X13661950Y-4754174D01*
X13659466Y-4755063D01*
X13656908Y-4755704D01*
X13654299Y-4756091D01*
X13651665Y-4756220D01*
X13597915Y-4756220D01*
X13595281Y-4756091D01*
X13592672Y-4755704D01*
X13590114Y-4755063D01*
X13587630Y-4754174D01*
X13585246Y-4753047D01*
X13582984Y-4751691D01*
X13580866Y-4750120D01*
X13578911Y-4748349D01*
X13577140Y-4746394D01*
X13575569Y-4744276D01*
X13574213Y-4742014D01*
X13573086Y-4739630D01*
X13572197Y-4737146D01*
X13571556Y-4734588D01*
X13571169Y-4731979D01*
X13571040Y-4729345D01*
X13571040Y-4633095D01*
X13571169Y-4630461D01*
X13571556Y-4627852D01*
X13572197Y-4625294D01*
X13573086Y-4622810D01*
X13574213Y-4620426D01*
X13575569Y-4618164D01*
X13577140Y-4616046D01*
X13578911Y-4614092D01*
X13580866Y-4612320D01*
X13582984Y-4610749D01*
X13585246Y-4609393D01*
X13587630Y-4608266D01*
X13590114Y-4607377D01*
X13592672Y-4606736D01*
X13595281Y-4606349D01*
X13597915Y-4606220D01*
X13651665Y-4606220D01*
X13654299Y-4606349D01*
G37*
D22*
X14387980Y-5614120D03*
X14387980Y-5517120D03*
X14387980Y-5420120D03*
X14387980Y-5323120D03*
X14247980Y-5323120D03*
X14247980Y-5420120D03*
X14247980Y-5517120D03*
X14247980Y-5614120D03*
M02*
