%TF.GenerationSoftware,KiCad,Pcbnew,5.1.5+dfsg1-2~bpo10+1*%
%TF.CreationDate,Date%
%TF.ProjectId,Gesture Sensor,47657374-7572-4652-9053-656e736f722e,rev?*%
%TF.SameCoordinates,Original*%
%TF.FileFunction,Other,User*%
%FSLAX45Y45*%
G04 Gerber Fmt 4.5, Leading zero omitted, Abs format (unit mm)*
G04 Created by KiCad*
%MOMM*%
%LPD*%
G04 APERTURE LIST*
%ADD10C,0.050000*%
G04 APERTURE END LIST*
D10*
X13335000Y-6350000D02*
G75*
G02X13081000Y-6096000I0J254000D01*
G01*
X15367000Y-4572000D02*
G75*
G02X15621000Y-4826000I0J-254000D01*
G01*
X15621000Y-6096000D02*
G75*
G02X15367000Y-6350000I-254000J0D01*
G01*
X13081000Y-4826000D02*
G75*
G02X13335000Y-4572000I254000J0D01*
G01*
X13335000Y-4572000D02*
X15367000Y-4572000D01*
X13081000Y-4826000D02*
X13081000Y-6096000D01*
X15621000Y-4826000D02*
X15621000Y-6096000D01*
X13335000Y-6350000D02*
X15367000Y-6350000D01*
X13691500Y-5121400D02*
X13691500Y-5851400D01*
X13691500Y-5851400D02*
X13086500Y-5851400D01*
X13086500Y-5851400D02*
X13086500Y-5121400D01*
X13086500Y-5121400D02*
X13691500Y-5121400D01*
X15010500Y-5851400D02*
X15010500Y-5121400D01*
X15010500Y-5121400D02*
X15615500Y-5121400D01*
X15615500Y-5121400D02*
X15615500Y-5851400D01*
X15615500Y-5851400D02*
X15010500Y-5851400D01*
X15582000Y-6096000D02*
G75*
G03X15582000Y-6096000I-215000J0D01*
G01*
X13895120Y-4581720D02*
X14265120Y-4581720D01*
X13895120Y-4771720D02*
X13895120Y-4581720D01*
X14265120Y-4771720D02*
X13895120Y-4771720D01*
X14265120Y-4581720D02*
X14265120Y-4771720D01*
X14887420Y-5873500D02*
X14517420Y-5873500D01*
X14887420Y-5683500D02*
X14887420Y-5873500D01*
X14517420Y-5683500D02*
X14887420Y-5683500D01*
X14517420Y-5873500D02*
X14517420Y-5683500D01*
X14878300Y-4950040D02*
X14878300Y-4580040D01*
X15068300Y-4950040D02*
X14878300Y-4950040D01*
X15068300Y-4580040D02*
X15068300Y-4950040D01*
X14878300Y-4580040D02*
X15068300Y-4580040D01*
X14680180Y-4950040D02*
X14680180Y-4580040D01*
X14870180Y-4950040D02*
X14680180Y-4950040D01*
X14870180Y-4580040D02*
X14870180Y-4950040D01*
X14680180Y-4580040D02*
X14870180Y-4580040D01*
X14136320Y-5873500D02*
X13766320Y-5873500D01*
X14136320Y-5683500D02*
X14136320Y-5873500D01*
X13766320Y-5683500D02*
X14136320Y-5683500D01*
X13766320Y-5873500D02*
X13766320Y-5683500D01*
X14141500Y-5683500D02*
X14511500Y-5683500D01*
X14141500Y-5873500D02*
X14141500Y-5683500D01*
X14511500Y-5873500D02*
X14141500Y-5873500D01*
X14511500Y-5683500D02*
X14511500Y-5873500D01*
X14141500Y-5058660D02*
X14511500Y-5058660D01*
X14141500Y-5248660D02*
X14141500Y-5058660D01*
X14511500Y-5248660D02*
X14141500Y-5248660D01*
X14511500Y-5058660D02*
X14511500Y-5248660D01*
X13529360Y-4926580D02*
X13899360Y-4926580D01*
X13529360Y-5116580D02*
X13529360Y-4926580D01*
X13899360Y-5116580D02*
X13529360Y-5116580D01*
X13899360Y-4926580D02*
X13899360Y-5116580D01*
X13639000Y-6311000D02*
X15014000Y-6311000D01*
X15014000Y-6311000D02*
X15014000Y-5951000D01*
X15014000Y-5951000D02*
X13639000Y-5951000D01*
X13639000Y-5951000D02*
X13639000Y-6311000D01*
X13550000Y-6096000D02*
G75*
G03X13550000Y-6096000I-215000J0D01*
G01*
X13550000Y-4826000D02*
G75*
G03X13550000Y-4826000I-215000J0D01*
G01*
X15582000Y-4826000D02*
G75*
G03X15582000Y-4826000I-215000J0D01*
G01*
X14672440Y-4831720D02*
X14342440Y-4831720D01*
X14672440Y-4831720D02*
X14672440Y-4581720D01*
X14342440Y-4581720D02*
X14342440Y-4831720D01*
X14342440Y-4581720D02*
X14672440Y-4581720D01*
X13550540Y-4776220D02*
X13550540Y-4586220D01*
X13550540Y-4586220D02*
X13886540Y-4586220D01*
X13886540Y-4586220D02*
X13886540Y-4776220D01*
X13886540Y-4776220D02*
X13550540Y-4776220D01*
M02*
