%TF.GenerationSoftware,KiCad,Pcbnew,5.1.5+dfsg1-2~bpo10+1*%
%TF.CreationDate,Date%
%TF.ProjectId,Gesture Sensor,47657374-7572-4652-9053-656e736f722e,rev?*%
%TF.SameCoordinates,Original*%
%TF.FileFunction,OtherDrawing,Comment*%
%FSLAX45Y45*%
G04 Gerber Fmt 4.5, Leading zero omitted, Abs format (unit mm)*
G04 Created by KiCad*
%MOMM*%
%LPD*%
G04 APERTURE LIST*
%ADD10C,0.150000*%
%ADD11C,0.050000*%
G04 APERTURE END LIST*
D10*
X14030756Y-4204803D02*
X14035501Y-4200025D01*
X14045008Y-4195230D01*
X14068817Y-4195147D01*
X14078358Y-4199875D01*
X14083136Y-4204621D01*
X14087931Y-4214128D01*
X14087965Y-4223652D01*
X14083253Y-4237954D01*
X14026310Y-4295296D01*
X14088214Y-4295080D01*
X14178341Y-4194764D02*
X14130722Y-4194931D01*
X14126126Y-4242566D01*
X14130871Y-4237788D01*
X14140379Y-4232992D01*
X14164188Y-4232909D01*
X14173728Y-4237638D01*
X14178507Y-4242383D01*
X14183302Y-4251890D01*
X14183385Y-4275700D01*
X14178656Y-4285240D01*
X14173911Y-4290019D01*
X14164404Y-4294814D01*
X14140595Y-4294897D01*
X14131054Y-4290168D01*
X14126276Y-4285423D01*
X14226275Y-4285074D02*
X14231054Y-4289819D01*
X14226308Y-4294598D01*
X14221530Y-4289852D01*
X14226275Y-4285074D01*
X14226308Y-4294598D01*
X14316551Y-4227616D02*
X14316784Y-4294282D01*
X14292609Y-4189604D02*
X14269049Y-4261115D01*
X14330953Y-4260899D01*
X14445355Y-4293833D02*
X14445122Y-4227167D01*
X14445155Y-4236690D02*
X14449901Y-4231912D01*
X14459408Y-4227117D01*
X14473693Y-4227067D01*
X14483234Y-4231796D01*
X14488029Y-4241303D01*
X14488212Y-4293683D01*
X14488029Y-4241303D02*
X14492757Y-4231762D01*
X14502265Y-4226967D01*
X14516550Y-4226917D01*
X14526091Y-4231646D01*
X14530886Y-4241153D01*
X14531068Y-4293534D01*
X14578687Y-4293368D02*
X14578455Y-4226701D01*
X14578488Y-4236225D02*
X14583233Y-4231447D01*
X14592740Y-4226651D01*
X14607026Y-4226602D01*
X14616566Y-4231330D01*
X14621361Y-4240837D01*
X14621544Y-4293218D01*
X14621361Y-4240837D02*
X14626090Y-4231297D01*
X14635597Y-4226502D01*
X14649883Y-4226452D01*
X14659423Y-4231181D01*
X14664218Y-4240688D01*
X14664401Y-4293068D01*
X13081750Y-4384007D02*
X15619210Y-4373847D01*
X13083540Y-4831080D02*
X13081515Y-4325365D01*
X15621000Y-4820920D02*
X15618975Y-4315205D01*
X15619210Y-4373847D02*
X15506795Y-4432939D01*
X15619210Y-4373847D02*
X15506326Y-4315656D01*
X13081750Y-4384007D02*
X13194634Y-4442197D01*
X13081750Y-4384007D02*
X13194165Y-4324914D01*
X15891537Y-5197428D02*
X15891337Y-5140286D01*
X15891437Y-5168857D02*
X15991436Y-5168508D01*
X15977117Y-5159034D01*
X15967560Y-5149544D01*
X15962765Y-5140037D01*
X15991652Y-5230413D02*
X15991885Y-5297079D01*
X15891736Y-5254571D01*
X15901542Y-5335490D02*
X15896797Y-5340268D01*
X15892019Y-5335523D01*
X15896764Y-5330744D01*
X15901542Y-5335490D01*
X15892019Y-5335523D01*
X15949377Y-5397228D02*
X15954106Y-5387687D01*
X15958851Y-5382909D01*
X15968358Y-5378114D01*
X15973120Y-5378097D01*
X15982661Y-5382826D01*
X15987439Y-5387571D01*
X15992234Y-5397078D01*
X15992301Y-5416126D01*
X15987572Y-5425666D01*
X15982827Y-5430445D01*
X15973320Y-5435240D01*
X15968558Y-5435256D01*
X15959017Y-5430528D01*
X15954239Y-5425782D01*
X15949444Y-5416275D01*
X15949377Y-5397228D01*
X15944582Y-5387721D01*
X15939804Y-5382975D01*
X15930263Y-5378247D01*
X15911216Y-5378313D01*
X15901709Y-5383108D01*
X15896963Y-5387887D01*
X15892235Y-5397427D01*
X15892301Y-5416475D01*
X15897096Y-5425982D01*
X15901875Y-5430727D01*
X15911415Y-5435456D01*
X15930463Y-5435389D01*
X15939970Y-5430594D01*
X15944715Y-5425816D01*
X15949444Y-5416275D01*
X15892783Y-5554569D02*
X15959450Y-5554336D01*
X15949926Y-5554370D02*
X15954704Y-5559115D01*
X15959499Y-5568622D01*
X15959549Y-5582908D01*
X15954821Y-5592448D01*
X15945314Y-5597243D01*
X15892933Y-5597426D01*
X15945314Y-5597243D02*
X15954854Y-5601972D01*
X15959649Y-5611479D01*
X15959699Y-5625764D01*
X15954970Y-5635305D01*
X15945463Y-5640100D01*
X15893083Y-5640283D01*
X15893249Y-5687902D02*
X15959915Y-5687669D01*
X15950391Y-5687702D02*
X15955170Y-5692447D01*
X15959965Y-5701954D01*
X15960015Y-5716240D01*
X15955286Y-5725780D01*
X15945779Y-5730576D01*
X15893398Y-5730758D01*
X15945779Y-5730576D02*
X15955319Y-5735304D01*
X15960114Y-5744811D01*
X15960164Y-5759097D01*
X15955436Y-5768637D01*
X15945929Y-5773432D01*
X15893548Y-5773615D01*
X15803880Y-4569460D02*
X15811500Y-6350000D01*
X15359203Y-4571363D02*
X15862522Y-4569209D01*
X15366823Y-6351903D02*
X15870142Y-6349749D01*
X15811500Y-6350000D02*
X15752376Y-6237602D01*
X15811500Y-6350000D02*
X15869659Y-6237100D01*
X15803880Y-4569460D02*
X15745721Y-4682360D01*
X15803880Y-4569460D02*
X15863004Y-4681858D01*
D11*
X13335000Y-6350000D02*
G75*
G02X13081000Y-6096000I0J254000D01*
G01*
X15367000Y-4572000D02*
G75*
G02X15621000Y-4826000I0J-254000D01*
G01*
X15621000Y-6096000D02*
G75*
G02X15367000Y-6350000I-254000J0D01*
G01*
X13081000Y-4826000D02*
G75*
G02X13335000Y-4572000I254000J0D01*
G01*
X13335000Y-4572000D02*
X15367000Y-4572000D01*
X13081000Y-4826000D02*
X13081000Y-6096000D01*
X15621000Y-4826000D02*
X15621000Y-6096000D01*
X13335000Y-6350000D02*
X15367000Y-6350000D01*
M02*
